<?xml version="1.0" encoding="utf-8"?>
<!-- Generator: Adobe Illustrator 16.0.4, SVG Export Plug-In . SVG Version: 6.00 Build 0)  -->
<!DOCTYPE svg PUBLIC "-//W3C//DTD SVG 1.1//EN" "http://www.w3.org/Graphics/SVG/1.1/DTD/svg11.dtd">
<svg version="1.1" xmlns="http://www.w3.org/2000/svg" xmlns:xlink="http://www.w3.org/1999/xlink" x="0px" y="0px" width="960px"
	 height="560px" viewBox="0 0 960 560" style="enable-background:new 0 0 960 560;" xml:space="preserve">
<g id="Layer_2" style="display:none;">
	<rect style="display:inline;fill:#231F20;" width="960" height="560"/>
</g>
<g id="Layer_1">
	<g>
		<path style="fill:#DD4A1F;" d="M756.8,246.1h-3.4V205h3.4v5.2h0.1c0.5-0.9,1.1-1.8,1.9-2.6c0.8-0.8,1.6-1.4,2.6-1.9
			c0.9-0.5,1.9-0.9,2.9-1.1c1-0.3,2-0.4,2.9-0.4c2.4,0,4.4,0.4,6.1,1.2c1.7,0.8,3,1.9,4.1,3.3c1.1,1.4,1.9,3,2.4,4.9
			c0.5,1.9,0.7,3.9,0.7,6.1c0,2-0.3,4-0.8,5.9c-0.5,1.9-1.3,3.6-2.4,5c-1.1,1.4-2.4,2.6-4.1,3.4c-1.6,0.9-3.6,1.3-5.8,1.3
			c-2.1,0-4.1-0.5-6-1.4c-1.9-0.9-3.4-2.3-4.5-4.1V246.1z M756.8,219.9c0,1.7,0.2,3.3,0.7,4.8c0.5,1.5,1.1,2.8,2,3.9
			c0.9,1.1,1.9,2,3.1,2.7c1.2,0.7,2.6,1,4.2,1c1.7,0,3.3-0.4,4.6-1.1c1.3-0.7,2.4-1.7,3.2-2.9c0.8-1.2,1.4-2.6,1.8-4.2
			c0.4-1.6,0.5-3.3,0.5-5.2c0-1.9-0.3-3.5-0.8-4.9s-1.2-2.6-2.1-3.6c-0.9-1-2-1.7-3.2-2.2c-1.2-0.5-2.5-0.8-4-0.8
			c-1.6,0-3,0.3-4.3,1c-1.2,0.6-2.3,1.5-3.1,2.6c-0.8,1.1-1.5,2.4-1.9,4S756.8,218.1,756.8,219.9z"/>
		<path style="fill:#DD4A1F;" d="M796.7,235.3c-1.9,0-3.7-0.4-5.3-1s-3.1-1.6-4.3-2.9c-1.2-1.3-2.2-2.9-2.9-4.8
			c-0.7-1.9-1.1-4.2-1.1-6.8c0-2.2,0.3-4.2,0.9-6.1s1.4-3.5,2.6-4.9c1.1-1.4,2.6-2.5,4.3-3.3c1.7-0.8,3.7-1.2,6-1.2
			c2.3,0,4.3,0.4,6,1.2c1.7,0.8,3.1,1.9,4.3,3.3c1.1,1.4,2,3,2.5,4.9c0.6,1.9,0.8,3.9,0.8,6.1c0,2.4-0.3,4.5-1,6.4
			c-0.6,1.9-1.6,3.5-2.8,4.9c-1.2,1.4-2.6,2.4-4.3,3.2S798.7,235.3,796.7,235.3z M806.7,219.8c0-1.7-0.2-3.4-0.6-4.9
			c-0.4-1.5-1-2.8-1.8-4c-0.8-1.1-1.8-2-3.1-2.6c-1.3-0.6-2.8-1-4.6-1c-1.8,0-3.3,0.4-4.6,1.1c-1.3,0.7-2.3,1.6-3.1,2.8
			c-0.8,1.2-1.4,2.5-1.8,4c-0.4,1.5-0.6,3-0.6,4.6c0,1.8,0.2,3.5,0.7,5c0.4,1.5,1.1,2.9,1.9,4c0.8,1.1,1.9,2,3.1,2.6
			c1.2,0.6,2.7,0.9,4.3,0.9c1.8,0,3.3-0.4,4.6-1.1c1.3-0.7,2.3-1.6,3.1-2.8c0.8-1.2,1.4-2.5,1.8-4S806.7,221.3,806.7,219.8z"/>
		<path style="fill:#DD4A1F;" d="M814.2,234.5v-41h3.4v41H814.2z"/>
		<path style="fill:#DD4A1F;" d="M823.3,242.5c0.5,0.1,0.9,0.2,1.4,0.2c0.5,0.1,1,0.1,1.5,0.1c0.9,0,1.7-0.3,2.3-0.9
			c0.6-0.6,1.1-1.3,1.5-2.2s0.7-1.7,1-2.7c0.3-0.9,0.6-1.7,0.9-2.4L820.5,205h3.8l9.4,25.3l9.4-25.3h3.7l-11,29.1
			c-0.7,1.9-1.3,3.5-2,5c-0.6,1.5-1.3,2.7-2,3.8c-0.7,1-1.5,1.8-2.3,2.4c-0.9,0.5-1.9,0.8-3,0.8c-0.6,0-1.2,0-1.7-0.1
			c-0.6-0.1-1.1-0.2-1.5-0.3V242.5z"/>
		<path style="fill:#A9CF37;" d="M775.8,259.6h3.4v26.6c0,2-0.2,3.9-0.6,5.7c-0.4,1.8-1.1,3.4-2.1,4.8c-1,1.4-2.4,2.5-4.2,3.3
			c-1.8,0.8-4.1,1.2-6.9,1.2c-2.2,0-4-0.3-5.6-0.8c-1.6-0.6-2.8-1.2-3.8-2.1c-1-0.8-1.7-1.8-2.2-2.8s-0.8-1.9-0.8-2.8h3.6
			c0.3,1.1,0.7,2,1.3,2.7c0.6,0.7,1.2,1.3,2,1.6c0.8,0.4,1.6,0.7,2.6,0.8s1.9,0.2,3,0.2c2.3,0,4.2-0.4,5.6-1.2
			c1.4-0.8,2.5-1.8,3.2-3.1s1.2-2.8,1.4-4.4c0.2-1.6,0.3-3.3,0.3-5c-1.1,1.8-2.6,3.2-4.5,4.1c-1.9,0.9-3.9,1.4-6,1.4
			c-2.2,0-4.2-0.4-5.8-1.3s-3-2-4.1-3.4c-1.1-1.4-1.9-3.1-2.4-5c-0.5-1.9-0.8-3.9-0.8-5.9c0-2.2,0.2-4.2,0.7-6.1
			c0.5-1.9,1.3-3.5,2.4-4.9c1.1-1.4,2.5-2.5,4.1-3.3c1.7-0.8,3.7-1.2,6.1-1.2c0.9,0,1.9,0.1,2.9,0.4c1,0.3,1.9,0.6,2.9,1.1
			c0.9,0.5,1.8,1.1,2.6,1.9c0.8,0.8,1.4,1.6,1.9,2.6h0.1V259.6z M775.8,274.4c0-1.8-0.2-3.4-0.7-5c-0.4-1.5-1.1-2.9-1.9-4
			c-0.8-1.1-1.9-2-3.1-2.6c-1.3-0.6-2.7-1-4.3-1c-1.4,0-2.8,0.3-4,0.8c-1.2,0.5-2.3,1.3-3.2,2.2c-0.9,1-1.6,2.2-2.1,3.6
			s-0.8,3.1-0.8,4.9c-0.1,1.9,0.1,3.6,0.5,5.2c0.4,1.6,1,3,1.8,4.2s1.9,2.2,3.2,2.9s2.8,1.1,4.6,1.1c1.6,0,2.9-0.3,4.2-1
			c1.2-0.7,2.3-1.6,3.1-2.7c0.9-1.1,1.5-2.4,2-3.9C775.6,277.7,775.8,276.1,775.8,274.4z"/>
		<path style="fill:#A9CF37;" d="M798.5,271.9c0.6-0.1,1.4-0.2,2.3-0.3c0.9-0.2,1.6-0.4,2.2-0.6c0.6-0.3,0.9-0.7,1.1-1.3
			s0.2-1.2,0.2-1.7c0-1.7-0.6-3.2-1.7-4.3c-1.1-1.1-3-1.7-5.7-1.7c-1.2,0-2.3,0.1-3.2,0.3c-1,0.2-1.8,0.6-2.6,1.1
			c-0.7,0.5-1.3,1.2-1.8,2s-0.8,1.9-0.9,3.2h-3.5c0.1-1.7,0.5-3.2,1.2-4.5c0.7-1.2,1.6-2.2,2.6-3c1.1-0.8,2.3-1.3,3.8-1.7
			c1.4-0.4,2.9-0.5,4.5-0.5c1.5,0,2.9,0.2,4.2,0.5c1.3,0.3,2.4,0.8,3.4,1.5c1,0.7,1.7,1.6,2.3,2.8c0.6,1.2,0.8,2.6,0.8,4.3v16
			c0,1.3,0.2,2.2,0.7,2.5c0.5,0.4,1.4,0.3,2.9-0.3v2.7c-0.3,0.1-0.7,0.2-1.2,0.3c-0.5,0.2-1,0.2-1.5,0.2c-0.5,0-1-0.1-1.5-0.2
			c-0.6-0.1-1-0.3-1.4-0.5s-0.6-0.6-0.8-1c-0.2-0.4-0.4-0.8-0.4-1.3c-0.1-0.5-0.1-1-0.1-1.5c-1.4,1.6-3.1,2.8-4.9,3.6
			c-1.9,0.8-3.9,1.3-6,1.3c-1.3,0-2.5-0.2-3.7-0.5c-1.2-0.3-2.2-0.9-3.2-1.6c-0.9-0.7-1.6-1.6-2.2-2.6c-0.5-1-0.8-2.3-0.8-3.7
			c0-5,3.4-8,10.3-8.9L798.5,271.9z M804.2,273.6c-1.4,0.6-2.9,1-4.4,1.2c-1.5,0.2-3,0.3-4.4,0.5c-2.6,0.2-4.7,0.8-6.1,1.8
			c-1.5,1-2.2,2.5-2.2,4.5c0,0.9,0.2,1.7,0.5,2.4c0.4,0.7,0.8,1.2,1.4,1.7c0.6,0.4,1.3,0.8,2,1c0.8,0.2,1.6,0.3,2.4,0.3
			c1.4,0,2.7-0.2,4-0.5c1.3-0.3,2.4-0.9,3.4-1.6c1-0.7,1.8-1.6,2.4-2.7c0.6-1.1,0.9-2.4,0.9-3.8V273.6z"/>
		<path style="fill:#A9CF37;" d="M816.7,289h-3.4v-29.5h3.4v4.4h0.1c0.9-1.7,2.1-3,3.8-3.9c1.6-0.9,3.4-1.3,5.3-1.3
			c1.4,0,2.5,0.2,3.5,0.5c0.9,0.3,1.8,0.7,2.4,1.2c0.7,0.5,1.2,1.1,1.6,1.8s0.8,1.4,1.1,2.2c1-1.9,2.3-3.4,4-4.3
			c1.7-0.9,3.5-1.4,5.7-1.4c2,0,3.6,0.3,4.8,1c1.2,0.7,2.1,1.5,2.8,2.6c0.6,1.1,1.1,2.3,1.3,3.7c0.2,1.4,0.3,2.8,0.3,4.3V289h-3.4
			v-20.4c0-2.1-0.4-3.8-1.3-5c-0.9-1.2-2.6-1.8-5-1.8c-1.3,0-2.5,0.3-3.6,0.8c-1.2,0.6-2.2,1.4-3,2.5c-0.4,0.5-0.7,1.1-0.9,1.7
			c-0.2,0.7-0.4,1.4-0.6,2.1c-0.2,0.7-0.3,1.4-0.3,2.2c-0.1,0.7-0.1,1.4-0.1,2V289h-3.4v-20.4c0-2.1-0.4-3.8-1.3-5
			c-0.9-1.2-2.6-1.8-5-1.8c-1.3,0-2.5,0.3-3.6,0.8c-1.2,0.6-2.2,1.4-3,2.5c-0.4,0.5-0.7,1.1-0.9,1.7c-0.2,0.7-0.4,1.4-0.6,2.1
			c-0.2,0.7-0.3,1.4-0.3,2.2c-0.1,0.7-0.1,1.4-0.1,2V289z"/>
		<path style="fill:#A9CF37;" d="M858.6,253.1v-5.1h3.8v5.1H858.6z M858.8,289v-29.5h3.4V289H858.8z"/>
		<path style="fill:#A9CF37;" d="M871.5,289h-3.4v-29.5h3.4v4.1c1.4-1.4,2.8-2.6,4.2-3.5c1.5-0.9,3.2-1.4,5.3-1.4
			c1.8,0,3.5,0.3,5.1,0.9c1.6,0.6,2.9,1.7,3.9,3.3c0.7,1.1,1.1,2.2,1.3,3.3c0.1,1.1,0.2,2.3,0.2,3.5V289H888v-19.2
			c0-2.7-0.6-4.6-1.8-6c-1.2-1.3-3.1-2-5.9-2c-1.1,0-2,0.2-2.9,0.5c-0.9,0.3-1.7,0.7-2.4,1.3c-0.7,0.5-1.3,1.1-1.8,1.8
			c-0.5,0.7-0.9,1.4-1.1,2.2c-0.3,0.9-0.6,1.9-0.6,2.7c-0.1,0.9-0.1,1.8-0.1,2.8V289z"/>
		<path style="fill:#A9CF37;" d="M919.6,259.6h3.4v26.6c0,2-0.2,3.9-0.6,5.7c-0.4,1.8-1.1,3.4-2.1,4.8c-1,1.4-2.4,2.5-4.2,3.3
			c-1.8,0.8-4.1,1.2-6.9,1.2c-2.2,0-4-0.3-5.6-0.8c-1.6-0.6-2.8-1.2-3.8-2.1c-1-0.8-1.7-1.8-2.2-2.8s-0.8-1.9-0.8-2.8h3.6
			c0.3,1.1,0.7,2,1.3,2.7c0.6,0.7,1.2,1.3,2,1.6c0.8,0.4,1.6,0.7,2.6,0.8s1.9,0.2,3,0.2c2.3,0,4.2-0.4,5.6-1.2
			c1.4-0.8,2.5-1.8,3.2-3.1s1.2-2.8,1.4-4.4c0.2-1.6,0.3-3.3,0.3-5c-1.1,1.8-2.6,3.2-4.5,4.1c-1.9,0.9-3.9,1.4-6,1.4
			c-2.2,0-4.2-0.4-5.8-1.3s-3-2-4.1-3.4c-1.1-1.4-1.9-3.1-2.4-5c-0.5-1.9-0.8-3.9-0.8-5.9c0-2.2,0.2-4.2,0.7-6.1
			c0.5-1.9,1.3-3.5,2.4-4.9c1.1-1.4,2.5-2.5,4.1-3.3c1.7-0.8,3.7-1.2,6.1-1.2c0.9,0,1.9,0.1,2.9,0.4c1,0.3,1.9,0.6,2.9,1.1
			c0.9,0.5,1.8,1.1,2.6,1.9c0.8,0.8,1.4,1.6,1.9,2.6h0.1V259.6z M919.6,274.4c0-1.8-0.2-3.4-0.7-5c-0.4-1.5-1.1-2.9-1.9-4
			c-0.8-1.1-1.9-2-3.1-2.6c-1.3-0.6-2.7-1-4.3-1c-1.4,0-2.8,0.3-4,0.8c-1.2,0.5-2.3,1.3-3.2,2.2c-0.9,1-1.6,2.2-2.1,3.6
			s-0.8,3.1-0.8,4.9c-0.1,1.9,0.1,3.6,0.5,5.2c0.4,1.6,1,3,1.8,4.2s1.9,2.2,3.2,2.9s2.8,1.1,4.6,1.1c1.6,0,2.9-0.3,4.2-1
			c1.2-0.7,2.3-1.6,3.1-2.7c0.9-1.1,1.5-2.4,2-3.9C919.4,277.7,919.6,276.1,919.6,274.4z"/>
		<path style="fill:#72B5E3;" d="M756.4,343.6H753v-29.5h3.4v4.1c1.4-1.4,2.8-2.6,4.2-3.5c1.5-0.9,3.2-1.4,5.3-1.4
			c1.8,0,3.5,0.3,5.1,0.9c1.6,0.6,2.9,1.7,3.9,3.3c0.7,1.1,1.1,2.2,1.3,3.3c0.1,1.1,0.2,2.3,0.2,3.5v19.3H773v-19.2
			c0-2.7-0.6-4.6-1.8-6c-1.2-1.3-3.1-2-5.9-2c-1.1,0-2,0.2-2.9,0.5c-0.9,0.3-1.7,0.8-2.4,1.3c-0.7,0.5-1.3,1.1-1.8,1.8
			c-0.5,0.7-0.9,1.4-1.1,2.2c-0.3,0.9-0.6,1.9-0.6,2.7c-0.1,0.9-0.1,1.8-0.1,2.8V343.6z"/>
		<path style="fill:#72B5E3;" d="M783.9,329.7c0,1.6,0.2,3.1,0.6,4.5c0.4,1.4,1,2.7,1.8,3.7c0.8,1,1.8,1.9,3.1,2.5s2.7,0.9,4.3,0.9
			c2.2,0,4.2-0.6,5.7-1.8c1.6-1.2,2.7-2.8,3.2-5h3.8c-0.4,1.4-1,2.7-1.6,3.9c-0.7,1.2-1.5,2.2-2.6,3.1c-1,0.9-2.2,1.6-3.6,2.1
			c-1.4,0.5-3,0.7-4.9,0.7c-2.4,0-4.4-0.4-6.1-1.2c-1.7-0.8-3.1-1.9-4.2-3.3c-1.1-1.4-1.9-3-2.4-4.9c-0.5-1.9-0.8-3.9-0.8-6.1
			s0.3-4.2,0.9-6.1c0.6-1.9,1.5-3.6,2.7-5c1.2-1.4,2.6-2.5,4.2-3.4c1.7-0.8,3.6-1.2,5.7-1.2c4.1,0,7.2,1.4,9.6,4.2
			c2.3,2.8,3.5,6.8,3.4,12.1H783.9z M803.2,326.8c0-1.4-0.2-2.8-0.6-4.1c-0.4-1.3-1-2.4-1.8-3.3c-0.8-0.9-1.8-1.7-2.9-2.2
			s-2.5-0.8-4-0.8s-2.9,0.3-4,0.9c-1.2,0.6-2.1,1.3-3,2.3c-0.8,0.9-1.5,2-2,3.3c-0.5,1.3-0.8,2.6-1,4H803.2z"/>
		<path style="fill:#72B5E3;" d="M821,343.7c-0.4,0.1-1,0.2-1.6,0.4c-0.7,0.2-1.4,0.3-2.3,0.3c-1.7,0-3-0.4-3.9-1.3
			c-0.9-0.9-1.3-2.4-1.3-4.6V317h-4.2v-2.8h4.2v-8.2h3.4v8.2h5.5v2.8h-5.5v20.2c0,0.7,0,1.3,0.1,1.9c0,0.5,0.2,1,0.3,1.3
			c0.2,0.3,0.5,0.6,0.9,0.7s1,0.2,1.7,0.2c0.5,0,0.9,0,1.4-0.1c0.5-0.1,0.9-0.2,1.4-0.3V343.7z"/>
		<path style="fill:#72B5E3;" d="M848.5,339.1l7.7-24.9h3.5l-9.6,29.5h-3.6l-6.4-24.8H840l-6.5,24.8h-4.1l-9-29.5h3.4l7.6,25.1
			l6.8-25.1h3.8L848.5,339.1z"/>
		<path style="fill:#72B5E3;" d="M873.5,344.4c-1.9,0-3.7-0.4-5.3-1s-3.1-1.6-4.3-2.9c-1.2-1.3-2.2-2.9-2.9-4.8
			c-0.7-1.9-1.1-4.2-1.1-6.8c0-2.2,0.3-4.2,0.9-6.1c0.6-1.9,1.4-3.5,2.6-4.9c1.1-1.4,2.6-2.5,4.3-3.3s3.7-1.2,6-1.2
			c2.3,0,4.3,0.4,6,1.2s3.1,1.9,4.3,3.3c1.1,1.4,2,3,2.5,4.9c0.6,1.9,0.8,3.9,0.8,6.1c0,2.4-0.3,4.5-1,6.4c-0.6,1.9-1.6,3.5-2.8,4.9
			s-2.6,2.4-4.3,3.2C877.5,344,875.6,344.4,873.5,344.4z M883.5,328.9c0-1.7-0.2-3.4-0.6-4.9c-0.4-1.5-1-2.8-1.8-4
			c-0.8-1.1-1.8-2-3.1-2.6c-1.3-0.6-2.8-1-4.6-1c-1.8,0-3.3,0.4-4.6,1.1c-1.3,0.7-2.3,1.6-3.1,2.8s-1.4,2.5-1.8,4
			c-0.4,1.5-0.6,3-0.6,4.6c0,1.8,0.2,3.5,0.7,5c0.4,1.5,1.1,2.9,1.9,4c0.8,1.1,1.9,2,3.1,2.6c1.2,0.6,2.7,0.9,4.3,0.9
			c1.8,0,3.3-0.4,4.6-1.1c1.3-0.7,2.3-1.6,3.1-2.8s1.4-2.5,1.8-4C883.4,332,883.5,330.5,883.5,328.9z"/>
		<path style="fill:#72B5E3;" d="M894.2,343.6h-3.4v-29.5h3.4v5.5h0.1c0.9-2.4,2.2-4,3.7-4.9s3.5-1.4,5.9-1.4v3.7
			c-1.9,0-3.5,0.3-4.8,0.9c-1.3,0.6-2.2,1.5-3,2.6c-0.7,1.1-1.3,2.4-1.5,3.9c-0.3,1.5-0.4,3.1-0.4,4.7V343.6z"/>
		<path style="fill:#72B5E3;" d="M906.5,343.6v-41h3.4v25.5l14.5-14h4.7l-11,10.6l12.3,18.8h-3.8l-11-16.4l-5.6,5.3v11.2H906.5z"/>
	</g>
	<g>
		<g>
			<g>
				<g>
					<path style="fill:#72B5E3;" d="M700.7,204.9c7.6,0,13.2,1.5,16.8,4.5c3.4,2.9,5,7.3,5,13.4v62.4c0,12.8-6.7,18.5-21.8,18.5
						h-58.5v-80.8c0-12.4,6.5-17.9,21.2-17.9H700.7 M700.7,200.9h-37.3c-16.8,0-25.2,7.3-25.2,21.9v84.8h62.5
						c17.2,0,25.8-7.5,25.8-22.5v-62.4C726.5,208.2,717.9,200.9,700.7,200.9L700.7,200.9z"/>
				</g>
			</g>
			<g>
				<path style="fill:#72B5E3;" d="M713.7,273.9c0,4.5-3.7,8.2-8.2,8.2h-46.2c-4.5,0-8.2-3.7-8.2-8.2v-39.1c0-4.5,3.7-8.2,8.2-8.2
					h46.2c4.5,0,8.2,3.7,8.2,8.2V273.9z"/>
			</g>
			<path style="fill:#72B5E3;" d="M639.2,305.7l1-82.8c0-7.1,0-10.5,4-14.1c-1.2-2.2-2.4-6.2-3.8-8.2c-3.9-5.6-8.5-10.4-13.6-14.3
				c-5.1-3.9-10.5-7.2-16.1-9.8c-5.6-2.6-11.3-4.4-17-5.6c-5.7-1.2-11.2-1.7-16.3-1.7h-92.4h-20.6v20.3V237
				c15.8,0.6,21.8,5.8,21.8,19.9v62.4c0,10.4-4.1,17.2-12.4,20.3h31.6V210.1h71.7c4.9,0,9.5,0.8,13.8,2.4c4.3,1.6,8,4,11.1,7
				c3.2,3.1,5.6,6.7,7.5,11c1.8,4.3,2.8,9.1,2.8,14.4v94.6h41v-33.8H639.2z"/>
		</g>
		<g>
			<g>
				<g>
					<path style="fill:#A9CF37;" d="M462.4,238.9c7.6,0,13.2,1.5,16.8,4.5c3.4,2.9,5,7.3,5,13.4v62.4c0,12.8-6.7,18.5-21.8,18.5
						h-58.5v-80.8c0-12.4,6.5-17.9,21.2-17.9H462.4 M462.4,234.9h-37.3c-16.8,0-25.2,7.3-25.2,21.9v84.8h62.5
						c17.2,0,25.8-7.5,25.8-22.5v-62.4C488.2,242.2,479.6,234.9,462.4,234.9L462.4,234.9z"/>
				</g>
			</g>
			<g>
				<g>
					<path style="fill:#A9CF37;" d="M414.2,281.1h20.9v-21h17.6v21h21v17.6h-21v20.9h-17.6v-20.9h-20.9V281.1z"/>
				</g>
			</g>
			<path style="fill:#A9CF37;" d="M401.9,340.6v-83.8c0-14.6,6.4-19.9,23.2-19.9h1.7v-10.4c0-7-0.9-13.3-2.7-18.9
				c-1.8-5.6-4.2-10.5-7.1-14.7c-2.9-4.3-6.4-7.9-10.2-10.9c-3.9-3-8-5.4-12.2-7.3c-4.3-1.9-8.6-3.3-12.9-4.2
				c-4.4-0.9-8.5-1.3-12.4-1.3h-73.9c-7,0-13.3,0.9-18.9,2.7c-3.7,1.2-8.1,3.7-11.2,5.3l-1,54.7c0,15-6.6,20.5-23.8,20.5h-2.5V264
				c0,7,0.9,13.4,2.7,19c1.8,5.6,4.1,10.6,7.1,14.8c2.9,4.3,6.4,7.9,10.2,10.9c3.9,3,8,5.4,12.2,7.3c4.3,1.9,8.5,3.3,12.8,4.2
				c4.3,0.9,8.4,1.3,12.3,1.3h73.9v-41h-73.6c-5.5,0-9.6-1.4-12.5-4.3c-2.8-2.8-4.3-6.9-4.3-12.3v-37.5c0-4.7,1.5-8.6,4.4-11.7
				c2.9-3.1,6.9-4.6,12-4.6h73.9c5.6,0,9.7,1.4,12.5,4.2c2.7,2.8,4.1,6.9,4.1,12.2v129.4c0,5.4-1.4,9.5-4.1,12.3
				c-2.7,2.8-6.9,4.3-12.5,4.3h-73.9v41h73.9c3.9,0,8-0.5,12.4-1.3c4.4-0.9,8.7-2.3,12.9-4.2c4.3-1.9,8.3-4.3,12.2-7.3
				c3.9-3,7.3-6.6,10.2-10.9c2.9-4.3,5.3-9.2,7.1-14.8c1.8-5.6,2.7-12,2.7-19v-15.3H401.9z"/>
		</g>
		<g>
			<g>
				<g>
					<path style="fill:#DD4A1F;" d="M240.6,151.6c7.6,0,13.2,1.5,16.8,4.5c3.4,2.9,5,7.3,5,13.4v62.4c0,12.8-6.7,18.5-21.8,18.5
						h-58.5v-80.8c0-12.4,6.6-17.9,21.2-17.9H240.6 M240.6,147.6h-37.3c-16.8,0-25.2,7.3-25.2,21.9v84.8h62.5
						c17.2,0,25.8-7.5,25.8-22.5v-62.4C266.3,154.9,257.7,147.6,240.6,147.6L240.6,147.6z"/>
				</g>
			</g>
			<g>
				<path style="fill:#DD4A1F;" d="M251.7,200.9c0,16.1-13,29.1-29.1,29.1c-16.1,0-29.1-13-29.1-29.1c0-16.1,13-29.1,29.1-29.1
					C238.6,171.8,251.7,184.9,251.7,200.9z"/>
			</g>
			<path style="fill:#DD4A1F;" d="M180.1,252.3V176c-3.1-1.7-8.4-3.1-12-4.2c-5.6-1.8-11.9-2.7-18.9-2.7H75.2
				c-3.8,0-7.9,0.4-12.2,1.3c-4.4,0.9-8.7,2.3-12.9,4.2c-4.3,1.9-8.3,4.3-12.2,7.3c-3.9,3-7.3,6.6-10.3,10.9s-5.4,9.2-7.2,14.7
				c-1.8,5.6-2.7,11.9-2.7,18.9v166.3h41V226.5c0-5.4,1.4-9.4,4.3-12.2c2.8-2.8,7-4.2,12.6-4.2h73.6c5.4,0,9.4,1.4,12.2,4.1
				c2.8,2.7,4.2,6.9,4.2,12.6V282c0,5.4-1.4,9.5-4.1,12.3c-2.7,2.8-6.8,4.3-12.3,4.3H75.2v41h73.9c3.9,0,8-0.4,12.3-1.3
				c4.3-0.9,8.6-2.3,12.8-4.2c4.3-1.9,8.3-4.3,12.2-7.3c3.9-3,7.3-6.6,10.2-10.9c2.9-4.3,5.3-9.2,7.1-14.8c1.8-5.6,2.7-12,2.7-19
				v-29.7H180.1z"/>
		</g>
	</g>
	<g>
	</g>
	<g>
	</g>
	<g>
	</g>
	<g>
	</g>
	<g>
	</g>
	<g>
	</g>
	<g>
	</g>
	<g>
	</g>
	<g>
	</g>
	<g>
	</g>
	<g>
	</g>
	<g>
	</g>
	<g>
	</g>
	<g>
	</g>
	<g>
	</g>
</g>
</svg>
