<?xml version="1.0" encoding="utf-8"?>
<!-- Generator: Adobe Illustrator 16.0.4, SVG Export Plug-In . SVG Version: 6.00 Build 0)  -->
<!DOCTYPE svg PUBLIC "-//W3C//DTD SVG 1.1//EN" "http://www.w3.org/Graphics/SVG/1.1/DTD/svg11.dtd">
<svg version="1.1" id="Layer_2" xmlns="http://www.w3.org/2000/svg" xmlns:xlink="http://www.w3.org/1999/xlink" x="0px" y="0px"
	 width="912.699px" height="265.9px" viewBox="0 0 912.699 265.9" enable-background="new 0 0 912.699 265.9" xml:space="preserve">
<g id="Layer_1_2_">
	<g>
		<path fill="#DD4A1F" d="M738.801,97.1h-3.4V56h3.4v5.2h0.1c0.5-0.9,1.1-1.8,1.9-2.6c0.8-0.8,1.6-1.4,2.6-1.9
			c0.9-0.5,1.9-0.9,2.9-1.1c1-0.3,2-0.4,2.899-0.4c2.4,0,4.4,0.4,6.101,1.2c1.699,0.8,3,1.9,4.1,3.3c1.1,1.4,1.9,3,2.4,4.9
			s0.699,3.9,0.699,6.1c0,2-0.3,4-0.8,5.9s-1.3,3.6-2.399,5c-1.101,1.4-2.4,2.6-4.101,3.4c-1.6,0.9-3.6,1.3-5.8,1.3
			c-2.1,0-4.1-0.5-6-1.4s-3.4-2.3-4.5-4.1v16.3H738.801z M738.801,70.9c0,1.7,0.199,3.3,0.699,4.8s1.101,2.8,2,3.9
			c0.9,1.1,1.9,2,3.101,2.7c1.2,0.7,2.6,1,4.2,1c1.699,0,3.3-0.4,4.6-1.1c1.3-0.7,2.4-1.7,3.2-2.9c0.8-1.2,1.399-2.6,1.8-4.2
			s0.5-3.3,0.5-5.2s-0.3-3.5-0.8-4.9s-1.2-2.6-2.101-3.6c-0.899-1-2-1.7-3.199-2.2c-1.2-0.5-2.5-0.8-4-0.8c-1.601,0-3,0.3-4.301,1
			c-1.199,0.6-2.3,1.5-3.1,2.6s-1.5,2.4-1.9,4C739.101,67.6,738.801,69.1,738.801,70.9z"/>
		<path fill="#DD4A1F" d="M778.7,86.3c-1.899,0-3.7-0.4-5.3-1c-1.6-0.6-3.1-1.6-4.3-2.9c-1.2-1.3-2.2-2.9-2.9-4.8s-1.1-4.2-1.1-6.8
			c0-2.2,0.3-4.2,0.9-6.1c0.6-1.9,1.399-3.5,2.6-4.9c1.1-1.4,2.6-2.5,4.3-3.3s3.7-1.2,6-1.2s4.3,0.4,6,1.2s3.1,1.9,4.3,3.3
			c1.101,1.4,2,3,2.5,4.9c0.601,1.9,0.8,3.9,0.8,6.1c0,2.4-0.3,4.5-1,6.4c-0.6,1.9-1.6,3.5-2.8,4.9s-2.6,2.4-4.3,3.2
			C782.7,86.1,780.7,86.3,778.7,86.3z M788.7,70.8c0-1.7-0.2-3.4-0.6-4.9c-0.4-1.5-1-2.8-1.8-4c-0.8-1.1-1.8-2-3.101-2.6
			c-1.3-0.6-2.8-1-4.6-1s-3.3,0.4-4.6,1.1c-1.301,0.7-2.301,1.6-3.101,2.8c-0.8,1.2-1.399,2.5-1.8,4s-0.6,3-0.6,4.6
			c0,1.8,0.2,3.5,0.7,5c0.399,1.5,1.1,2.9,1.899,4c0.8,1.1,1.9,2,3.101,2.6c1.199,0.6,2.699,0.9,4.3,0.9c1.8,0,3.3-0.4,4.6-1.1
			c1.3-0.7,2.3-1.6,3.1-2.8c0.801-1.2,1.4-2.5,1.801-4C788.401,73.9,788.7,72.3,788.7,70.8z"/>
		<path fill="#DD4A1F" d="M796.2,85.5v-41h3.4v41H796.2z"/>
		<path fill="#DD4A1F" d="M805.301,93.5c0.5,0.1,0.899,0.2,1.399,0.2c0.5,0.1,1,0.1,1.5,0.1c0.9,0,1.7-0.3,2.3-0.9
			c0.601-0.6,1.101-1.3,1.5-2.2c0.4-0.9,0.7-1.7,1-2.7c0.301-0.9,0.601-1.7,0.9-2.4L802.5,56h3.801l9.399,25.3l9.4-25.3h3.7
			l-11,29.1c-0.7,1.9-1.3,3.5-2,5c-0.601,1.5-1.3,2.7-2,3.8c-0.7,1-1.5,1.8-2.3,2.4c-0.9,0.5-1.9,0.8-3,0.8c-0.601,0-1.2,0-1.7-0.1
			c-0.601-0.1-1.101-0.2-1.5-0.3V93.5L805.301,93.5z"/>
		<path fill="#A9CF37" d="M757.801,110.6h3.399v26.6c0,2-0.2,3.899-0.6,5.7c-0.4,1.8-1.1,3.399-2.1,4.8c-1,1.399-2.4,2.5-4.2,3.3
			s-4.101,1.2-6.9,1.2c-2.2,0-4-0.3-5.6-0.8c-1.601-0.601-2.8-1.2-3.8-2.101c-1-0.8-1.7-1.8-2.2-2.8s-0.8-1.9-0.8-2.8h3.6
			c0.3,1.1,0.7,2,1.3,2.7c0.6,0.699,1.2,1.3,2,1.6c0.8,0.4,1.6,0.7,2.6,0.8c1,0.101,1.9,0.2,3,0.2c2.301,0,4.2-0.4,5.601-1.2
			c1.399-0.8,2.5-1.8,3.2-3.1c0.699-1.3,1.199-2.8,1.399-4.4c0.2-1.6,0.3-3.3,0.3-5c-1.1,1.8-2.6,3.2-4.5,4.101
			c-1.899,0.899-3.899,1.399-6,1.399c-2.199,0-4.199-0.399-5.8-1.3c-1.6-0.9-3-2-4.1-3.4c-1.1-1.399-1.9-3.1-2.4-5s-0.8-3.9-0.8-5.9
			c0-2.2,0.2-4.2,0.7-6.1s1.3-3.5,2.4-4.9c1.1-1.4,2.5-2.5,4.1-3.3c1.7-0.8,3.7-1.2,6.1-1.2c0.9,0,1.9,0.1,2.9,0.4s1.9,0.6,2.9,1.1
			c0.899,0.5,1.8,1.1,2.6,1.9s1.4,1.6,1.9,2.6h0.1v-5.1H757.801z M757.801,125.4c0-1.8-0.2-3.4-0.7-5c-0.4-1.5-1.101-2.9-1.9-4
			s-1.899-2-3.1-2.6c-1.3-0.6-2.7-1-4.3-1c-1.4,0-2.801,0.3-4,0.8c-1.2,0.5-2.301,1.3-3.2,2.2c-0.9,1-1.601,2.2-2.101,3.6
			s-0.8,3.1-0.8,4.9c-0.1,1.9,0.101,3.6,0.5,5.2c0.4,1.6,1,3,1.8,4.2c0.801,1.2,1.9,2.2,3.2,2.899c1.3,0.7,2.8,1.101,4.601,1.101
			c1.6,0,2.899-0.3,4.199-1c1.2-0.7,2.301-1.601,3.101-2.7c0.899-1.1,1.5-2.4,2-3.9C757.601,128.7,757.801,127.1,757.801,125.4z"/>
		<path fill="#A9CF37" d="M780.5,122.9c0.601-0.1,1.4-0.2,2.301-0.3c0.899-0.2,1.6-0.4,2.199-0.6c0.601-0.3,0.9-0.7,1.101-1.3
			c0.2-0.6,0.2-1.2,0.2-1.7c0-1.7-0.601-3.2-1.7-4.3c-1.101-1.1-3-1.7-5.7-1.7c-1.2,0-2.3,0.1-3.2,0.3c-1,0.2-1.8,0.6-2.6,1.1
			c-0.7,0.5-1.3,1.2-1.8,2c-0.5,0.8-0.801,1.9-0.9,3.2h-3.5c0.1-1.7,0.5-3.2,1.2-4.5c0.7-1.2,1.6-2.2,2.6-3
			c1.101-0.8,2.3-1.3,3.8-1.7c1.4-0.4,2.9-0.5,4.5-0.5c1.5,0,2.9,0.2,4.2,0.5c1.3,0.3,2.4,0.8,3.4,1.5c1,0.7,1.7,1.6,2.3,2.8
			c0.6,1.2,0.8,2.6,0.8,4.3v16c0,1.3,0.2,2.2,0.7,2.5c0.5,0.4,1.4,0.3,2.9-0.3v2.7c-0.301,0.1-0.7,0.199-1.2,0.3
			c-0.5,0.2-1,0.2-1.5,0.2s-1-0.101-1.5-0.2c-0.601-0.101-1-0.3-1.4-0.5c-0.399-0.2-0.6-0.601-0.8-1c-0.2-0.4-0.4-0.8-0.4-1.3
			c-0.1-0.5-0.1-1-0.1-1.5c-1.4,1.6-3.1,2.8-4.9,3.6c-1.899,0.8-3.899,1.3-6,1.3c-1.3,0-2.5-0.2-3.699-0.5
			c-1.2-0.3-2.2-0.899-3.2-1.6c-0.9-0.7-1.601-1.601-2.2-2.601c-0.5-1-0.8-2.3-0.8-3.699c0-5,3.399-8,10.3-8.9L780.5,122.9z
			 M786.2,124.6c-1.399,0.6-2.899,1-4.399,1.2c-1.5,0.2-3,0.3-4.4,0.5c-2.6,0.2-4.7,0.8-6.1,1.8c-1.5,1-2.2,2.5-2.2,4.5
			c0,0.9,0.2,1.7,0.5,2.4c0.399,0.7,0.8,1.2,1.399,1.7c0.601,0.399,1.301,0.8,2,1c0.801,0.2,1.601,0.3,2.4,0.3c1.4,0,2.7-0.2,4-0.5
			s2.4-0.9,3.4-1.6c1-0.7,1.8-1.601,2.399-2.7c0.601-1.101,0.9-2.4,0.9-3.8v-4.8H786.2z"/>
		<path fill="#A9CF37" d="M798.7,140h-3.399v-29.5h3.399v4.4h0.101c0.899-1.7,2.1-3,3.8-3.9c1.6-0.9,3.399-1.3,5.3-1.3
			c1.4,0,2.5,0.2,3.5,0.5c0.9,0.3,1.8,0.7,2.4,1.2c0.699,0.5,1.199,1.1,1.6,1.8c0.4,0.7,0.8,1.4,1.1,2.2c1-1.9,2.301-3.4,4-4.3
			c1.7-0.9,3.5-1.4,5.7-1.4c2,0,3.601,0.3,4.8,1c1.2,0.7,2.101,1.5,2.801,2.6c0.6,1.1,1.1,2.3,1.3,3.7s0.3,2.8,0.3,4.3V140H832
			v-20.4c0-2.1-0.399-3.8-1.3-5c-0.899-1.2-2.6-1.8-5-1.8c-1.3,0-2.5,0.3-3.6,0.8c-1.2,0.6-2.2,1.4-3,2.5c-0.4,0.5-0.7,1.1-0.9,1.7
			c-0.2,0.7-0.399,1.4-0.6,2.1c-0.2,0.7-0.3,1.4-0.3,2.2c-0.101,0.7-0.101,1.4-0.101,2V140h-3.399v-20.4c0-2.1-0.4-3.8-1.301-5
			c-0.899-1.2-2.6-1.8-5-1.8c-1.3,0-2.5,0.3-3.6,0.8c-1.2,0.6-2.2,1.4-3,2.5c-0.4,0.5-0.7,1.1-0.9,1.7c-0.199,0.7-0.399,1.4-0.6,2.1
			c-0.2,0.7-0.3,1.4-0.3,2.2c-0.101,0.7-0.101,1.4-0.101,2V140H798.7z"/>
		<path fill="#A9CF37" d="M840.601,104.1V99h3.8v5.1H840.601z M840.801,140v-29.5h3.399V140H840.801z"/>
		<path fill="#A9CF37" d="M853.5,140h-3.399v-29.5h3.399v4.1c1.4-1.4,2.801-2.6,4.2-3.5c1.5-0.9,3.2-1.4,5.3-1.4
			c1.801,0,3.5,0.3,5.101,0.9c1.6,0.6,2.899,1.7,3.899,3.3c0.7,1.1,1.101,2.2,1.301,3.3c0.1,1.1,0.199,2.3,0.199,3.5V140H870v-19.2
			c0-2.7-0.6-4.6-1.8-6c-1.2-1.3-3.1-2-5.899-2c-1.101,0-2,0.2-2.9,0.5c-0.9,0.3-1.7,0.7-2.4,1.3c-0.699,0.5-1.3,1.1-1.8,1.8
			c-0.5,0.7-0.899,1.4-1.1,2.2c-0.3,0.9-0.601,1.9-0.601,2.7c-0.1,0.9-0.1,1.8-0.1,2.8V140H853.5z"/>
		<path fill="#A9CF37" d="M901.601,110.6H905v26.6c0,2-0.199,3.899-0.6,5.7c-0.4,1.8-1.1,3.399-2.1,4.8c-1,1.399-2.4,2.5-4.2,3.3
			s-4.1,1.2-6.9,1.2c-2.2,0-4-0.3-5.6-0.8c-1.6-0.601-2.8-1.2-3.8-2.101c-1-0.8-1.7-1.8-2.2-2.8s-0.8-1.9-0.8-2.8h3.6
			c0.3,1.1,0.7,2,1.3,2.7c0.601,0.699,1.2,1.3,2,1.6c0.8,0.4,1.601,0.7,2.601,0.8c1,0.101,1.899,0.2,3,0.2c2.3,0,4.199-0.4,5.6-1.2
			s2.5-1.8,3.2-3.1s1.2-2.8,1.399-4.4c0.2-1.6,0.301-3.3,0.301-5c-1.101,1.8-2.601,3.2-4.5,4.101c-1.9,0.899-3.9,1.399-6,1.399
			c-2.2,0-4.2-0.399-5.801-1.3c-1.6-0.9-3-2-4.1-3.4c-1.1-1.399-1.9-3.1-2.4-5s-0.8-3.9-0.8-5.9c0-2.2,0.2-4.2,0.7-6.1
			s1.3-3.5,2.4-4.9c1.1-1.4,2.5-2.5,4.1-3.3c1.7-0.8,3.7-1.2,6.1-1.2c0.9,0,1.9,0.1,2.9,0.4s1.9,0.6,2.9,1.1
			c0.899,0.5,1.8,1.1,2.6,1.9s1.4,1.6,1.9,2.6h0.1v-5.1H901.601z M901.601,125.4c0-1.8-0.2-3.4-0.7-5c-0.4-1.5-1.1-2.9-1.9-4
			c-0.8-1.1-1.899-2-3.1-2.6c-1.3-0.6-2.7-1-4.3-1c-1.4,0-2.8,0.3-4,0.8s-2.3,1.3-3.2,2.2c-0.9,1-1.6,2.2-2.1,3.6
			s-0.801,3.1-0.801,4.9c-0.1,1.9,0.101,3.6,0.5,5.2c0.4,1.6,1,3,1.801,4.2c0.8,1.2,1.899,2.2,3.199,2.899
			c1.301,0.7,2.801,1.101,4.601,1.101c1.6,0,2.899-0.3,4.2-1c1.199-0.7,2.3-1.601,3.1-2.7c0.9-1.1,1.5-2.4,2-3.9
			C901.401,128.7,901.601,127.1,901.601,125.4z"/>
		<path fill="#72B5E3" d="M738.401,194.599H735v-29.5h3.4v4.101c1.4-1.4,2.8-2.601,4.2-3.5c1.5-0.9,3.2-1.4,5.3-1.4
			c1.8,0,3.5,0.3,5.1,0.9c1.601,0.6,2.9,1.7,3.9,3.3c0.7,1.1,1.1,2.2,1.3,3.3c0.101,1.101,0.2,2.3,0.2,3.5v19.3H755V175.4
			c0-2.7-0.6-4.601-1.8-6c-1.2-1.301-3.1-2-5.899-2c-1.101,0-2,0.199-2.9,0.5c-0.9,0.3-1.7,0.8-2.4,1.3c-0.699,0.5-1.3,1.1-1.8,1.8
			s-0.899,1.4-1.1,2.2c-0.3,0.899-0.601,1.899-0.601,2.7c-0.1,0.899-0.1,1.8-0.1,2.8V194.599z"/>
		<path fill="#72B5E3" d="M765.901,180.7c0,1.6,0.2,3.1,0.6,4.5c0.4,1.399,1,2.7,1.801,3.7c0.8,1,1.8,1.899,3.1,2.5
			c1.3,0.6,2.7,0.899,4.3,0.899c2.2,0,4.2-0.6,5.7-1.8c1.6-1.2,2.7-2.8,3.2-5h3.8c-0.4,1.4-1,2.7-1.6,3.9
			c-0.7,1.199-1.5,2.199-2.601,3.1c-1,0.9-2.2,1.6-3.6,2.1c-1.4,0.5-3,0.7-4.9,0.7c-2.399,0-4.399-0.399-6.1-1.2
			c-1.7-0.8-3.1-1.899-4.2-3.3c-1.1-1.399-1.9-3-2.4-4.899c-0.5-1.9-0.8-3.9-0.8-6.101s0.3-4.2,0.9-6.1c0.6-1.9,1.5-3.601,2.7-5
			c1.2-1.4,2.6-2.5,4.2-3.4c1.699-0.8,3.6-1.2,5.699-1.2c4.101,0,7.2,1.4,9.601,4.2c2.3,2.8,3.5,6.8,3.399,12.101h-22.8V180.7z
			 M785.2,177.8c0-1.399-0.2-2.8-0.6-4.1c-0.4-1.3-1-2.4-1.8-3.3c-0.8-0.9-1.8-1.7-2.9-2.2c-1.1-0.5-2.5-0.8-4-0.8s-2.9,0.3-4,0.899
			c-1.2,0.601-2.1,1.3-3,2.3c-0.8,0.9-1.5,2-2,3.301c-0.5,1.3-0.8,2.6-1,4h19.3V177.8z"/>
		<path fill="#72B5E3" d="M803,194.7c-0.399,0.1-1,0.2-1.6,0.399c-0.7,0.2-1.4,0.301-2.3,0.301c-1.7,0-3-0.4-3.9-1.301
			c-0.899-0.899-1.3-2.399-1.3-4.6V168h-4.2v-2.8h4.2V157h3.4v8.2h5.5v2.8h-5.5v20.2c0,0.7,0,1.3,0.1,1.899c0,0.5,0.2,1,0.3,1.301
			c0.2,0.3,0.5,0.6,0.9,0.699c0.4,0.101,1,0.2,1.7,0.2c0.5,0,0.899,0,1.399-0.1c0.5-0.101,0.9-0.2,1.4-0.3v2.8H803z"/>
		<path fill="#72B5E3" d="M830.5,190.099l7.7-24.899h3.5l-9.6,29.5h-3.6l-6.4-24.8H822l-6.5,24.8h-4.1l-9-29.5h3.4l7.6,25.1
			l6.8-25.1h3.8L830.5,190.099z"/>
		<path fill="#72B5E3" d="M855.5,195.4c-1.899,0-3.699-0.4-5.3-1c-1.6-0.601-3.1-1.601-4.3-2.9s-2.2-2.9-2.9-4.8
			c-0.699-1.9-1.1-4.2-1.1-6.8c0-2.2,0.3-4.2,0.9-6.101c0.6-1.899,1.399-3.5,2.6-4.899c1.1-1.4,2.6-2.5,4.3-3.301
			c1.7-0.8,3.7-1.199,6-1.199s4.3,0.399,6,1.199c1.7,0.801,3.101,1.9,4.3,3.301c1.101,1.399,2,3,2.5,4.899
			c0.601,1.9,0.801,3.9,0.801,6.101c0,2.399-0.301,4.5-1,6.399c-0.601,1.9-1.601,3.5-2.801,4.9c-1.199,1.399-2.6,2.399-4.3,3.2
			C859.5,195,857.601,195.4,855.5,195.4z M865.5,179.9c0-1.7-0.199-3.4-0.6-4.9s-1-2.8-1.8-4c-0.8-1.1-1.8-2-3.1-2.6
			c-1.301-0.601-2.801-1-4.601-1s-3.3,0.399-4.6,1.1s-2.3,1.6-3.101,2.8c-0.8,1.2-1.399,2.5-1.8,4c-0.399,1.5-0.6,3-0.6,4.601
			c0,1.8,0.2,3.5,0.7,5c0.399,1.5,1.1,2.899,1.899,4c0.801,1.1,1.9,2,3.101,2.6s2.7,0.9,4.3,0.9c1.8,0,3.3-0.4,4.6-1.101
			s2.3-1.6,3.101-2.8c0.8-1.2,1.399-2.5,1.8-4C865.401,183,865.5,181.5,865.5,179.9z"/>
		<path fill="#72B5E3" d="M876.2,194.599h-3.399v-29.5h3.399v5.5h0.101c0.899-2.399,2.199-4,3.699-4.899c1.5-0.9,3.5-1.4,5.9-1.4
			v3.7c-1.9,0-3.5,0.3-4.8,0.9c-1.3,0.6-2.2,1.5-3,2.6c-0.7,1.1-1.3,2.4-1.5,3.9c-0.3,1.5-0.4,3.1-0.4,4.699V194.599z"/>
		<path fill="#72B5E3" d="M888.5,194.599v-41h3.4v25.5l14.5-14h4.7l-11,10.601l12.3,18.8h-3.8l-11-16.4l-5.6,5.301v11.199H888.5z"/>
	</g>
	<g>
		<g>
			<g>
				<g>
					<path fill="#72B5E3" d="M682.7,55.9c7.601,0,13.2,1.5,16.8,4.5c3.4,2.9,5,7.3,5,13.4v62.4c0,12.8-6.699,18.5-21.8,18.5h-58.5
						V73.9c0-12.4,6.5-17.9,21.2-17.9h37.3 M682.7,51.9h-37.3c-16.8,0-25.2,7.3-25.2,21.9v84.8h62.5c17.2,0,25.8-7.5,25.8-22.5V73.7
						C708.5,59.2,699.901,51.9,682.7,51.9L682.7,51.9z"/>
				</g>
			</g>
			<g>
				<path fill="#72B5E3" d="M695.7,124.9c0,4.5-3.7,8.2-8.2,8.2h-46.199c-4.5,0-8.2-3.7-8.2-8.2V85.8c0-4.5,3.7-8.2,8.2-8.2H687.5
					c4.5,0,8.2,3.7,8.2,8.2V124.9z"/>
			</g>
			<path fill="#72B5E3" d="M621.2,156.7l1-82.8c0-7.1,0-10.5,4-14.1c-1.2-2.2-2.399-6.2-3.8-8.2c-3.9-5.6-8.5-10.4-13.6-14.3
				c-5.101-3.9-10.5-7.2-16.101-9.8c-5.6-2.6-11.3-4.4-17-5.6c-5.699-1.2-11.199-1.7-16.3-1.7h-92.399h-20.601v20.3V88
				c15.8,0.6,21.8,5.8,21.8,19.9v62.4c0,10.4-4.1,17.2-12.399,20.3h31.6V61.1h71.7c4.9,0,9.5,0.8,13.8,2.4s8,4,11.101,7
				c3.199,3.1,5.6,6.7,7.5,11c1.8,4.3,2.8,9.1,2.8,14.4v94.6h41v-33.8H621.2z"/>
		</g>
		<g>
			<g>
				<g>
					<path fill="#A9CF37" d="M444.401,89.9c7.6,0,13.2,1.5,16.8,4.5c3.4,2.9,5,7.3,5,13.4v62.4c0,12.8-6.7,18.5-21.8,18.5h-58.5
						v-80.8c0-12.4,6.5-17.9,21.2-17.9h37.3 M444.401,85.9h-37.3c-16.8,0-25.2,7.3-25.2,21.9v84.8h62.5c17.2,0,25.8-7.5,25.8-22.5
						V107.7C470.2,93.2,461.601,85.9,444.401,85.9L444.401,85.9z"/>
				</g>
			</g>
			<g>
				<g>
					<path fill="#A9CF37" d="M396.2,132.099h20.9v-21h17.6v21h21V149.7h-21v20.899h-17.6V149.7h-20.9V132.099z"/>
				</g>
			</g>
			<path fill="#A9CF37" d="M383.901,191.599v-83.8c0-14.6,6.4-19.9,23.2-19.9h1.7V77.5c0-7-0.9-13.3-2.7-18.9s-4.2-10.5-7.101-14.7
				c-2.899-4.3-6.399-7.9-10.199-10.9c-3.9-3-8-5.4-12.2-7.3c-4.301-1.9-8.601-3.3-12.9-4.2c-4.4-0.9-8.5-1.3-12.4-1.3h-73.899
				c-7,0-13.3,0.9-18.9,2.7c-3.7,1.2-8.1,3.7-11.2,5.3l-1,54.7c0,15-6.6,20.5-23.8,20.5H220V115c0,7,0.9,13.4,2.7,19
				c1.8,5.6,4.1,10.6,7.1,14.8c2.9,4.3,6.4,7.9,10.2,10.9c3.9,3,8,5.399,12.2,7.3c4.3,1.9,8.5,3.3,12.8,4.2
				c4.3,0.899,8.4,1.3,12.3,1.3h73.9v-41h-73.6c-5.5,0-9.601-1.4-12.5-4.3c-2.801-2.8-4.301-6.9-4.301-12.3V77.4
				c0-4.7,1.5-8.6,4.4-11.7c2.9-3.1,6.9-4.6,12-4.6h73.9c5.6,0,9.699,1.4,12.5,4.2c2.699,2.8,4.1,6.9,4.1,12.2v129.4
				c0,5.399-1.4,9.5-4.1,12.3c-2.7,2.8-6.9,4.3-12.5,4.3h-73.9v41h73.9c3.899,0,8-0.5,12.399-1.3c4.4-0.9,8.7-2.3,12.9-4.2
				c4.3-1.9,8.3-4.3,12.2-7.3c3.899-3,7.3-6.601,10.2-10.9c2.899-4.3,5.3-9.2,7.1-14.8s2.7-12,2.7-19v-15.3h-24.7V191.599z"/>
		</g>
		<g>
			<g>
				<g>
					<path fill="#DD4A1F" d="M222.601,2.6c7.6,0,13.199,1.5,16.8,4.5c3.399,2.9,5,7.3,5,13.4v62.4c0,12.8-6.7,18.5-21.8,18.5h-58.5
						V20.6c0-12.4,6.6-17.9,21.199-17.9h37.301 M222.601-1.4H185.3c-16.8,0-25.199,7.3-25.199,21.9v84.8h62.5
						c17.199,0,25.8-7.5,25.8-22.5V20.4C248.3,5.9,239.7-1.4,222.601-1.4L222.601-1.4z"/>
				</g>
			</g>
			<g>
				<path fill="#DD4A1F" d="M233.7,51.9c0,16.1-13,29.1-29.1,29.1C188.5,81,175.5,68,175.5,51.9s13-29.1,29.101-29.1
					C220.601,22.8,233.7,35.9,233.7,51.9z"/>
			</g>
			<path fill="#DD4A1F" d="M162.101,103.3V27c-3.101-1.7-8.4-3.1-12-4.2c-5.601-1.8-11.9-2.7-18.9-2.7h-74c-3.8,0-7.9,0.4-12.2,1.3
				c-4.399,0.9-8.7,2.3-12.899,4.2c-4.301,1.9-8.301,4.3-12.2,7.3c-3.9,3-7.3,6.6-10.3,10.9c-3,4.3-5.4,9.2-7.2,14.7
				c-1.8,5.6-2.7,11.9-2.7,18.9v166.3h41V77.5c0-5.4,1.4-9.4,4.3-12.2c2.8-2.8,7-4.2,12.601-4.2h73.6c5.4,0,9.4,1.4,12.2,4.1
				c2.8,2.7,4.2,6.9,4.2,12.6V133c0,5.4-1.4,9.5-4.101,12.3s-6.8,4.3-12.3,4.3h-74v41h73.9c3.899,0,8-0.399,12.3-1.3
				c4.3-0.899,8.6-2.3,12.8-4.2c4.3-1.899,8.3-4.3,12.2-7.3c3.899-3,7.3-6.6,10.2-10.899c2.899-4.301,5.3-9.2,7.1-14.801
				c1.8-5.6,2.7-12,2.7-19v-29.7h-26.3V103.3z"/>
		</g>
	</g>
</g>
</svg>
