<?xml version="1.0" encoding="utf-8"?>
<!-- Generator: Adobe Illustrator 16.0.4, SVG Export Plug-In . SVG Version: 6.00 Build 0)  -->
<!DOCTYPE svg PUBLIC "-//W3C//DTD SVG 1.1//EN" "http://www.w3.org/Graphics/SVG/1.1/DTD/svg11.dtd">
<svg version="1.1" id="Layer_1" xmlns="http://www.w3.org/2000/svg" xmlns:xlink="http://www.w3.org/1999/xlink" x="0px" y="0px"
	 width="100px" height="45px" viewBox="0 0 100 45" style="enable-background:new 0 0 100 45;" xml:space="preserve">
<g>
	<path style="fill:#FFFFFF;" d="M35.2,21.4c0,0.8-0.1,1.5-0.3,2.2c-0.2,0.6-0.5,1.2-0.8,1.7c-0.3,0.5-0.7,0.9-1.2,1.3
		c-0.4,0.3-0.9,0.6-1.4,0.8c-0.5,0.2-1,0.4-1.5,0.5c-0.5,0.1-1,0.2-1.4,0.2h-8.5v-4.7h8.5c0.6,0,1.1-0.2,1.4-0.5
		c0.3-0.3,0.5-0.8,0.5-1.4v-6.3c0-0.7-0.2-1.1-0.5-1.5c-0.3-0.3-0.8-0.5-1.4-0.5h-8.5c-0.6,0-1.1,0.2-1.5,0.5
		c-0.3,0.3-0.5,0.8-0.5,1.4v19.1h-4.7V15c0-0.8,0.1-1.5,0.3-2.2c0.2-0.6,0.5-1.2,0.8-1.7c0.3-0.5,0.7-0.9,1.2-1.3
		c0.4-0.3,0.9-0.6,1.4-0.8c0.5-0.2,1-0.4,1.5-0.5s1-0.2,1.4-0.2h8.5c0.8,0,1.5,0.1,2.2,0.3c0.6,0.2,1.2,0.5,1.7,0.8
		c0.5,0.3,0.9,0.7,1.3,1.2c0.3,0.4,0.6,0.9,0.8,1.4c0.2,0.5,0.4,1,0.5,1.5c0.1,0.5,0.2,1,0.2,1.4V21.4z"/>
	<path style="fill:#FFFFFF;" d="M60.5,29.9c0,0.8-0.1,1.5-0.3,2.2c-0.2,0.6-0.5,1.2-0.8,1.7c-0.3,0.5-0.7,0.9-1.2,1.3
		c-0.4,0.3-0.9,0.6-1.4,0.8c-0.5,0.2-1,0.4-1.5,0.5c-0.5,0.1-1,0.2-1.4,0.2h-8.5v-4.7h8.5c0.6,0,1.1-0.2,1.4-0.5
		c0.3-0.3,0.5-0.8,0.5-1.4V15c0-0.6-0.2-1.1-0.5-1.4c-0.3-0.3-0.8-0.5-1.4-0.5h-8.5c-0.6,0-1,0.2-1.4,0.5c-0.3,0.4-0.5,0.8-0.5,1.4
		v4.3c0,0.6,0.2,1.1,0.5,1.4c0.3,0.3,0.8,0.5,1.4,0.5h8.5V26h-8.5c-0.4,0-0.9-0.1-1.4-0.2c-0.5-0.1-1-0.3-1.5-0.5
		c-0.5-0.2-1-0.5-1.4-0.8c-0.4-0.3-0.8-0.8-1.2-1.3c-0.3-0.5-0.6-1.1-0.8-1.7c-0.2-0.6-0.3-1.4-0.3-2.2V15c0-0.4,0.1-0.9,0.2-1.4
		c0.1-0.5,0.3-1,0.5-1.5c0.2-0.5,0.5-1,0.8-1.4c0.3-0.4,0.8-0.8,1.3-1.2C42,9.2,42.6,9,43.2,8.8c0.6-0.2,1.4-0.3,2.2-0.3h8.5
		c0.4,0,0.9,0.1,1.4,0.2c0.5,0.1,1,0.3,1.5,0.5c0.5,0.2,1,0.5,1.4,0.8c0.4,0.3,0.8,0.8,1.2,1.3c0.3,0.5,0.6,1.1,0.8,1.7
		c0.2,0.6,0.3,1.4,0.3,2.2V29.9z"/>
	<path style="fill:#FFFFFF;" d="M64.8,8.4h2.4h10.6c0.6,0,1.2,0.1,1.9,0.2c0.7,0.1,1.3,0.3,2,0.6c0.6,0.3,1.3,0.7,1.8,1.1
		c0.6,0.5,1.1,1,1.6,1.7c0.5,0.6,0.8,1.4,1.1,2.2c0.3,0.8,0.4,1.8,0.4,2.9v10.9h-4.7V17.2c0-0.6-0.1-1.2-0.3-1.7s-0.5-0.9-0.9-1.3
		c-0.4-0.4-0.8-0.6-1.3-0.8c-0.5-0.2-1-0.3-1.6-0.3h-8.3v14.9h-4.7V10.8V8.4z"/>
</g>
</svg>
