<?xml version="1.0" encoding="utf-8"?>
<!-- Generator: Adobe Illustrator 16.0.4, SVG Export Plug-In . SVG Version: 6.00 Build 0)  -->
<!DOCTYPE svg PUBLIC "-//W3C//DTD SVG 1.1//EN" "http://www.w3.org/Graphics/SVG/1.1/DTD/svg11.dtd">
<svg version="1.1" xmlns="http://www.w3.org/2000/svg" xmlns:xlink="http://www.w3.org/1999/xlink" x="0px" y="0px" width="100px"
	 height="45px" viewBox="0 0 100 45" enable-background="new 0 0 100 45" xml:space="preserve">
<g id="Layer_2">
	<g>
		<path fill="#231F20" d="M35.2,22.401c0,0.8-0.1,1.5-0.3,2.2c-0.2,0.601-0.5,1.2-0.8,1.7c-0.3,0.5-0.7,0.9-1.2,1.3
			c-0.4,0.301-0.9,0.601-1.4,0.801c-0.5,0.199-1,0.399-1.5,0.5c-0.5,0.1-1,0.199-1.4,0.199h-8.5v-4.699h8.5c0.6,0,1.1-0.2,1.4-0.501
			c0.3-0.3,0.5-0.8,0.5-1.399v-6.3c0-0.7-0.2-1.1-0.5-1.5c-0.3-0.3-0.8-0.5-1.4-0.5h-8.5c-0.6,0-1.1,0.2-1.5,0.5
			c-0.3,0.3-0.5,0.8-0.5,1.4v19.1h-4.7v-19.2c0-0.8,0.1-1.5,0.3-2.2c0.2-0.6,0.5-1.2,0.8-1.7s0.7-0.9,1.2-1.3
			c0.4-0.3,0.9-0.6,1.4-0.8s1-0.4,1.5-0.5s1-0.2,1.4-0.2h8.5c0.8,0,1.5,0.1,2.2,0.3c0.6,0.2,1.2,0.5,1.7,0.8
			c0.5,0.3,0.9,0.7,1.3,1.2c0.3,0.4,0.6,0.9,0.8,1.4s0.4,1,0.5,1.5s0.2,1,0.2,1.4V22.401z"/>
		<path fill="#231F20" d="M60.5,30.901c0,0.8-0.1,1.5-0.3,2.199c-0.2,0.601-0.5,1.2-0.8,1.7c-0.301,0.5-0.7,0.9-1.2,1.3
			c-0.4,0.301-0.9,0.601-1.4,0.801c-0.5,0.199-1,0.399-1.5,0.5c-0.5,0.1-1,0.199-1.399,0.199h-8.5v-4.699h8.5
			c0.6,0,1.1-0.2,1.399-0.5c0.3-0.301,0.5-0.801,0.5-1.4v-15c0-0.6-0.2-1.1-0.5-1.4c-0.3-0.3-0.8-0.5-1.399-0.5h-8.5
			c-0.6,0-1,0.2-1.4,0.5c-0.3,0.4-0.5,0.8-0.5,1.4v4.3c0,0.6,0.2,1.1,0.5,1.4c0.3,0.3,0.8,0.5,1.4,0.5h8.5v4.8h-8.5
			c-0.4,0-0.9-0.1-1.4-0.2c-0.5-0.1-1-0.3-1.5-0.5s-1-0.5-1.4-0.8s-0.8-0.8-1.2-1.3c-0.3-0.5-0.6-1.101-0.8-1.7
			c-0.2-0.6-0.3-1.4-0.3-2.2v-4.3c0-0.4,0.1-0.9,0.2-1.4s0.3-1,0.5-1.5s0.5-1,0.8-1.4c0.3-0.4,0.8-0.8,1.3-1.2
			c0.4-0.3,1-0.5,1.6-0.7c0.6-0.2,1.4-0.3,2.2-0.3h8.5c0.399,0,0.899,0.1,1.399,0.2c0.5,0.1,1,0.3,1.5,0.5c0.5,0.2,1,0.5,1.4,0.8
			c0.399,0.3,0.8,0.8,1.2,1.3c0.3,0.5,0.6,1.1,0.8,1.7s0.3,1.4,0.3,2.2V30.901z"/>
		<path fill="#231F20" d="M64.8,9.401h2.4h10.6c0.601,0,1.2,0.1,1.9,0.2s1.3,0.3,2,0.6c0.6,0.3,1.3,0.7,1.8,1.1
			c0.6,0.5,1.1,1,1.6,1.7c0.5,0.6,0.801,1.4,1.101,2.2c0.3,0.8,0.399,1.8,0.399,2.9v10.9H81.9v-10.8c0-0.6-0.101-1.2-0.301-1.7
			c-0.199-0.5-0.5-0.9-0.899-1.3c-0.4-0.4-0.8-0.6-1.3-0.8c-0.5-0.2-1-0.3-1.601-0.3h-8.3v14.9h-4.7v-17.2V9.401z"/>
	</g>
</g>
<g id="Layer_1">
	<g>
		<path fill="#FFFFFF" d="M35.2,21.4c0,0.8-0.1,1.5-0.3,2.2c-0.2,0.601-0.5,1.2-0.8,1.7c-0.3,0.5-0.7,0.9-1.2,1.3
			C32.5,26.9,32,27.2,31.5,27.4C31,27.6,30.5,27.8,30,27.9C29.5,28,29,28.1,28.6,28.1h-8.5V23.4h8.5c0.6,0,1.1-0.2,1.4-0.5
			c0.3-0.3,0.5-0.8,0.5-1.4v-6.3c0-0.7-0.2-1.1-0.5-1.5c-0.3-0.3-0.8-0.5-1.4-0.5h-8.5c-0.6,0-1.1,0.2-1.5,0.5
			c-0.3,0.3-0.5,0.8-0.5,1.4v19.1h-4.7V15c0-0.8,0.1-1.5,0.3-2.2c0.2-0.6,0.5-1.2,0.8-1.7s0.7-0.9,1.2-1.3c0.4-0.3,0.9-0.6,1.4-0.8
			s1-0.4,1.5-0.5s1-0.2,1.4-0.2h8.5c0.8,0,1.5,0.1,2.2,0.3c0.6,0.2,1.2,0.5,1.7,0.8c0.5,0.3,0.9,0.7,1.3,1.2
			c0.3,0.4,0.6,0.9,0.8,1.4s0.4,1,0.5,1.5s0.2,1,0.2,1.4V21.4z"/>
		<path fill="#FFFFFF" d="M60.5,29.9c0,0.8-0.1,1.5-0.3,2.199c-0.2,0.601-0.5,1.2-0.8,1.7c-0.301,0.5-0.7,0.9-1.2,1.3
			C57.8,35.4,57.3,35.7,56.8,35.9c-0.5,0.199-1,0.399-1.5,0.5c-0.5,0.1-1,0.199-1.399,0.199h-8.5V31.9h8.5c0.6,0,1.1-0.2,1.399-0.5
			c0.3-0.301,0.5-0.801,0.5-1.4V15c0-0.6-0.2-1.1-0.5-1.4c-0.3-0.3-0.8-0.5-1.399-0.5h-8.5c-0.6,0-1,0.2-1.4,0.5
			c-0.3,0.4-0.5,0.8-0.5,1.4v4.3c0,0.6,0.2,1.1,0.5,1.4c0.3,0.3,0.8,0.5,1.4,0.5h8.5V26h-8.5c-0.4,0-0.9-0.1-1.4-0.2
			c-0.5-0.1-1-0.3-1.5-0.5s-1-0.5-1.4-0.8s-0.8-0.8-1.2-1.3c-0.3-0.5-0.6-1.1-0.8-1.7c-0.2-0.6-0.3-1.4-0.3-2.2V15
			c0-0.4,0.1-0.9,0.2-1.4s0.3-1,0.5-1.5s0.5-1,0.8-1.4c0.3-0.4,0.8-0.8,1.3-1.2c0.4-0.3,1-0.5,1.6-0.7c0.6-0.2,1.4-0.3,2.2-0.3h8.5
			C54.3,8.5,54.8,8.6,55.3,8.7c0.5,0.1,1,0.3,1.5,0.5c0.5,0.2,1,0.5,1.4,0.8c0.399,0.3,0.8,0.8,1.2,1.3c0.3,0.5,0.6,1.1,0.8,1.7
			s0.3,1.4,0.3,2.2V29.9z"/>
		<path fill="#FFFFFF" d="M64.8,8.4h2.4h10.6c0.601,0,1.2,0.1,1.9,0.2s1.3,0.3,2,0.6c0.6,0.3,1.3,0.7,1.8,1.1c0.6,0.5,1.1,1,1.6,1.7
			c0.5,0.6,0.801,1.4,1.101,2.2C86.5,15,86.6,16,86.6,17.1V28H81.9V17.2c0-0.6-0.101-1.2-0.301-1.7C81.4,15,81.1,14.6,80.7,14.2
			c-0.4-0.4-0.8-0.6-1.3-0.8c-0.5-0.2-1-0.3-1.601-0.3h-8.3V28h-4.7V10.8V8.4z"/>
	</g>
</g>
</svg>
