<?xml version="1.0" encoding="utf-8"?>
<!-- Generator: Adobe Illustrator 16.0.4, SVG Export Plug-In . SVG Version: 6.00 Build 0)  -->
<!DOCTYPE svg PUBLIC "-//W3C//DTD SVG 1.1//EN" "http://www.w3.org/Graphics/SVG/1.1/DTD/svg11.dtd">
<svg version="1.1" id="Layer_2" xmlns="http://www.w3.org/2000/svg" xmlns:xlink="http://www.w3.org/1999/xlink" x="0px" y="0px"
	 width="612px" height="792px" viewBox="0 0 612 792" style="enable-background:new 0 0 612 792;" xml:space="preserve">
<rect x="65.7" y="149" style="display:none;fill:#DD4A1F;" width="505" height="578"/>
<g>
	<g id="Crown_1_">
		<path style="fill:#FFFFFF;" d="M315.5,477.2c48.5-39.1,91.8-24.7,91.8-24.7c24.7,9.4,21.3,24.7,21.3,62.1
			c0,37.4-51.9,100.3-51.9,100.3c53.6,41.7,23,131.8,23,131.8l10.2,2.5l83-129.5c-11.9-34.6-20.4-109.9-6.8-132.6
			c13.6-22.7,6.2-61.2,5.1-77.6c-1.1-16.4,7.9-54.4,7.9-54.4c-4.5,10.2-19.8,15.3-19.8,15.3c11.3-175.1-33.4-224.4-33.4-224.4
			c9.6,48.7-7.9,178-7.9,178c-4.5-0.6-13.6-49.9-13.6-49.9c-7.4,8.5-8.5,58.4-8.5,58.4l-11.9-1.1c-23.2-19.3-27.2-99.2-27.2-99.2
			c-11.9,18.1-15.4,94.7-15.4,94.7L343,304.6v-71.4c0-87.3,32.6-127.9,32.6-127.9l-58.2-63.3l-64.7,63.3c0,0,30.3,40.7,30.3,127.9
			v71.4l-15.8,22.1c0,0-1.9-76.5-13.8-94.7c0,0-3.5,79.9-26.8,99.2l-11.7,1.1c0,0-1-49.9-8.4-58.4c0,0-9,49.3-13.5,49.9
			c0,0-17.5-129.2-7.9-178c0,0-44.8,49.3-33.4,224.4c0,0-15.3-5.1-19.8-15.3c0,0,9.1,38,7.9,54.4c-1.1,16.4-8.5,55,5.1,77.6
			c13.6,22.7,5.1,98.1-6.8,132.6l83,129.5l10.2-2.5c0,0-30.6-90.1,23-131.8c0,0-51.9-62.9-51.9-100.3c0-37.4-3.4-52.7,21.3-62.1
			C223.6,452.5,267,438,315.5,477.2z"/>
	</g>
	<g id="PGN_1_">
		<path style="fill:#DD4A1F;" d="M289.7,393.7c0,1.4-0.2,2.7-0.5,3.8c-0.4,1.1-0.8,2.1-1.4,3c-0.6,0.9-1.3,1.6-2,2.2
			c-0.8,0.6-1.6,1.1-2.4,1.5c-0.8,0.4-1.7,0.7-2.6,0.8c-0.9,0.2-1.7,0.3-2.5,0.3h-14.8V397h14.8c1.1,0,1.9-0.3,2.5-0.9
			c0.5-0.6,0.8-1.4,0.8-2.5v-11c0-1.1-0.3-2-0.8-2.5c-0.6-0.5-1.4-0.8-2.4-0.8h-14.7c-1.1,0-1.9,0.3-2.5,0.8
			c-0.6,0.6-0.9,1.4-0.9,2.4v33.2H252v-33.2c0-1.4,0.2-2.7,0.5-3.8c0.4-1.1,0.8-2.1,1.4-2.9c0.6-0.9,1.3-1.6,2.1-2.2
			c0.8-0.6,1.6-1.1,2.4-1.5c0.9-0.4,1.7-0.7,2.6-0.8c0.9-0.2,1.7-0.3,2.4-0.3h14.8c1.4,0,2.7,0.2,3.8,0.5c1.1,0.4,2.1,0.8,2.9,1.4
			c0.8,0.6,1.6,1.3,2.2,2c0.6,0.8,1.1,1.6,1.5,2.4c0.4,0.9,0.7,1.7,0.8,2.6c0.2,0.9,0.3,1.7,0.3,2.5V393.7z"/>
		<path style="fill:#DD4A1F;" d="M333.7,408.4c0,1.4-0.2,2.7-0.5,3.8c-0.4,1.1-0.8,2.1-1.4,3c-0.6,0.8-1.3,1.6-2,2.2
			c-0.8,0.6-1.6,1.1-2.4,1.5c-0.8,0.4-1.7,0.7-2.6,0.8c-0.9,0.2-1.7,0.3-2.5,0.3h-14.8v-8.2h14.8c1.1,0,1.9-0.3,2.5-0.9
			c0.5-0.6,0.8-1.4,0.8-2.5v-25.8c0-1.1-0.3-1.9-0.8-2.4c-0.5-0.6-1.4-0.8-2.5-0.8h-14.8c-1,0-1.8,0.3-2.4,0.9
			c-0.6,0.6-0.9,1.4-0.9,2.3v7.5c0,1.1,0.3,1.9,0.8,2.5c0.6,0.6,1.4,0.8,2.5,0.8h14.7v8.2h-14.8c-0.8,0-1.6-0.1-2.5-0.3
			c-0.9-0.2-1.7-0.5-2.6-0.8c-0.9-0.4-1.7-0.9-2.4-1.5c-0.8-0.6-1.5-1.3-2.1-2.2c-0.6-0.9-1.1-1.8-1.4-3c-0.4-1.1-0.5-2.4-0.5-3.8
			v-7.5c0-0.8,0.1-1.6,0.3-2.5c0.2-0.9,0.5-1.7,0.8-2.6c0.4-0.8,0.9-1.7,1.5-2.4c0.6-0.8,1.3-1.5,2.2-2c0.8-0.6,1.8-1.1,2.9-1.4
			c1.1-0.4,2.4-0.5,3.8-0.5h14.8c0.8,0,1.6,0.1,2.5,0.3c0.9,0.2,1.7,0.5,2.6,0.8c0.9,0.4,1.7,0.9,2.4,1.5c0.8,0.6,1.5,1.3,2,2.2
			c0.6,0.8,1.1,1.8,1.4,2.9c0.4,1.1,0.5,2.4,0.5,3.8V408.4z"/>
		<path style="fill:#DD4A1F;" d="M341.1,371.2h4.1h18.4c1,0,2.1,0.1,3.3,0.3c1.1,0.2,2.3,0.6,3.4,1.1c1.1,0.5,2.2,1.2,3.2,1.9
			c1,0.8,1.9,1.7,2.7,2.9c0.8,1.1,1.4,2.4,1.9,3.9c0.5,1.5,0.7,3.1,0.7,5v18.9h-8.2v-18.9c0-1.1-0.2-2-0.5-2.9
			c-0.4-0.8-0.9-1.6-1.5-2.2c-0.6-0.6-1.4-1.1-2.2-1.4c-0.8-0.3-1.8-0.5-2.8-0.5h-14.3v25.8h-8.2v-29.9V371.2z"/>
	</g>
	<g>
		<g>
			<g style="display:none;">
				<path style="display:inline;fill:#FFFFFF;" d="M462.7,651.2c-1.2-6.4-2-14.7-2.8-21.9c-0.2-1.6-0.3-3.3-0.5-4.8
					c-0.2-2-0.4-3.9-0.6-5.9c37.6,4.4,75,10.6,112.1,18.6c-36.6,4.4-72.5,10.6-107.4,18.4C463.2,654.1,462.9,652.6,462.7,651.2z"/>
				<g style="display:inline;">
					<path style="fill:#DB4B26;" d="M543.4,636.6c-25.8,3.7-51.3,8.3-76.2,13.7c-1.4-7.6-2.3-18-3.2-26.2
						c26.6,3.2,53.1,7.4,79.5,12.5 M598.3,639.3c-17.7-4.2-35.4-8.1-53.2-11.5c-26.6-5.1-53.2-9.3-80-12.5
						c-3.9-0.5-7.8-0.9-11.8-1.4c0.5,3.7,0.9,7.5,1.3,11.2c0.2,1.5,0.3,3,0.5,4.5c0.8,7.4,1.7,15.7,2.9,22.3
						c0.6,3.1,1.2,6.2,1.7,9.3c3.1-0.7,6.2-1.4,9.3-2.1c24.8-5.4,50.1-9.9,75.7-13.6C562.5,643.1,580.3,641,598.3,639.3L598.3,639.3
						z"/>
				</g>
			</g>
			<g>
				<path style="fill:#DD4A1F;" d="M485,583.4c3.7-12.5,7.5-25,11.4-37.5c31.5,6.6,62.7,14.5,93.5,23.5c-1.9,11.7-3.9,23.5-5.9,35.2
					c-31.1,2.8-61.6,6.9-91.6,12.1C490.1,605.6,487.6,594.4,485,583.4z"/>
				<path style="fill:#FFFFFF;" d="M500.2,551.6c28.2,6,56.1,13,83.7,21c-1.5,9.1-3,18.3-4.5,27.4c-28.1,2.7-55.8,6.4-83,11
					c-1.9-9.1-4-18.3-6-27.4C493.6,572.9,496.9,562.3,500.2,551.6 M492.5,540.1c-4.4,14.3-8.7,28.7-12.9,43c3.1,13,6,26.1,8.8,39.2
					c32.7-5.8,66.1-10.3,100.1-13.3c2.5-14.3,4.9-28.6,7.4-43C561.9,556,527.4,547.3,492.5,540.1L492.5,540.1z"/>
			</g>
			<g>
				<path style="fill:#DD4A1F;" d="M46.1,608c-2.1-11.7-4.3-23.4-6.4-35.1c30.7-9.4,61.9-17.7,93.3-24.7c4,12.4,8,24.9,11.9,37.3
					c-2.4,11.1-4.8,22.3-7,33.4C107.8,614.1,77.2,610.4,46.1,608z"/>
				<path style="fill:#FFFFFF;" d="M129.2,554c3.5,10.6,6.9,21.2,10.3,31.9c-2,9.2-3.9,18.3-5.7,27.5c-27.3-4.3-55.1-7.6-83.2-9.9
					c-1.6-9.1-3.2-18.2-4.8-27.4C73.3,567.8,101.1,560.4,129.2,554 M136.8,542.4c-34.8,7.6-69.2,16.8-103.1,27.3
					c2.6,14.3,5.3,28.6,7.9,42.9c34.1,2.5,67.5,6.6,100.3,12c2.6-13.1,5.4-26.2,8.3-39.3C145.8,571,141.4,556.7,136.8,542.4
					L136.8,542.4z"/>
			</g>
			<g style="display:none;">
				<path style="display:inline;fill:#FFFFFF;" d="M42.9,603.6c-3.7-15.3-7.5-30.6-11.2-46c32.4-7.7,65.1-14,97.9-19.1
					c2.5,15.8,4.9,31.7,7.4,47.5c-1.3,5.5-1.1,11.6-1.3,17.4c-0.1,4.3-0.2,8.4-0.6,12C104.8,610.3,74.1,606.4,42.9,603.6z"/>
				<path style="display:inline;fill:#DB4B26;" d="M127.8,541.8c2.3,14.7,4.6,29.4,6.9,44.2c-1.3,5.6-1.3,11.6-1.5,17.4
					c-0.1,3.2-0.3,6.3-0.5,9.2c-28.7-4.7-57.9-8.4-87.6-11c-3.4-13.9-6.8-27.8-10.1-41.7C65.8,552.7,96.7,546.7,127.8,541.8
					 M132.6,536c-34.9,5.3-69.6,12.1-104,20.3c4.1,16.6,8.2,33.2,12.3,49.7c32.8,2.8,65,6.9,96.6,12.3c1.5-9.3,0-22.1,2.8-32.5
					C137.6,569.3,135.1,552.7,132.6,536L132.6,536z"/>
			</g>
			<path style="display:none;fill:#FFFFFF;" d="M134.6,584.3c-28.9,4.5-57.7,10.1-86.3,16.7c27.5,2.5,54.7,6,81.4,10.4
				c0.8-0.1,1.5-0.3,2.3-0.4C133.1,602.7,134.2,594.5,134.6,584.3z"/>
			<g>
				<path style="fill:#DD4A1F;" d="M45.2,607.9c-7.9-33.7-15.9-67.5-23.8-101.2c192.7-45.3,393-46.6,586.1-3.8
					c-7.5,33.8-15,67.7-22.5,101.5C407.2,565,222.7,566.1,45.2,607.9z"/>
				<path style="fill:#FFFFFF;" d="M601.8,506.7c-6.7,30.6-13.3,61.2-20,91.8c-175.8-38.3-358-37.2-533.5,3.4
					c-7.1-30.5-14.1-61.1-21.2-91.6C216.1,466.7,412.4,465.4,601.8,506.7 M614.3,499.3c-3.5-0.8-7.1-1.6-10.7-2.4
					C413,455.4,215.3,456.6,25,500.7c-3.5,0.8-7,1.6-10.5,2.5c0.7,3.1,1.5,6.2,2.2,9.2c7.4,30.7,14.8,61.5,22.1,92.2
					c0.7,2.8,1.4,5.6,2,8.5c3.2-0.8,6.4-1.5,9.6-2.3c174-40.3,354.7-41.4,529.1-3.4c3.2,0.7,6.5,1.4,9.7,2.2
					c0.6-2.8,1.3-5.7,1.9-8.5c7-30.8,14-61.6,20.9-92.5C612.9,505.4,613.6,502.4,614.3,499.3L614.3,499.3z"/>
			</g>
			<g>
				<path style="fill:#FFFFFF;" d="M154,546.3c8.1-1.1,16.2-2.1,24.3-3.1c0.4,3.5,0.8,7,1.2,10.6c-12.4,1.4-24.7,3.1-37.1,4.9
					c-2.4-16.5-4.8-32.9-7.3-49.4c4.5-0.7,9-1.3,13.5-1.9C150.5,520.4,152.3,533.4,154,546.3z"/>
				<path style="fill:#FFFFFF;" d="M198.3,512.4c0.3,3,0.6,6.1,0.9,9.1c5.4-0.5,10.7-1,16.1-1.5c0.3,3.5,0.6,7,0.9,10.5
					c-5.3,0.5-10.6,0.9-15.9,1.5c0.3,3,0.6,6,0.9,9c9.6-0.9,19.2-1.8,28.8-2.5c0.3,3.5,0.5,7,0.8,10.5c-13.7,1-27.5,2.3-41.2,3.8
					c-1.8-16.6-3.6-33.1-5.4-49.7c14.3-1.5,28.6-2.8,42.9-3.9c0.3,3.6,0.5,7.1,0.8,10.7C217.9,510.6,208.1,511.5,198.3,512.4z"/>
				<path style="fill:#FFFFFF;" d="M268.5,513.7c-0.1-2.1-0.2-4.3-0.3-6.4c-6.4,0.3-12.7,0.6-19.1,1c0.6,9.6,1.1,19.2,1.7,28.8
					c6.2-0.4,12.4-0.7,18.7-0.9c-0.1-2.1-0.2-4.2-0.3-6.3c-2.7,0.1-5.4,0.2-8,0.4c-0.2-3.5-0.3-7.1-0.5-10.6
					c7.1-0.3,14.2-0.6,21.2-0.9c0.1,3.5,0.2,7.1,0.3,10.6c0.1,3.8,0.2,7.7,0.4,11.5c0,1.5-0.5,2.8-1.8,3.9c-1.2,1.1-2.7,1.6-4.5,1.7
					c-10.5,0.4-20.9,0.9-31.3,1.6c-1.8,0.1-3.3-0.3-4.6-1.2c-1.3-0.9-2-2.2-2.1-3.7c-0.9-13.1-1.8-26.2-2.7-39.2
					c-0.1-1.5,0.5-2.8,1.7-4c1.2-1.1,2.8-1.7,4.6-1.8c10.9-0.7,21.7-1.2,32.6-1.6c1.8-0.1,3.4,0.4,4.8,1.4c1.3,1,2,2.2,2.1,3.8
					c0.1,3.9,0.3,7.8,0.4,11.7C277.3,513.3,272.9,513.5,268.5,513.7z"/>
				<path style="fill:#FFFFFF;" d="M303.9,506.5c0,3,0.1,6.1,0.1,9.1c5.4-0.1,10.8-0.1,16.1-0.1c0,3.5,0,7,0,10.5
					c-5.3,0-10.7,0.1-16,0.1c0,3,0.1,6,0.1,9c9.6-0.1,19.2-0.2,28.8-0.1c0,3.5-0.1,7-0.1,10.5c-13.8-0.1-27.6,0-41.3,0.3
					c-0.4-16.6-0.8-33.3-1.2-49.9c14.3-0.4,28.7-0.5,43-0.4c0,3.6-0.1,7.2-0.1,10.7C323.6,506.3,313.8,506.4,303.9,506.5z"/>
				<path style="fill:#FFFFFF;" d="M391.1,547.4c-3.8-0.2-7.6-0.4-11.3-0.6c-7.7-11.6-15.6-23.2-23.8-34.7
					c-0.3,11.3-0.6,22.5-0.9,33.8c-4.3-0.1-8.6-0.2-12.9-0.3c0.3-16.6,0.5-33.3,0.8-49.9c6.4,0.1,12.8,0.2,19.3,0.4
					c5.8,8.2,11.5,16.4,17,24.7c0.4-8,0.7-16,1.1-24c4.5,0.2,9,0.4,13.5,0.7C392.9,514.2,392,530.8,391.1,547.4z"/>
				<path style="fill:#FFFFFF;" d="M442.8,501.2c1.8,0.2,3.3,0.8,4.6,2c1.2,1.1,1.7,2.5,1.6,4c-1.3,13-2.6,26.1-3.9,39.1
					c-0.2,1.5-0.9,2.7-2.3,3.6c-1.4,0.9-2.9,1.2-4.7,1c-12.3-1.2-24.7-2.1-37.1-2.9c1.1-16.6,2.1-33.2,3.2-49.8
					C417.1,499,430,500,442.8,501.2z M435.1,511.3c-6.1-0.5-12.2-1-18.3-1.5c-0.7,9.5-1.4,19.1-2.1,28.6c6,0.4,11.9,0.9,17.9,1.4
					C433.4,530.4,434.3,520.8,435.1,511.3z"/>
				<path style="fill:#FFFFFF;" d="M487.4,556.5c-10.7-1.4-21.5-2.7-32.2-3.9c0.4-3.5,0.8-7,1.1-10.6c8.6,0.9,17.3,1.9,25.9,3.1
					c0.4-3.1,0.8-6.2,1.2-9.3c-6.5-0.8-13-1.6-19.5-2.3c-1.8-0.2-3.3-0.9-4.5-2c-1.2-1.2-1.7-2.5-1.6-4c0.7-6.5,1.4-13,2.1-19.4
					c0.2-1.4,1-2.6,2.4-3.5c1.5-0.9,3.1-1.2,4.9-1c11.1,1.3,22.3,2.7,33.4,4.2c-0.5,3.5-1,7-1.5,10.5c-8.8-1.2-17.6-2.3-26.4-3.4
					c-0.3,2.9-0.7,5.8-1,8.7c6.6,0.8,13.1,1.6,19.6,2.5c1.8,0.2,3.3,1,4.4,2.2c1.1,1.2,1.6,2.5,1.4,4.1c-0.9,6.6-1.8,13.2-2.8,19.8
					c-0.2,1.5-1,2.7-2.4,3.5C490.7,556.5,489.1,556.8,487.4,556.5z"/>
			</g>
		</g>
	</g>
</g>
<g>
</g>
<g>
</g>
<g>
</g>
<g>
</g>
<g>
</g>
<g>
</g>
</svg>
