<?xml version="1.0" encoding="utf-8"?>
<!-- Generator: Adobe Illustrator 16.0.4, SVG Export Plug-In . SVG Version: 6.00 Build 0)  -->
<!DOCTYPE svg PUBLIC "-//W3C//DTD SVG 1.1//EN" "http://www.w3.org/Graphics/SVG/1.1/DTD/svg11.dtd">
<svg version="1.1" xmlns="http://www.w3.org/2000/svg" xmlns:xlink="http://www.w3.org/1999/xlink" x="0px" y="0px" width="792px"
	 height="612px" viewBox="0 0 792 612" style="enable-background:new 0 0 792 612;" xml:space="preserve">
<g id="testbg" style="display:none;">
	<rect style="display:inline;fill-rule:evenodd;clip-rule:evenodd;fill:#414142;" width="792" height="612"/>
</g>
<g id="art">
	<g id="kyogre_2_">
		<path style="fill-rule:evenodd;clip-rule:evenodd;fill:none;stroke:#FFFFFF;stroke-width:1.0032;stroke-miterlimit:10;" d="
			M118.4,510.3c1-1.4,1.8-3.1,3.1-4.2c6.2-5.1,13.9-7.5,21.5-9.7c15.9-4.6,32.1-7.2,48.5-9.4c12.8-1.7,25.7-3.3,38.5-5.2
			c7.7-1.1,15.1-3.5,21.5-7.8c1.5-1,2.7-2.4,3.9-3.7c0.6-0.6,1.3-1.8-0.7-1.8c-0.2,0-0.6-1.3-0.5-2c0.6-4.8,2.7-9.1,5.8-12.9
			c1.4-1.8,2.8-3.6,4.3-5.3c2-2.3,2-4.5,0.3-7c-3.4-5-7.6-9.3-12.8-12.5c-5.9-3.6-12-6.9-18.1-10.3c3.9-1.8,8.1-3.7,12.3-5.6
			c14-6.2,28.3-11.7,43.2-15.5c11.6-3,23.3-4.9,35.3-4.9c12.4,0,24.2,2.7,35.6,7.5c11.9,5,23,11.2,31.9,20.6c4,4.3,7,9.1,9.1,14.5
			c1.4,3.5,0.6,6.7-2.3,8.8c-4.9,3.6-10,7.1-15.5,9.8c-6.6,3.3-13.8,5.7-20.6,8.6c-1.5,0.7-2.6,0.5-3.9-0.4
			c-5.4-3.9-11.3-6.2-18.1-6.3c-8-0.1-14.1,4-16.9,11.2c-0.5,1.3-1.1,2.1-2.8,2.4c-10.1,1.6-20.3,2-30.6,1.8c-2,0-4,0.1-6,0.4
			c-2.9,0.5-4.1,2-4.2,4.8c-0.1,5.6,2.8,9.9,6.3,14c2.3,2.7,4.9,5,8,8.1c-8.5-1.6-16.3-3.1-24.2-4.6c-1.6-0.3-1.1-1.4-0.4-2
			c2.6-2.4,5.3-4.7,7.9-7.1c0.3-0.3,0.8-0.3,1-0.6c0.5-0.5,0.9-1,1.3-1.5c-0.6,0-1.4-0.3-1.9-0.1c-5.2,1.6-9.2,4.8-11.4,9.4
			c-2.2,4.5-4,9.2-5.3,13.9c-2.6,9.1-7.3,16.8-13.8,23.7c-7.6,8.1-15.5,15.8-24.6,22.2c-5.8,4.1-11.9,7.7-18.5,9.9
			c0.1-1.3,0.8-2.9,0.3-3.8c-0.7-1.1-2.2-2.1-3.5-2.5c-3-0.8-6.1-1.2-9.2-1.5c-1.8-0.2-2.1-0.6-1.2-2.1c2.2-3.7,4.3-7.5,6.5-11.2
			c0.8-1.3,1.2-2.4-0.7-3.1c-1.4-0.6-1.4-1.5-0.5-2.6c1.1-1.4,2.1-3,3.3-4.3c0.6-0.7,1.6-1.3,2.5-1.5c9.1-1.8,17.8-4.5,25.1-10.2
			c3.5-2.8,6.2-6.1,7.7-10.2c2.5-6.8-0.7-13.1-8-15.9c-7-2.7-14.3-3.1-21.6-2.2c-9.2,1.2-18,3.7-25.9,8.5c-2.4,1.4-4.4,3.3-6.7,4.9
			c-1,0.7-2.2,1.3-3.3,1.3c-3,0.2-6,0-9,0.1c-2.3,0.1-4.4-0.3-6.4-1.4c-1-0.6-2.6-0.6-3.8-0.4c-10,2.2-19.9,4.4-29.9,6.7
			C119.4,510.3,118.9,510.3,118.4,510.3L118.4,510.3z M305.3,428.8c-2.3,0.2-4.3,0.2-6.3,0.5c-4.9,0.7-9.7,1.7-13.6,4.9
			c-2.8,2.4-3.2,4.1-0.9,6.8c2.3,2.7,5,5.3,7.9,7.4c9.9,6.7,21.3,7.9,33,6.7c3-0.3,6-1.2,8.8-2.4c4.4-1.9,5.8-5.7,3.5-9.8
			c-1.2-2.1-2.9-4.2-4.9-5.7C324.8,431.1,315,429.5,305.3,428.8z M289.4,464.2c0.9-0.1,2-0.1,3.1-0.3c1-0.2,2.1-0.4,3-0.8
			c4.3-1.7,4.9-5.6,1-8.2c-5.9-4.1-12.3-4.3-18.7-1.5c-3.7,1.7-4,4.3-0.8,6.8C280.6,463.2,284.8,464.1,289.4,464.2z"/>
		<path style="fill-rule:evenodd;clip-rule:evenodd;fill:none;stroke:#FFFFFF;stroke-width:1.0032;stroke-miterlimit:10;" d="
			M204.7,465.6c-3.4-1.8-6.7-3.6-10-5.4c-0.1,0,0.3-1.2,0.6-1.3c2.1-0.8,4.2-1.4,6.3-2.7c-0.9,0-1.9-0.2-2.6,0
			c-4.2,1.4-8.4,2.8-12.4,4.6c-8,3.6-15.9,7.6-23.9,11.2c-7.2,3.2-14.8,4.7-22.7,5.1c-4.4,0.2-8.5-1.1-12.6-2.6
			c-12.1-4.3-24.2-8.7-36.9-11c-1-0.2-2-0.3-3.3-0.9c1.4-0.7,2.9-1.2,4.3-2c4.3-2.4,8.6-3.2,13.5-1.7c3.4,1.1,7.1,1.5,10.6,2.2
			c0.7,0.1,1.4,0.2,2.7,0.4c-4.1-3.9-8.7-5.5-14.2-7.1c3.8-1.2,6.5-3.4,10.5-2.5c7.9,1.7,15.4,4.5,22.8,7.5
			c6.2,2.5,12.6,4.2,19.5,3.8c1-0.1,1.9-0.2,3.1-0.4c-5.8-3-11.4-5.7-16.8-8.8c-6.6-3.8-13.7-5.7-21.3-6.5c3.5-1.6,6.5-4.5,11.2-2.7
			c3.6,1.3,7.4,1.8,11.2,2.6c0.1-0.2,0.3-0.5,0.4-0.7c-3.2-1.9-6.3-3.9-9.4-5.7c2-2.1,4.9-2.8,7.9-1.5c9.2,4.1,18.3,8.2,27.4,12.4
			c5.9,2.7,11.4,2.2,16.5-1.7c0.5-0.4,1-0.9,1.2-1.4c0.1-0.2-0.3-0.7-0.5-1.1c-0.3,0.2-0.6,0.3-0.8,0.5c-0.2,0.2-0.2,0.4-0.3,0.6
			c-2.2,2.8-4.3,3.1-6.9,0.7c-5.9-5.5-11.7-11.1-17.4-16.8c-1.3-1.3-2.1-3.2-3.5-5.3c3.5,0.7,6.3,1.4,9.2,1.7
			c13.9,1.8,27.8,1.5,41.5-1.8c2-0.5,3.3-0.3,4.4,1.5c1.9,3.1,4,6.2,5.9,9.3c0.4,0.6,0.4,1.3,0.7,1.9c-0.7,0.1-1.4,0.3-2.1,0.2
			c-2-0.2-4-0.4-6-0.7c-2.2-0.4-3.9,0.3-5.2,2.1c-5.1,6.9-5.8,14.3-3,22.1C204.3,464.4,204.5,465,204.7,465.6L204.7,465.6z
			 M118.9,461.8c0.1,0,0.1-0.1,0.2-0.1c0,0-0.1-0.1-0.1-0.1c-0.1,0-0.1,0.1-0.2,0.1C118.8,461.7,118.9,461.7,118.9,461.8z"/>
		<path style="fill-rule:evenodd;clip-rule:evenodd;fill:none;stroke:#FFFFFF;stroke-width:1.0032;stroke-miterlimit:10;" d="
			M311.3,500.6c-2.6-0.9-5.3-1.6-7.8-2.8c-7.3-3.6-12.6-9.1-16.1-16.2c-0.4-0.8-0.7-1.6-0.9-2.4c-0.5-2.5,0.5-3.7,3.2-3.7
			c4.2-0.1,8.4,0.2,12.6-0.1c7.1-0.4,14.1-1.1,21.2-1.6c1.9-0.1,3.4-0.7,3.9-2.9c4.3,3.1,9,4.8,14.3,4.7c6.4-0.1,11.5-2.6,15.2-7.7
			c0.2-0.3,1-0.4,1.5-0.4c1.1,0,2.3,0.6,3.2,0.3c12-3.7,23.9-7.7,34.6-14.2c2.4-1.5,4.6-3.3,7.1-5.1c-0.8,4.9-2.6,9.2-5.7,13
			c-5.1,6.3-11.7,10.8-18.6,15.1c-11.4,7-23.9,11.8-36.5,16.3c-0.6,0.2-2.3,0.8-0.7-0.9c-0.3-0.2-0.7-0.7-0.9-0.6
			c-0.8,0.3-1.6,0.7-2.3,1.3c-5.1,4-10.3,8.1-15.3,12.1c-1.2,1-2.1,1-3.3-0.1c-2.1-2.1-4.4-4.1-6.6-6.2c-0.5-0.4-0.9-0.9-1.5-1.2
			c-0.4-0.2-1.1,0-1.6,0c0.1,0.4,0.1,0.9,0.4,1.2c0.3,0.5,0.7,0.8,1,1.3C311.5,500.1,311.4,500.3,311.3,500.6z"/>
		<path style="fill-rule:evenodd;clip-rule:evenodd;fill:none;stroke:#FFFFFF;stroke-width:1.0032;stroke-miterlimit:10;" d="
			M236.5,478c-8.1-0.7-12.1-4.7-13.9-13.1c-0.7-3.3-3.5-5.4-6.9-5.2c-1.6,0.1-2.4,0.7-2.1,2.5c0.5,3.9,2.4,7,5.1,10.5
			c-1.4-0.5-2.4-0.7-3.2-1.2c-8.9-6.7-10.4-17.3-6.7-26c0.7-1.6,1.8-2.3,3.8-2c3.2,0.5,6.4,0.9,9.6,1c3,0.1,4.1-1.3,3.3-4.1
			c-1.6-5.8-5.4-10.4-9.1-14.9c-2.1-2.5-4.3-5-6.4-7.4c0.1-0.2,0.2-0.4,0.2-0.6c3.9,0.8,7.9,1.4,11.8,2.5c11.3,3.2,22.1,7.5,31.1,15
			c2.7,2.2,4.8,5.2,7.2,7.8c1,1.2,0.9,2.1-0.3,3.3c-6.6,6.5-10.4,14.2-9.7,23.4c0.2,3.1-1.3,4.2-3.6,5.2c-3,1.3-3.1,1.3-4.5-1.6
			c-0.9-1.8-1.6-3.7-2.1-5.7c-0.4-1.8-1.3-2.7-3-3.1c-0.9-0.2-1.7-0.4-2.6-0.6c-4.5-0.8-5.2-0.1-4.2,4.1
			C231.3,471.7,233,475.2,236.5,478z"/>
		<path style="fill-rule:evenodd;clip-rule:evenodd;fill:none;stroke:#FFFFFF;stroke-width:1.0032;stroke-miterlimit:10;" d="
			M365.3,363c-0.2,1.1-0.6,1.9-0.5,2.7c0,1.2,0,2.6,0.6,3.7c1.2,2.5,0.7,3.6-1.7,5c-3.8,2.2-7.7,4.4-10.8,7.3
			c-5.5,5-3.5,11.2,3.8,13.1c5.9,1.5,11.8,1.2,17.7,0c9.4-1.8,18.5-4.5,26.3-10c2.1-1.5,3.9-3.4,5.6-5.4c1.6-1.8,1.7-4,0.5-6.1
			c-0.6-1-0.6-1.5,0.6-2.1c4.3-2.2,8.6-4.6,13-6.8c0.7-0.3,1.6-0.6,2.3-0.5c3.1,0.5,5.5-0.7,8-2.4c4.9-3.4,10.1-6.4,14.8-10
			c3.4-2.5,6.6-1.3,9.8-0.3c7,2.1,7.9,5.5,3,10.8c-6.8,7.3-15.3,12.6-23.9,17.6c-14.2,8.3-28.9,15.7-44.4,21.6
			c-3.8,1.5-7.7,2.6-11.7,3.8c-0.7,0.2-1.6,0-2.2-0.3c-10.8-6-22.2-10.6-34.4-13.3c-1.3-0.3-1.8-0.7-1.1-2.1
			c5.6-10.4,13-19.2,23.2-25.7C364.2,363.4,364.6,363.3,365.3,363z"/>
		<path style="fill-rule:evenodd;clip-rule:evenodd;fill:none;stroke:#FFFFFF;stroke-width:1.0032;stroke-miterlimit:10;" d="
			M193.4,530.3c-1.4,1.9-2.8,3.9-4.3,5.8c-1,1.2-1.2,2.2,0.5,2.9c1.7,0.7,1.7,1.6,0.7,3c-2.5,3.4-4.8,7-7.3,10.4
			c-0.7,0.9-2,1.4-3.1,1.7c-1.3,0.4-2.7,0.4-4,0.7c-3.3,0.6-5.9,2.2-8,4.8c-3,3.6-3.2,3.6-8,1.6c2.6-3.5,2.3-5.1-1.6-7.6
			c-1.5-1-3.1-1.9-4.8-2.7c-1.1-0.5-1.3-1-0.4-1.8c7.9-7.3,15.9-14.3,25.1-19.9c0.6-0.4,1.5-0.6,2.3-0.5
			C184.7,529,188.9,529.7,193.4,530.3z"/>
		<path style="fill-rule:evenodd;clip-rule:evenodd;fill:none;stroke:#FFFFFF;stroke-width:1.0032;stroke-miterlimit:10;" d="
			M177,578.4c-5.2-0.8-9.8-1.4-14.4-2.4c-2.9-0.6-3.5-1.8-1.8-4.2c3.3-4.7,7-9.3,10.6-13.8c0.6-0.7,1.9-1.2,3-1.4
			c8.6-1.6,17.1-1.2,25.7,0.1c0.5,0.1,0.9,0.2,1.4,0.4c1.5,0.5,1.9,1.2,0.5,2.4c-6,5.4-11.7,11.1-17.9,16.3
			C182.3,577.5,179.2,577.6,177,578.4z"/>
		<path style="fill-rule:evenodd;clip-rule:evenodd;fill:none;stroke:#FFFFFF;stroke-width:1.0032;stroke-miterlimit:10;" d="
			M137.1,571.4c-1.9-0.5-3.7-0.8-5.4-1.6c-3.7-1.6-7.4-3.3-11-5.1c-1.6-0.8-2.1-2.3-0.7-3.6c4.1-4,8.1-8.1,12.6-11.8
			c1.3-1.1,3.9-1.1,5.8-0.9c7,0.7,13.5,2.8,19.4,6.5c2.8,1.8,2.9,2.4,0.1,4.2c-5.9,3.7-11.9,7.4-17.9,11
			C139,570.6,138,571,137.1,571.4z"/>
		<path style="fill-rule:evenodd;clip-rule:evenodd;fill:none;stroke:#FFFFFF;stroke-width:1.0032;stroke-miterlimit:10;" d="
			M115.4,521.4c0.2-3.9,0.3-4.1,4.1-5.2c10-2.7,20-5.3,30-7.9c0.7-0.2,1.8-0.4,2.3-0.1c3.4,2.5,7.3,1.5,11,1.7c0.6,0,1.2-0.1,1.7,0
			c1,0.2,1.9,0.6,2.8,0.9c-0.7,1.4,0.1,3.3-2.5,4c-14.6,3.9-28.4,9.4-41.8,16.3c-2.8,1.4-5.6,0.3-6.4-2.8
			C116.1,526,115.8,523.6,115.4,521.4z"/>
		<path style="fill-rule:evenodd;clip-rule:evenodd;fill:none;stroke:#FFFFFF;stroke-width:1.0032;stroke-miterlimit:10;" d="
			M145.3,547.7c-2.4-0.4-4.3-0.9-6.2-0.9c-2.1,0-4.2,0.3-6.2,0.6c-1.8,0.3-3.6-0.5-4.3-2.1c-1.1-2.4-2.2-4.8-3.5-7
			c-0.7-1.2-0.9-1.8,0.5-2.5c6.8-3.3,13.5-6.6,20.3-9.8c0.7-0.3,1.9-0.1,2.7,0.3c4.1,2.2,8,4.6,12,6.9c1.4,0.8,1.4,1.4,0.1,2.3
			c-4.6,3.7-9.2,7.5-13.8,11.3C146.4,547.3,145.6,547.5,145.3,547.7z"/>
		<path style="fill-rule:evenodd;clip-rule:evenodd;fill:none;stroke:#FFFFFF;stroke-width:1.0032;stroke-miterlimit:10;" d="
			M312.3,389.8c-10.3,2.4-20,4.7-29.6,7c-1.8,0.4-2,0-2.1-1.5c-0.3-6.7-0.8-13.4-1.3-20.1c-0.2-2.1,1.3-2,2.5-1.6
			c3.7,1.2,7.7,2.1,11,3.9C299.4,381.2,305.7,385.6,312.3,389.8z"/>
		<path style="fill-rule:evenodd;clip-rule:evenodd;fill:none;stroke:#FFFFFF;stroke-width:1.0032;stroke-miterlimit:10;" d="
			M98.1,540.9c0.5-0.6,1-1.6,1.8-2.1c5.2-2.7,10.4-5.3,15.7-7.8c0.4-0.2,1.4,0.2,1.8,0.6c3,3.6,6,7.3,8.9,11
			c0.8,1.1,0.8,1.9-0.7,2.5c-6.3,2.6-12.5,5.3-18.8,7.9c-0.7,0.3-2,0.3-2.4-0.1C101.2,549.7,99.3,545.7,98.1,540.9z"/>
		<path style="fill-rule:evenodd;clip-rule:evenodd;fill:none;stroke:#FFFFFF;stroke-width:1.0032;stroke-miterlimit:10;" d="
			M169.9,420.7c2.3-1,4.6-2.1,7-3c0.6-0.2,1.6,0.1,2.3,0.3c4.4,1.8,9,3,13.8,2.7c0.6,0,1.1-0.4,1.7-0.6c-0.4-0.4-0.8-1-1.3-1.2
			c-2.9-1.2-5.9-2.4-8.9-3.6c-1-0.4-1.6-0.9-0.3-1.4c2.8-1.1,5.4-2.6,8.7-1.5c3.3,1.1,7.4,0.9,10.2,2.6c2.6,1.7,4,5.2,6,7.9
			c1.7,2.2,1.8,2.4-1.1,2.8c-4.2,0.7-8.4,1.5-12.6,1.8c-2.7,0.2-5.7-0.1-8.3-0.8c-5.8-1.5-11.5-3.5-17.2-5.3
			C169.9,421.3,169.9,421,169.9,420.7z"/>
		<path style="fill-rule:evenodd;clip-rule:evenodd;fill:none;stroke:#FFFFFF;stroke-width:1.0032;stroke-miterlimit:10;" d="
			M198.9,408.1c3.4-1.8,6.3-2.5,9.8-1.3c3.3,1.1,6.8,1.4,10.2,2.1c0.1-0.3,0.2-0.5,0.2-0.8c-3.1-1.3-6.2-2.6-9.4-3.9
			c3.3-1.9,5.3-2.1,8.7-1.1c5.2,1.5,10.4,2.9,15.5,4.4c1.3,0.4,2.7,0.7,3.8,1.4c1.5,0.9,2.8,2.2,4.1,3.3c-1.2,0.8-2.5,1.6-3.7,2.3
			c-4.7,2.9-9.3,3.3-14.7,1.2C215.6,412.7,207.3,410.6,198.9,408.1z"/>
		<path style="fill-rule:evenodd;clip-rule:evenodd;fill:none;stroke:#FFFFFF;stroke-width:1.0032;stroke-miterlimit:10;" d="
			M441.7,349.4c-5.4,3.7-10.4,7-15.5,10.4c-0.4,0.3-1.1,0.4-1.6,0.3c-2.9-0.8-5.2,0.4-7.5,1.7c-4.4,2.4-8.8,4.8-13.4,7
			c-1.3,0.6-3.1,0.3-4.6,0.5c-0.1-0.3-0.2-0.6-0.3-0.9c3.1-2.8,6.2-5.6,9.3-8.3c3.1-2.6,6.3-5.1,9.3-7.8c2-1.8,3.9-3,6.8-2.9
			C429.8,349.5,435.4,349.4,441.7,349.4z"/>
		<path style="fill-rule:evenodd;clip-rule:evenodd;fill:none;stroke:#FFFFFF;stroke-width:1.0032;stroke-miterlimit:10;" d="
			M114.5,510.8c-1.9,4.7-2.1,9.5-1.2,14.4c0.2,0.9,0.2,1.4-1,1.5c-4.4,0.5-8.8,1.1-13.2,1.6c-2.1,0.3-2.7-0.7-1.9-2.5
			c1.5-3.4,3-6.8,4.7-10.2c0.4-0.8,1.3-1.5,2.1-1.8c3.3-1.3,6.7-2.5,10-3.7C114.2,510.4,114.3,510.6,114.5,510.8z"/>
		<path style="fill-rule:evenodd;clip-rule:evenodd;fill:none;stroke:#FFFFFF;stroke-width:1.0032;stroke-miterlimit:10;" d="
			M441.8,346.5c2.7-1.9,5.4-3.9,8.2-5.6c1-0.6,2.5-0.9,3.7-0.8c3.7,0.4,7.5,0.9,11.2,1.7c2.7,0.6,3.2,2,1.9,4.3
			c-0.1,0.2-0.2,0.4-0.4,0.6c-1.1,1.5-1.8,3.7-3.4,4.4c-1.1,0.5-3.1-1.1-4.7-1.5c-4.6-0.9-9.3-1.7-14-2.5c-0.8-0.1-1.6-0.1-2.3-0.1
			C442,346.9,441.9,346.7,441.8,346.5z"/>
		<path style="fill-rule:evenodd;clip-rule:evenodd;fill:none;stroke:#FFFFFF;stroke-width:1.0032;stroke-miterlimit:10;" d="
			M411.7,348.2c2.9-2.8,5.2-5.2,7.7-7.5c0.7-0.6,1.9-0.8,2.9-0.9c4.7-0.4,9.5-0.8,14.2-1.1c3-0.2,3.5,0.7,2.2,3.2
			c-1.6,3.5-3.8,5.3-8.2,5.1C424.6,347,418.5,347.8,411.7,348.2z"/>
		<path style="fill-rule:evenodd;clip-rule:evenodd;fill:none;stroke:#FFFFFF;stroke-width:1.0032;stroke-miterlimit:10;" d="
			M386.3,355.2c-3.3,4.9-6.3,9.9-9.9,14.5c-1,1.3-3.6,1.4-5.4,2.1c-0.1,0-0.5-0.1-0.6-0.3c-1.5-1.8-1.6-9.2-0.2-11
			c0.2-0.2,0.4-0.5,0.7-0.6C376,358.2,381.1,356.7,386.3,355.2L386.3,355.2z"/>
		<path style="fill-rule:evenodd;clip-rule:evenodd;fill:none;stroke:#FFFFFF;stroke-width:1.0032;stroke-miterlimit:10;" d="
			M388.2,359.6c0.3-0.5,0.4-0.7,0.5-0.9c2.5-4.7,6.8-6.5,12.1-6.9c4.1-0.3,8.2-1.1,12.5-1.2c-2.8,2.3-5.5,4.7-8.3,6.9
			c-0.6,0.5-1.6,0.7-2.5,0.8c-4.4,0.5-8.8,0.9-13.2,1.4C389,359.7,388.7,359.7,388.2,359.6z"/>
		<path style="fill-rule:evenodd;clip-rule:evenodd;fill:none;stroke:#FFFFFF;stroke-width:1.0032;stroke-miterlimit:10;" d="
			M385.9,352.8c1.4-2.1,2.4-3.9,3.8-5.6c0.7-0.8,1.8-1.6,2.9-1.9c4.2-1,8.5-1.8,12.7-2.7c1.4-0.3,1.9,0.2,1.7,1.6
			c-0.5,4-1.4,4.9-5.5,5.6C396.5,350.8,391.5,351.8,385.9,352.8z"/>
		<path style="fill-rule:evenodd;clip-rule:evenodd;fill:none;stroke:#FFFFFF;stroke-width:1.0032;stroke-miterlimit:10;" d="
			M361.8,362.3c1.2-2.6,2.3-5,3.6-7.4c0.3-0.6,1-1.3,1.6-1.6c4-1.6,8-3.2,12-4.7c1.5-0.6,2-0.1,1.6,1.5c-0.8,2.9-1.9,5.1-5.4,6.2
			C370.7,357.7,366.5,360.2,361.8,362.3z"/>
		<path style="fill-rule:evenodd;clip-rule:evenodd;fill:none;stroke:#FFFFFF;stroke-width:1.0032;stroke-miterlimit:10;" d="
			M231.5,466.1c0.3-0.2,0.9-0.7,1.5-0.7c4.4,0.3,5.4,1.3,6.5,5.4c0.4,1.4,1.3,2.8,1.9,4.2c0.2,0.6,0.3,1.2,0.5,1.8
			c-0.8,0.1-1.6,0.4-2.3,0.3C235.3,475.9,231.6,471.3,231.5,466.1z"/>
		<path style="fill-rule:evenodd;clip-rule:evenodd;fill:none;stroke:#FFFFFF;stroke-width:1.0032;stroke-miterlimit:10;" d="
			M223.3,472c-4.2-0.9-8.1-5.2-8.4-9.2c0-0.4,0.3-1.1,0.7-1.2c1.5-0.5,4.9,1.4,5.4,2.9C221.8,467,222.5,469.4,223.3,472z"/>
		<path style="fill-rule:evenodd;clip-rule:evenodd;fill:none;stroke:#FFFFFF;stroke-width:1.0032;stroke-miterlimit:10;" d="
			M341,465.4c-1.8-0.9-3.4-1.6-4.9-2.4c-0.5-0.3-0.5-1.2-0.8-1.8c1.1,0,2.6-0.4,3.1,0.1c2,1.8,2.2,1.8,3.9,0.1
			c0.5-0.5,1.7-0.3,2.6-0.4c0,0.7,0.3,1.6,0,1.9C343.8,463.8,342.5,464.5,341,465.4z"/>
		<path style="fill-rule:evenodd;clip-rule:evenodd;fill:none;stroke:#FFFFFF;stroke-width:1.0032;stroke-miterlimit:10;" d="
			M140,444.9c0.2,0.2,0.4,0.5,0.5,0.7c-0.3-0.1-0.7-0.1-1-0.2C139.7,445.2,139.8,445,140,444.9z"/>
		<path style="fill-rule:evenodd;clip-rule:evenodd;fill:none;stroke:#FFFFFF;stroke-width:1.0032;stroke-miterlimit:10;" d="
			M118.5,510.4c-0.1,0.1-0.2,0.1-0.3,0.2C118.3,510.5,118.4,510.4,118.5,510.4L118.5,510.4z"/>
		<path style="fill-rule:evenodd;clip-rule:evenodd;fill:none;stroke:#FFFFFF;stroke-width:1.0032;stroke-miterlimit:10;" d="
			M386.2,355.1c0.1-0.1,0.2-0.1,0.3-0.2C386.4,355,386.3,355.1,386.2,355.1C386.3,355.2,386.2,355.1,386.2,355.1z"/>
		
			<polygon style="fill-rule:evenodd;clip-rule:evenodd;fill:none;stroke:#FFFFFF;stroke-width:1.0032;stroke-miterlimit:10;" points="
			205.1,466.1 205.2,466.2 205.1,466.1 		"/>
		<path style="fill-rule:evenodd;clip-rule:evenodd;fill:none;stroke:#FFFFFF;stroke-width:1.0032;stroke-miterlimit:10;" d="
			M205.1,466.1c-0.2-0.2-0.3-0.3-0.5-0.5l0,0C204.8,465.8,205,465.9,205.1,466.1L205.1,466.1z"/>
		<path style="fill-rule:evenodd;clip-rule:evenodd;fill:none;stroke:#FFFFFF;stroke-width:1.0032;stroke-miterlimit:10;" d="
			M320.4,454c-10.2-0.7-20-2.2-28.4-8.2c-2-1.4-3.8-3.1-5.4-4.9c-2.2-2.5-2-4.9,1.1-6.3c3.2-1.5,6.7-2.7,10.2-3.1
			c10.6-1.2,20.9,0.3,30.5,5.1c2.6,1.3,5,3.2,6.9,5.4c3.5,4,2.2,8.5-3,10C328.4,453,324.4,453.4,320.4,454z"/>
		<path style="fill-rule:evenodd;clip-rule:evenodd;fill:none;stroke:#FFFFFF;stroke-width:1.0032;stroke-miterlimit:10;" d="
			M289.7,462.6c-3.9-0.2-7.7-0.7-11-2.9c-2.6-1.8-2.6-4,0.3-5c5.8-2.1,11.6-2,16.8,1.5c1.1,0.7,2.2,2.5,2,3.5c-0.2,1-2,2-3.3,2.5
			C293,462.5,291.3,462.4,289.7,462.6z"/>
		<path style="fill-rule:evenodd;clip-rule:evenodd;fill:none;stroke:#FFFFFF;stroke-width:1.0032;stroke-miterlimit:10;" d="
			M192.5,525.9c-4.8-1.2-9.8-2-14.3-3.8c-7.8-3.2-8.4-9.9-2-15.2c8.3-6.8,18.1-9.8,28.7-11c5-0.6,9.9-0.2,14.8,1
			c1.6,0.4,3.2,1,4.7,1.7c5,2.3,6.4,5.8,3.5,10.4c-1.8,2.8-4.3,5.5-7.1,7.5c-7.3,5.4-19.2,8.8-28.3,8.8
			C192.7,525.4,192.6,525.6,192.5,525.9z"/>
		<path style="fill-rule:evenodd;clip-rule:evenodd;fill:none;stroke:#FFFFFF;stroke-width:1.0032;stroke-miterlimit:10;" d="
			M152.8,523.3c4.8-1.5,9-2.8,13.2-4c0.6-0.2,1.5,0.3,2,0.7c1.7,1.6,3.2,3.5,4.9,5c0.9,0.8,1.1,1.2,0,1.9c-0.1,0.1-0.3,0.2-0.4,0.3
			c-3.9,3.9-7.8,4.2-12.2,0.6C158.2,526.1,155.7,525,152.8,523.3z"/>
		<path style="fill-rule:evenodd;clip-rule:evenodd;fill:none;stroke:#FFFFFF;stroke-width:1.0032;stroke-miterlimit:10;" d="
			M365,391.4c-2.7-0.5-5.6-0.7-8.2-1.6c-2.6-0.8-3.2-2.7-1.2-4.4c3-2.7,6.4-5.3,10-7.1c8.8-4.1,18.1-6.5,28-6.3
			c2.4,0,4.8,0.4,7.1,1.1c2.9,0.9,3.3,2.7,1.2,5c-3.6,4-8.4,6.2-13.4,8.1C381,389.2,373.2,391,365,391.4z"/>
		<path style="fill-rule:evenodd;clip-rule:evenodd;fill:none;stroke:#FFFFFF;stroke-width:1.0032;stroke-miterlimit:10;" d="
			M381.9,368.9c1.3-3.3,3-5.6,7.2-5.4c3.1,0.1,6.2-0.6,9.4-0.7c-2.6,2.5-4.3,6.1-9.1,5.5C387.1,368,384.7,368.6,381.9,368.9z"/>
	</g>
	<g id="Layer_3">
		<g>
			<path style="fill-rule:evenodd;clip-rule:evenodd;fill:none;stroke:#FFFFFF;stroke-width:0.8545;stroke-miterlimit:10;" d="
				M728,196c-2.1-1.3-4.2-2.6-6.2-3.8c-1.9-1.2-3.9-2.3-5.7-3.6c-1.9-1.3-3.8-1.5-6-1.1c-8.4,1.3-16.9,1.9-25.3,0.2
				c-6.1-1.2-12-3-18.6-4.7c1-1.1,1.5-1.7,2.1-2.3c2.4-2.1,4.7-4.3,7.2-6.3c0.8-0.6,2-1.1,2.9-0.9c2.4,0.3,4.8,0.9,7.2,1.6
				c5.1,1.6,10.4,2.1,15.7,1.6c5.8-0.6,11.4-1.8,17.2-2.7c0.6-0.1,1.3,0,2.1,0c-1.6,4.4-5,7.4-7.4,10.9c4.8-2.7,7.2-7.5,10.1-12
				c1.6,0.6,8.8,1.3,10.4,1.9C733.5,181.8,728,188.9,728,196z"/>
			<path style="fill-rule:evenodd;clip-rule:evenodd;fill:none;stroke:#FFFFFF;stroke-width:0.8545;stroke-miterlimit:10;" d="
				M728,225.7c-2.7,0.9-5.5,1.9-8.2,2.8c-3.2,1.1-6.6,1.9-9.6-0.1c-1.3-0.9-2.9-2.4-3.1-3.8c-0.4-2.9-0.4-6,0.3-8.8
				c1-3.9,6.1-5.8,10.5-4.3c2.7,1,5.4,2.1,8.1,3.1c0.7,0.2,1.4,0.4,2.1,0.5C728,218.7,728,222.2,728,225.7z"/>
			<path style="fill-rule:evenodd;clip-rule:evenodd;fill:none;stroke:#FFFFFF;stroke-width:0.8545;stroke-miterlimit:10;" d="
				M728,229.2c-6.4,6.9-14.7,10.8-22.9,14.8c-6,2.9-11.9,6.1-18.6,7.3c-1.3,0.2-2,0.1-2.4-1.3c-0.9-3.4-1.9-6.8-2.8-10.3
				c-0.1-0.3,0.1-0.8,0.1-1.2c0.4,0.1,1,0.1,1.3,0.4c4.5,4.8,9.6,4.1,15,1.8c5.1-2.2,10.5-4,15.7-6c1.4-0.5,3.1-1,2.5-2.9
				c4.2-1.5,8.2-2.9,12.2-4.4C728,228,728,228.6,728,229.2z"/>
			<path style="fill-rule:evenodd;clip-rule:evenodd;fill:none;stroke:#FFFFFF;stroke-width:0.8545;stroke-miterlimit:10;" d="
				M728,211.3c-2.2-1.7-2-4.2-1.7-6.5c0.2-1.5,1.1-2.9,1.7-4.4C728,204,728,207.7,728,211.3z"/>
			<path style="fill-rule:evenodd;clip-rule:evenodd;fill:none;stroke:#FFFFFF;stroke-width:0.8545;stroke-miterlimit:10;" d="
				M407.5,51c1,0.5,1.9,1,2.8,1.5c3.2,2,3.4,2.6,2.2,6.1c-5,14.8-12.3,28.5-20.6,41.6c-1,1.5-1.9,3.2-2.3,4.9
				c-0.3,1.4-0.3,3.5,0.5,4.5c3.8,4.8,3.5,10.3,3.2,15.8c-0.1,1.2-0.2,2.5-0.2,3.7c0,0.5,0.4,1,0.6,1.5c0.4-0.4,1.1-0.8,1.1-1.3
				c0.2-3.8,0.3-7.7,0.2-11.5c0-3.3-1-6.3-3.3-8.8c-1.4-1.6-0.8-3.3,0.1-4.9c2.5-4.4,5.2-8.8,7.8-13.1c8.6-14.5,14.8-29.8,18.9-46.1
				c0.1-0.6,0.2-1.2,0.5-1.7c0.6-1.3,2.1-1.5,2.6-0.2c1.6,3.7,3,7.5,4.4,11.3c0.2,0.4-0.2,1.1-0.4,1.6
				c-6.9,15.9-14.6,31.3-24.8,45.4c-1.5,2-1.9,4.2-1.5,6.6c1.3,7.3,0,14.3-2.7,21.1c-0.3,0.8-0.2,1.8-0.2,2.7
				c0.6-0.7,1.5-1.4,1.9-2.2c2.9-7.1,4.2-14.4,2.9-22.1c-0.3-1.5,0.3-3.6,1.2-4.9c13-18.4,22.5-38.6,30.5-59.5
				c0.4-0.9,0.7-1.8,1.1-2.8c0.2-0.1,0.5-0.2,0.7-0.3c1,1.4,2.2,2.7,2.9,4.2c1,2.2,1.6,4.5,2.2,6.8c0.2,0.7,0,1.6-0.3,2.3
				c-4.1,7.8-8.2,15.7-12.5,23.4c-2.7,5-5.5,9.9-8.6,14.6c-2.1,3.3-4.8,6.2-7.4,9.2c-1.8,2.1-2.7,4.5-2.6,7.2
				c0.3,8.6-2.7,15.9-8,22.4c-0.3,0.4-0.3,1.2-0.4,1.8c0.6-0.3,1.4-0.4,1.8-0.8c4.9-6,8.5-12.6,8.2-20.6c-0.1-4.8,1.7-8.4,4.7-11.9
				c3.3-4,6.2-8.4,8.9-12.8c3.9-6.3,7.8-12.8,11.3-19.3c3.2-6,5.8-12.3,8.8-18.5c0.5-1,1.4-1.9,2.1-2.8c0.6,0.9,1.4,1.8,1.8,2.8
				c3.4,8.8,7.3,17.3,14.1,24c0.1,0.1,0.2,0.4,0.1,0.2c-4.9,3.6-9.7,7-14.4,10.6c-9.6,7.4-17.9,16.1-24.2,26.6
				c-1.5,2.5-1.2,3.9,1.5,4.9c2,0.7,4.2,0.8,6.3,1.2c-0.7,5-4,8.9-9.1,10.2c-9.3,2.3-18,6.1-25.7,11.9c-2.4,1.8-3.5,1.3-3.9-1.7
				c-0.4-3.6-0.5-7.2-1.1-10.8c-0.8-5-2.6-9.7-5.6-13.8c-1.7-2.3-1.7-4.2-0.6-6.6c2.6-5.4,5.3-10.7,7.6-16.1
				c4.5-10.5,8.9-21.1,13.3-31.7C406.6,55,406.9,53.2,407.5,51z"/>
			<path style="fill-rule:evenodd;clip-rule:evenodd;fill:none;stroke:#FFFFFF;stroke-width:0.8545;stroke-miterlimit:10;" d="
				M526.6,59.9c5.7,1.6,11.2,3,16.6,4.6c3.6,1.1,7,2.6,10.5,4c1.3,0.5,2.3,0.5,3-1c1-1.9,2.2-3.5,3.4-5.3c0.6-1,1.4-1,2.4-0.5
				c3,1.5,6.2,2.8,9.2,4.4c1.3,0.7,2.7,2,3.2,3.4c0.9,2.9,1.2,6.1,1.9,9.1c0.3,1.2,0.7,2.7,1.6,3.5c4.9,4.2,10,8.1,14.9,12.3
				c2.2,1.8,4,4,6.1,5.9c1.4,1.2,1.7,2.6,1.3,4.3c-1.5,5.8-2.9,11.5-4.4,17.3c-0.3,1.1-0.8,1.6-2,1.9c-2.3,0.5-4.5,1.4-7.1,2.2
				c-2.8-1.9-6-4-9.1-6.2c-0.4-0.3-0.4-1.1-0.4-1.7c0.1-3.8,0.7-7.7,0.2-11.5c-1.3-10.7-7.6-17.4-17.8-20.6
				c-2.9-0.9-6.1-1.1-9.2-1.4c-2.8-0.3-5.3,0.6-7.6,2.2c-0.6,0.4-1.7,0.5-2.2,0.2c-3.9-2.1-7.7-4.3-11.5-6.6
				c-0.6-0.3-1.2-1.1-1.2-1.8C527.6,72.4,527.1,66.5,526.6,59.9z M558.9,65.9c-0.1,0.3-0.2,0.5-0.3,0.8c4.8,2.3,9.6,4.6,14.3,6.9
				c0.1-0.3,0.3-0.6,0.4-0.9C568.7,70,564.1,67.4,558.9,65.9z"/>
			<path style="fill-rule:evenodd;clip-rule:evenodd;fill:none;stroke:#FFFFFF;stroke-width:0.8545;stroke-miterlimit:10;" d="
				M582.8,149.6c1-2.8,1.9-5.3,2.8-7.8c2,3.2,4.9,5.8,8.8,6c3.2,0.1,4.1,1.9,5,4.2c0.2,0.5,0.4,0.9,0.6,1.4c1.9,3.2,2.6,5.9,0.7,9.8
				c-4.1,8.6,3.1,16.4,10,17c1.4,0.1,1.8,0.9,2.5,1.9c2.3,3.5,2.2,6-1,9.4c-5.5,5.8-7.6,13.4-8.4,21.3c-0.1,1.5,0.2,3,0.3,4.9
				c-14.1-4.6-28.6-5.2-43.2-4.7c2-2.1,4.1-4.1,5.9-6.3c3-3.6,6-7.2,9.8-10.1c3.9-3.1,5.5-7.5,6.2-12.3c0.9-7,2-13.9,2.9-20.9
				C586.3,158.2,585.9,153.3,582.8,149.6z"/>
			<path style="fill-rule:evenodd;clip-rule:evenodd;fill:none;stroke:#FFFFFF;stroke-width:0.8545;stroke-miterlimit:10;" d="
				M637,245.4c-10.9,0-17.7-4.6-22.2-12.2c-3.3-5.6-3.8-17.5,2.6-23.8c4.7-4.6,9.7-8,16.4-7.6c6,0.3,12,1.3,16.7,5.8
				c6.3,6.1,7.9,13.4,5.9,21.8c-0.6,2.3-1.4,4.6-2.3,6.8c-0.4,1-1,2-1.8,2.6C647.3,242.8,641.8,245.6,637,245.4z"/>
			<path style="fill-rule:evenodd;clip-rule:evenodd;fill:none;stroke:#FFFFFF;stroke-width:0.8545;stroke-miterlimit:10;" d="
				M608.7,223.6c-2.4-5.2-3.8-10-2.4-15.5c2.4-9.7,7.1-17.6,15.9-23c8.6-5.3,22.6-4.3,30.1,1.9c7.2,6,11.7,13.6,15.2,22
				c4,9.5,7.9,19,11.1,28.8c2.8,8.7,5.4,17.4,9.4,25.7c0.2,0.5,0.2,1.3-0.1,1.7c-2.2,3.3-4.5,6.5-6.8,9.8c-0.2,0.2-0.4,0.4-0.6,0.7
				c-1.2-2.8-2.3-5.4-3.5-8c-0.6-1.2-1.1-2.6-2.1-3.5c-1.6-1.6-1.7-3.2-1.3-5.3c1.2-6.2,2.2-12.4,3.3-18.6c0.5-2.9-0.2-3.4-3-3.5
				c-4.5-0.2-8.9-0.6-13.3-1c0.5-3.6,1.1-6.5,1.4-9.5c1.4-14.3-7.3-25.7-21.5-27.9c-3.8-0.6-7.8-0.8-11.7-0.4
				c-9,1-17.9,10.1-19.2,19.1C609.1,219.1,608.9,221.2,608.7,223.6z"/>
			<path style="fill-rule:evenodd;clip-rule:evenodd;fill:none;stroke:#FFFFFF;stroke-width:0.8545;stroke-miterlimit:10;" d="
				M435.6,119.9c3-3.4,6-6.8,9.1-10.2c2.5-2.8,5.1-5.6,7.7-8.3c1.9-1.9,2.9-3.9,2.1-6.6c-0.3-1-0.2-2.1-0.6-3
				c-1.6-3.6-0.2-6.1,2.9-7.9c4.2-2.5,8.5-5,12.7-7.5c1.5-0.9,2.5-0.5,3.2,1.2c1.2,3,2.6,6,4.1,9.3c-1.4-0.2-2.4-0.4-3.4-0.6
				c-7.7-1.7-13.1,2.7-13.4,10.6c-0.2,5.3,1.9,9.1,6.8,11c1.7,0.7,4,0.8,5.8,0.3c3.1-0.9,6-2.5,9.2-3.9c0.9,4.7,1.8,9.4,2.6,14.2
				c2,11.6,3.9,23.3,5.9,34.9c0.3,1.9,0.1,3.5-1.2,4.8c-2.4,2.4-4.9,4.7-7.8,7.4c-0.7-2.8-1.5-5.4-2-8c-2.4-10.7-4.7-21.4-7.1-32
				c-0.7-2.9-2.4-5-5.2-6.4c-2.4-1.2-4.8-2.3-7.2-3.6c-2.6-1.3-5-1-7.7,0c-5.3,1.9-10.8,3.3-16.2,5
				C435.9,120.5,435.8,120.2,435.6,119.9z"/>
			<path style="fill-rule:evenodd;clip-rule:evenodd;fill:none;stroke:#FFFFFF;stroke-width:0.8545;stroke-miterlimit:10;" d="
				M413.1,174c3.6-0.8,7-1.2,10.2-2.3c3.1-1.1,5.8-3,8.8-4.6c0-0.1,0.2,0.3,0.4,0.8c0.7,1.7,2.2,2.3,3.5,1.3
				c2.6-1.9,4.9-4.2,7.2-6.5c0.4-0.4,0.2-1.5,0.1-2.2c-1.1-5.3-1.3-10.6-0.9-16.1c9.4-1.1,18.1-3.9,26.2-8.3
				c0.5,2.2,1.2,4.1,1.3,6.1c0.1,2,0.2,4.1-0.5,5.9c-1.5,3.8-3.2,7.5-5.3,11c-2.5,4.2-4,8.7-4.7,13.4c-0.9,6-4.8,9.7-9.8,12.3
				c-6,3.1-12.6,2-19,1.1c-0.3,0-0.7-0.1-0.8-0.3c-1.4-3.1-4.4-1.8-6.7-2.5c-1.1-0.3-2.3-0.4-3.4-0.7c-1.1-0.3-2.2-0.6-2-2.3
				c0.1-0.6-0.8-1.5-1.3-2.2C415.5,176.6,414.3,175.4,413.1,174z"/>
			<path style="fill-rule:evenodd;clip-rule:evenodd;fill:none;stroke:#FFFFFF;stroke-width:0.8545;stroke-miterlimit:10;" d="
				M523.1,78.2c-2.3,1.6-4.2,3-6.1,4.2c-0.6,0.3-1.6,0.3-2.2,0.1c-5.1-1.7-10.2-3.8-15.4-5.2c-2.1-0.6-3.3-1.4-4.2-3.3
				c-1.4-3-3.2-5.7-4.6-8.6c-1.7-3.6-4.3-6.2-7.8-7.9c-6.3-3-12.7-6.1-19.1-9c-0.9-0.4-2.3-0.1-3.4,0.1c-1.1,0.1-2.2,0.4-3.6,0.7
				c1.2-2.3,2.7-3.5,4.7-3.8c6.4-0.8,12.8-1.5,19.2-2.2c4.3-0.4,8.7-0.4,13-0.9c5.3-0.5,9.8,1.3,14,4.3c2,1.4,4,2.9,6,4.4
				c3.6,2.6,6,6,6.7,10.5C521.1,67.4,522.2,73,523.1,78.2z"/>
			<path style="fill-rule:evenodd;clip-rule:evenodd;fill:none;stroke:#FFFFFF;stroke-width:0.8545;stroke-miterlimit:10;" d="
				M613,238.9c-5.6-1.6-11.1-3.3-16.7-4.9c-7.9-2.2-16.1-1.9-24.2-2.2c-4.4-0.1-9,0.2-13.2-0.6c-5.4-1.1-10.9-2.6-15.3-6.2
				c3.6-4.4,8.3-7.1,13.2-9.4c1.4-0.7,3.2-0.7,4.9-0.7c13.8-0.5,27.6,0.1,40.9,4.3c1.9,0.6,3,1.6,3.7,3.5c1.9,5.1,4.1,10,6.2,15
				C612.6,238,612.8,238.5,613,238.9z"/>
			<path style="fill-rule:evenodd;clip-rule:evenodd;fill:none;stroke:#FFFFFF;stroke-width:0.8545;stroke-miterlimit:10;" d="
				M513,186.2c-1.8-4.4-3.1-9.1-3-13.9c0.1-7,0.7-14,1-21.1c0.3-8.3-0.8-16.4-3.3-24.2c-0.5-1.6-1.5-3.1-2.4-4.9
				c4.1-1.4,8.3-2.3,12.7-1.7c5,0.7,10,1.7,15,2.6c1.3,0.3,2.7,0.8,3.9,1.3c0.3,0.1,0.6,0.9,0.5,1.3c-1.3,5.8-3.3,10.9-9.3,13.5
				c-1.2,0.5-2.5,2-2.7,3.3c-1.6,7.5-3,15.1-4.4,22.6c-0.6,3.4-1.1,6.7-2.9,9.9C516,178.4,514.6,182.4,513,186.2z"/>
			<path style="fill-rule:evenodd;clip-rule:evenodd;fill:none;stroke:#FFFFFF;stroke-width:0.8545;stroke-miterlimit:10;" d="
				M514,94.1c1,4.1,4.1,5.7,7.5,7.1c3.5,1.4,6.8-0.3,10.4-1.2c-1.2,7.4-1,14.5,2.3,21.4c-3.9-0.8-7.6-1.5-11.2-2.2
				c-6.2-1.1-12.4-0.9-18.4,1.3c-4.5,1.7-8.6,0.8-13.1-1.9c2.3-0.8,4.2-1.5,6.1-2.2c0.7-0.3,1.3-0.9,1.9-1.3
				c-0.8-0.1-1.8-0.6-2.5-0.3c-3.1,1.4-6,3-9.1,4.5c-0.4,0.2-0.7,0.5-1.2,0.8c-0.9-4.6-1.7-9-2.5-13.4c-0.1-0.5-0.2-1-0.3-1.5
				c-0.5-1.5-0.1-2.5,1.4-3.1c0.8-0.3,1.5-0.8,2.3-1.2c2.4-1.4,4.7-2.2,7.7-1.4c4.2,1.1,8.3-0.1,12.2-2.1
				C509.7,96.3,511.8,95.2,514,94.1z"/>
			<path style="fill-rule:evenodd;clip-rule:evenodd;fill:none;stroke:#FFFFFF;stroke-width:0.8545;stroke-miterlimit:10;" d="
				M545.9,120.5c-3.1,6.6-2.7,12.7,0.8,18.5c3.2,5.5,7.2,10.3,13.5,12.8c-0.1,0.2-0.1,0.4-0.2,0.6c-2,0.4-4,0.8-5.9,1.2
				c-0.8,0.2-1.6,0.3-2.3,0.5c-2.1,0.4-3.2,1.2-3.7,3.7c-1.1,4.9-2.9,9.5-4.5,14.3c-0.1,0.4-0.4,1-0.8,1.2c-3.1,1.7-6.2,3.3-9.4,5
				c-0.8-3.6-1.5-7.2-2.5-10.7c-1-3.9-2.5-4.3-5.7-2c-0.9,0.7-1.8,1.5-2.6,2.2c-0.2-0.1-0.4-0.1-0.6-0.2c1.6-8.1,3.2-16.3,5-24.4
				c0.2-1.1,1.3-2.3,2.3-2.8c4.7-2.3,7.6-5.9,8.9-10.9c0.5-1.7,0.9-3.3,1.5-5C540.6,121.9,542.9,121,545.9,120.5z"/>
			<path style="fill-rule:evenodd;clip-rule:evenodd;fill:none;stroke:#FFFFFF;stroke-width:0.8545;stroke-miterlimit:10;" d="
				M572,150.9c-10.4-0.5-23.9-8.1-24.2-22.7c-0.1-6.7,6.1-12.6,13.8-11.3c4.5,0.8,8.4,2.9,11.9,5.9c3.9,3.2,6.4,7.2,8.6,11.6
				c1.5,3,1.7,6.3,1,9.5c-0.8,4.2-4,5.8-7.7,6.7C574.1,150.9,572.8,150.9,572,150.9z"/>
			<path style="fill-rule:evenodd;clip-rule:evenodd;fill:none;stroke:#FFFFFF;stroke-width:0.8545;stroke-miterlimit:10;" d="
				M575.4,103.1c-4.7-1.5-9-3.1-13.4-4.4c-3.8-1.1-4.6-0.1-3.8,3.6c0.7,3.5,0.7,6.9-0.2,10.3c-0.4,1.6-1.3,2.4-3,3.1
				c-2.2,0.8-4.1,2.2-6.5,3.5c-2.6-1.3-6.8-0.7-10.3,3.7c-2.4-1.8-3.5-4.5-4.1-7.2c-1.2-5.2-1.6-10.5-0.1-15.7
				c0.2-0.6,0.9-1.2,1.5-1.5c3.3-1.4,6.7-2.7,10-4.2c0.9-0.4,2.3-1.4,2.2-2c-0.1-0.9-1.2-1.8-1.9-2.6c-0.5-0.5-1.1-0.8-2-1.4
				c5.7-3.8,11.4-2.3,16.9-0.5C568.1,90.4,573,95.6,575.4,103.1z"/>
			<path style="fill-rule:evenodd;clip-rule:evenodd;fill:none;stroke:#FFFFFF;stroke-width:0.8545;stroke-miterlimit:10;" d="
				M413.5,138.3c12.6-2.4,23.1-8.4,32.8-15.8c2.3-1.7,4.6-3.5,7-5.1c1.8-1.2,3.7-1,5.6-0.1c2.4,1.2,4.8,2.4,7.2,3.6
				c2.6,1.2,4,3.2,4.5,6c1.1,5.2,1.1,5.2-3.4,7.7c-10.4,5.6-21.5,8.9-33.4,8.1c-6.2-0.4-12.2-2.2-18.3-3.4
				C415,139.1,414.4,138.7,413.5,138.3z"/>
			<path style="fill-rule:evenodd;clip-rule:evenodd;fill:none;stroke:#FFFFFF;stroke-width:0.8545;stroke-miterlimit:10;" d="
				M509.5,182.1c0.9,2.5,1.8,4.8,2.5,7.2c0.2,0.8-0.1,1.7-0.2,2.5c-0.2,1.5,0,2.6,1.9,2.7c0.5,0,1.1,0.5,1.4,1
				c1.8,2.3,3.7,4.7,5.4,7.1c0.4,0.6,0.6,1.8,0.3,2.4c-1.4,2.8-3,5.4-4.5,8.2c-0.4,0.7-0.3,1.6-0.4,2.4c0.9,0.1,1.8,0.4,2.7,0.3
				c1.7-0.4,3.3-1,5.5-1.2c-0.5,0.9-0.8,2-1.4,2.8c-4.2,5.8-12.4,8.1-19.3,6.2c-5.3-1.5-7-5.2-7.9-10c-2.3-11.5,3.1-24.8,12.9-30.9
				C508.6,182.6,508.9,182.5,509.5,182.1z"/>
			<path style="fill-rule:evenodd;clip-rule:evenodd;fill:none;stroke:#FFFFFF;stroke-width:0.8545;stroke-miterlimit:10;" d="
				M654.2,186.3c3-0.4,5.5-0.9,8.1-1.1c1.2-0.1,2.6,0.1,3.6,0.6c5.6,3.1,11.7,4.4,17.9,4.8c6.8,0.5,13.6,0.4,20.4,0.6
				c0.5,0,1.1,0.1,1.5-0.1c3.4-1.5,6,0.1,8.7,1.8c2.3,1.4,4.6,2.8,6.9,4.1c3.2,1.9,3.8,3.4,3.2,6.9c-0.2,1.2-0.2,2.4-0.2,3.7
				c0.1,2.7-1.4,4.1-3.8,3c-3.6-1.7-7.1-2-10.7-0.3c-3.3-4.7-7.9-7.6-12.4-10.6c-2.6-1.8-5.6-1.4-8.5-1c-6.4,0.8-12.5-0.3-18.7-1.9
				c-5.3-1.4-10.3-3-13.4-8C656.3,187.9,655.3,187.3,654.2,186.3z M705,192.4c-3.4,1.8-6.3,3.4-9.7,5.2
				C698.3,198,704.2,194.8,705,192.4z"/>
			<path style="fill-rule:evenodd;clip-rule:evenodd;fill:none;stroke:#FFFFFF;stroke-width:0.8545;stroke-miterlimit:10;" d="
				M562.4,251.3c-10.8,2-21.3,3.9-31.5,5.7c-1.5-1.9-3.1-4-4.8-6c-1-1.2-1.1-1.9,0.2-3c4.6-3.8,9.2-7.5,14.8-9.9
				c0.3-0.1,0.7-0.3,1-0.5c2.6-1.5,2.6-3.5-0.1-4.9c-4.3-2.3-8.7-4.3-13-6.6c-1.4-0.7-2.7-1.7-3.7-2.3c1.5-3,2.8-5.7,3.8-7.8
				c2.2,1.9,4.7,4,7,6.2c0.4,0.4,0.1,1.6,0.2,2.4c0.1,1,0.3,2,0.4,3c1-0.2,2.3,0,3.1-0.5c1.6-1.2,2.7-0.6,4.2,0.2
				c3.2,1.7,6.6,2.9,9.9,4.4c0.6,0.3,1.3,0.7,1.5,1.2c2,4.8,3.8,9.7,5.7,14.5C561.4,248.7,561.9,249.9,562.4,251.3z"/>
			<path style="fill-rule:evenodd;clip-rule:evenodd;fill:none;stroke:#FFFFFF;stroke-width:0.8545;stroke-miterlimit:10;" d="
				M601.7,147.1c5.4-2.7,10.6-5.3,15.8-8c1.7-0.9,3.3-1.8,4.9-2.8c2.4-1.5,2.4-2.6-0.2-3.6c-6.3-2.5-12.7-4.9-19.1-7.3
				c-0.9-0.3-1.7-0.6-2.5-0.9c1.4-4.9,3.1-9.5,4-14.3c0.8-3.9,0.7-7.9,0.8-11.9c0-1-0.8-2.1-1-3.5c0.7,0.6,1.5,1.1,2,1.8
				c3.3,4.8,7,9.5,9.8,14.6c3.4,6.1,6,12.6,8.9,18.9c1.5,3.2,1.7,6.4,0.2,9.6c-2.4,5.2-5,10.4-7.5,15.7c-0.6,1.3-1.6,1.7-3.2,1.5
				c-2.4-0.4-4.9-0.3-7.3-0.6c-0.5,0-1.1-0.4-1.3-0.8C604.5,152.7,603.1,149.9,601.7,147.1z M618.8,124.4c0.3-0.2,0.5-0.3,0.8-0.5
				c-3.1-5.7-6.8-10.8-11.1-15.6c-0.2,0.2-0.5,0.4-0.7,0.5C611.5,114,615.2,119.2,618.8,124.4z"/>
			<path style="fill-rule:evenodd;clip-rule:evenodd;fill:none;stroke:#FFFFFF;stroke-width:0.8545;stroke-miterlimit:10;" d="
				M486.3,89.4c-5.1-0.4-8.6-2.2-9.7-7.4c-0.4-1.9-1.6-3.7-2.4-5.6c-1.1-2.2-2.3-2.8-4.6-1.9c-1.7,0.7-3.2,1.6-4.8,2.5
				c-2.3,1.3-2.5,1.3-4.1-1c1.1-1.1,2.9-2,3.1-3.2c0.2-1.2-1.2-2.7-2.2-4.6c3.1-1.3,6.4-2.6,9.7-4c0-0.2,0-0.4-0.1-0.6
				c-0.5,0-1-0.2-1.4-0.1c-2.5,0.9-5.1,1.8-7.5,2.9c-1.4,0.6-2.2,0.7-3.3-0.6c-3.5-4.4-5.8-9.5-8-14.9c4.1-0.8,7.8,0.3,11.3,1.5
				c12.9,4.6,22.6,12.8,28.4,25.4c0.5,1,0.5,1.6-0.3,2.5C487.9,82.9,486.3,85.8,486.3,89.4z"/>
			<path style="fill-rule:evenodd;clip-rule:evenodd;fill:none;stroke:#FFFFFF;stroke-width:0.8545;stroke-miterlimit:10;" d="
				M660,279c-0.7-7.3-5.2-11.2-9.8-15.1c-0.6-0.5-1.2-1.4-1.1-2c0.7-4.2,0.1-8.2-1.5-12.2c-0.6-1.5-0.2-2.3,1.1-3.2
				c2.2-1.5,4.1-3.4,6.1-5.1c0.4-0.3,0.9-0.8,1.4-0.8c4.7,0.1,9.4,0.2,14.1,0.3c2.7,0,2.8,0.2,2.3,2.7c-1.1,5.6-2.1,11.2-3.2,16.8
				c-0.1,0.7-0.4,1.4-0.8,2c-2.9,4.5-5.7,9.1-6.4,14.6C662.3,277.6,661.1,278.1,660,279z"/>
			<path style="fill-rule:evenodd;clip-rule:evenodd;fill:none;stroke:#FFFFFF;stroke-width:0.8545;stroke-miterlimit:10;" d="
				M700.6,175c1.4-3.3,2.5-6,3.7-8.7c2.4-5.4,4.5-10.9,7.2-16.1c4.2-8,3.5-15.7-0.1-23.5c-0.4-0.8-0.7-1.6-1.3-3
				c1.7,0.5,3,0.7,3.9,1.3c5.3,3.6,10.4,7.4,11.1,14.4c0.2,1.6,0.4,3.3-0.1,4.7c-3.3,9-6.9,18-10.3,27c-0.6,1.5-1.6,2.2-3.2,2.4
				C708,173.9,704.5,174.5,700.6,175z"/>
			<path style="fill-rule:evenodd;clip-rule:evenodd;fill:none;stroke:#FFFFFF;stroke-width:0.8545;stroke-miterlimit:10;" d="
				M717.8,172.3c1.4-3.3,2.5-6,3.7-8.7c2.4-5.4,4.5-10.9,7.2-16.1c4.2-8,3.5-15.7-0.1-23.5c-0.4-0.8-0.7-1.6-1.3-3
				c1.7,0.5,3,0.7,3.9,1.3c5.3,3.6,10.4,7.4,11.1,14.4c0.2,1.6,0.4,3.3-0.1,4.7c-4.4,12-7.6,19.9-10.3,27c-0.6,1.5-1.6,2.2-3.2,2.4
				C725.3,171.2,721.8,171.8,717.8,172.3z"/>
			<path style="fill-rule:evenodd;clip-rule:evenodd;fill:none;stroke:#FFFFFF;stroke-width:0.8545;stroke-miterlimit:10;" d="
				M669.7,209c-1.9-3.7-3.6-7.1-5.5-11c1.3,0.4,2.2,0.6,3.2,0.9c5,1.7,10,3.6,15.3,3c5.2-0.7,9.5,0.5,13.5,3.7
				c2.6,2.1,5.5,3.8,7.9,6.1c0.9,0.9,1.2,2.7,1.2,4.1c0.1,1.9-0.3,3.7-0.4,5.6c-0.1,2.4-2,3.7-4.4,2.8c-2.2-0.8-4.2-2-6.5-2.5
				c-2.2-0.5-4.5-0.4-6.8-0.7c-0.5-0.1-1.1-0.2-1.4-0.5c-3.5-3.5-6.9-7.1-10.4-10.5C673.8,208.5,672.3,206.1,669.7,209z
				 M672.7,206.9c3.4,1.1,10.7-1.1,12.4-3.8C680.9,204.4,677,205.6,672.7,206.9z"/>
			<path style="fill-rule:evenodd;clip-rule:evenodd;fill:none;stroke:#FFFFFF;stroke-width:0.8545;stroke-miterlimit:10;" d="
				M697.7,124.4c2,1.3,3.6,2.1,4.9,3.2c2.5,2,4.7,4.4,7.2,6.3c3.1,2.4,3.7,5.3,2.4,8.7c-2.2,5.6-4.6,11.1-7,16.6c-2,4.7-4,9.3-6,14
				c-0.5,1.3-1.2,1.8-2.6,1.6c-3.3-0.4-6.6-0.6-10.4-0.9c1.1-2,1.8-3.5,2.6-4.9c4.7-8.1,8.8-16.5,11.8-25.4c0.9-2.7,0.9-5.4,0-8.1
				c-0.9-2.9-1.7-5.8-2.5-8.8C697.9,126.2,697.9,125.7,697.7,124.4z"/>
			<path style="fill-rule:evenodd;clip-rule:evenodd;fill:none;stroke:#FFFFFF;stroke-width:0.8545;stroke-miterlimit:10;" d="
				M518,213.9c1.1-1.9,2-3.6,3-5.3c4.6-7.9,7.9-16.4,10.5-25.2c0.3-1.1,1.2-2.2,2.2-2.8c3.5-2.1,7.1-4,10.6-6c1.5-0.8,2-0.3,2.5,1.3
				c2.1,7.5,0.8,14.2-4.6,20c-3.2,3.5-6.3,7.1-9.5,10.5c-3.7,3.9-8.5,6-13.6,7.5C518.8,214,518.6,213.9,518,213.9z"/>
			<path style="fill-rule:evenodd;clip-rule:evenodd;fill:none;stroke:#FFFFFF;stroke-width:0.8545;stroke-miterlimit:10;" d="
				M621.6,135.2c-7.4,3.5-14.7,7.2-22.2,10.5c-4.3,1.9-9.6-0.5-11.9-4.6c-2.7-4.6-2.2-10.3,1.4-13.4c2.4-2.1,5.7-3,8.6-2.1
				c7.8,2.5,15.5,5.6,23.3,8.4c0.2,0.1,0.5,0.3,0.7,0.4C621.4,134.6,621.5,134.9,621.6,135.2z"/>
			<path style="fill-rule:evenodd;clip-rule:evenodd;fill:none;stroke:#FFFFFF;stroke-width:0.8545;stroke-miterlimit:10;" d="
				M537.9,225.9c1.2-5.1,2.5-10,3.6-15c0.9-4.1,1.4-8.3,2.1-12.4c0.2-1,0.6-1.9,1.1-2.8c1.2-2.2,2.6-4.4,3.9-6.5
				c0.2-0.4,0.3-1,0.6-1.1c3.2-1.4,6.5-2.8,9.8-4.1c0.3-0.1,1.3,0.9,1.4,1.5c0.8,5.1,0.4,9.9-1.5,14.9c-3.7,10-9.6,18.1-18.3,24.2
				c-0.6,0.4-1.2,0.8-1.8,1.2C538.5,225.8,538.3,225.8,537.9,225.9z"/>
			<path style="fill-rule:evenodd;clip-rule:evenodd;fill:none;stroke:#FFFFFF;stroke-width:0.8545;stroke-miterlimit:10;" d="
				M637.6,164.4c-7.6,4.4-15.2,9-22.9,13.3c-2.3,1.3-5.1,0.9-7.5-0.4c-7.5-4.2-7.2-13.1-2.3-17.6c1.4-1.3,3.1-1.9,5-1.6
				c9.1,1.7,18.3,3.5,27.4,5.2C637.4,163.7,637.5,164.1,637.6,164.4z"/>
			<path style="fill-rule:evenodd;clip-rule:evenodd;fill:none;stroke:#FFFFFF;stroke-width:0.8545;stroke-miterlimit:10;" d="
				M636.9,279.9c-0.4-0.4-1.2-0.9-1.4-1.5c-1.5-5.9-4.3-10.8-9.1-14.6c-0.4-0.3-0.5-0.8-0.7-1.3c-0.8-2.4-1.7-4.8-2.4-7.2
				c-0.2-0.7,0.1-1.6,0.2-2.4c0-0.3,0.4-0.5,0.5-0.7c1.7-3.6,4.2-4.9,8.3-3.6c2.4,0.8,5.2,0.3,7.8,0.6c0.8,0.1,1.9,0.6,2.2,1.2
				c2.3,5.5,3.9,11.1,0.1,16.8c-1,1.6-1.9,3.3-2.6,5C638.8,274.5,638,277,636.9,279.9z"/>
			<path style="fill-rule:evenodd;clip-rule:evenodd;fill:none;stroke:#FFFFFF;stroke-width:0.8545;stroke-miterlimit:10;" d="
				M507.5,45.2c1.1-2.7,2.7-3.4,4.7-2.8c10,2.6,20.1,5.1,30,7.9c4.1,1.1,8,2.9,12,4.4c2.5,0.9,3.1,3,1.5,5c-3.2,4-3.2,4-8.2,2.4
				c-7.3-2.3-14.7-4.5-22.1-6.6c-1.8-0.5-3.2-1.1-4.5-2.5c-1.9-2-4-3.8-6.2-5.5C512.8,46,510.8,44.1,507.5,45.2z"/>
			<path style="fill-rule:evenodd;clip-rule:evenodd;fill:none;stroke:#FFFFFF;stroke-width:0.8545;stroke-miterlimit:10;" d="
				M495.7,94.5c-0.4,0.4-0.6,0.6-0.9,0.8c-7,3.6-14,7.4-21.1,10.8c-4.2,2-8.6,0.5-10.7-3.6c-2-3.8-1.6-7.9,0.7-11.4
				c2.2-3.2,5.6-3.9,9.3-2.9c7,1.8,14,3.7,20.9,5.6C494.5,94,494.9,94.2,495.7,94.5z"/>
			<path style="fill-rule:evenodd;clip-rule:evenodd;fill:none;stroke:#FFFFFF;stroke-width:0.8545;stroke-miterlimit:10;" d="
				M406.2,148.6c1.8-3.1,3.5-6.1,5-8.6c5.2,1.4,9.8,2.5,14.3,3.8c0.6,0.2,1.4,0.9,1.6,1.5c1.3,5.6,2.5,11.2,3.8,16.7
				c0.3,1.4,0.1,2.5-0.8,3.6c-2.5,3-5.9,4.4-9.6,5.1c-2.2,0.4-4.4,0.9-6.6,1.3c-0.8,0.1-1.7,0-2.6,0c0.1-0.5,0-0.7,0.1-0.7
				c5-1.7,5.5-5.9,5.8-10.2c0.2-2.9,0.1-5.8,0.1-8.7c-0.1-2.2-0.5-4.6-2.5-5.7c-2.2-1.2-4.3,0.2-6.2,1.5c-0.5,0.3-0.9,0.7-1.4,1
				C406.7,148.9,406.4,148.8,406.2,148.6z"/>
			<path style="fill-rule:evenodd;clip-rule:evenodd;fill:none;stroke:#FFFFFF;stroke-width:0.8545;stroke-miterlimit:10;" d="
				M647.5,301.6c-3.8-4.9-5.7-10.1-6.7-15.8c0-0.2,0-0.5-0.1-0.6c-3-7.4,0.9-13.1,4.4-19c1-1.7,2.5-1.9,3.9-0.9
				c3.6,2.6,6.9,5.6,8.5,9.9c0.7,1.8,0.5,3.3-0.7,4.9C652.1,286.5,649.1,293.5,647.5,301.6z"/>
			<path style="fill-rule:evenodd;clip-rule:evenodd;fill:none;stroke:#FFFFFF;stroke-width:0.8545;stroke-miterlimit:10;" d="
				M521.2,87.6c-8.5,4.4-15.5,11.3-25.8,10.3c0-0.4-0.1-0.5-0.1-0.6c0.7-1.1,1.4-2.2,2.1-3.2c-1.1-0.7-2.1-1.5-3.2-2.1
				c-1-0.5-2.1-0.7-3.1-1c-3.4-1-3.4-1.1-2.5-4.5c1.3-4.9,6.5-8.4,11.2-7.3C507.1,80.9,513.9,84.1,521.2,87.6z"/>
			<path style="fill-rule:evenodd;clip-rule:evenodd;fill:none;stroke:#FFFFFF;stroke-width:0.8545;stroke-miterlimit:10;" d="
				M713.9,232.6c-3.7,1.4-6.9,2.7-10.1,3.9c-2.8,1.1-5.7,2.2-8.5,3.3c-4.9,2.1-9.9,0.6-12.7-3.8c-1.7-2.6,0-9.7,2.5-11.6
				c2.8-2.1,5.5-2.2,8.6-0.9c6,2.6,12,5.2,17.9,7.8C712.3,231.6,712.9,232,713.9,232.6z"/>
			<path style="fill-rule:evenodd;clip-rule:evenodd;fill:none;stroke:#FFFFFF;stroke-width:0.8545;stroke-miterlimit:10;" d="
				M670.9,262.7c1.1,1.2,2.1,2,2.6,3c1.9,4.1,4,8.2,5.3,12.6c0.6,1.8-0.1,4.2-0.7,6.2c-1.4,5-3,9.9-4.8,14.8c-4-5.9-7.3-11.9-9-18.7
				c-0.5-1.9-0.2-4.2,0.3-6.2C665.9,270.2,668.1,266.5,670.9,262.7z"/>
			<path style="fill-rule:evenodd;clip-rule:evenodd;fill:none;stroke:#FFFFFF;stroke-width:0.8545;stroke-miterlimit:10;" d="
				M546.3,92.1c-1.9,0.9-3.2,1.5-4.5,2c-4.8,1.8-9.7,3.5-14.5,5.2c-4.3,1.5-7.6-0.5-10.5-3.5c-1.3-1.4-1-2.9,0.6-3.9
				c1.5-1,3.1-1.8,4.6-2.9c1.5-1.1,1.4-2.3-0.2-3.3c-0.6-0.3-1.2-0.6-1.8-0.8c-0.6-0.3-1.1-0.5-1.7-0.8c1.9-2.9,6.1-4.5,8.7-3.1
				C533.3,84.5,539.5,88.2,546.3,92.1z"/>
			<path style="fill-rule:evenodd;clip-rule:evenodd;fill:none;stroke:#FFFFFF;stroke-width:0.8545;stroke-miterlimit:10;" d="
				M536.6,234.7c-4.9,3.9-9.5,7.6-14.1,11.2c-0.3,0.2-0.7,0.4-1,0.4c-3.1-1.3-4.5,1.1-6,3c-0.2,0.3-0.4,0.6-0.7,1
				c-1.2-1.1-2.2-2.1-3.3-3c-1-0.7-0.8-1.3-0.5-2.4c1.2-3.4,2.1-6.8,3-10.3c0.2-0.8-0.1-1.9-0.4-2.7c-0.7-1.9,0.1-2.7,1.8-3.1
				c0.7-0.2,1.6-0.3,2-0.7c2-2,4.2-1.5,6.4-0.5c3.5,1.6,6.9,3.4,10.3,5.2C535.1,233.1,535.7,233.9,536.6,234.7z"/>
			<path style="fill-rule:evenodd;clip-rule:evenodd;fill:none;stroke:#FFFFFF;stroke-width:0.8545;stroke-miterlimit:10;" d="
				M416.5,183.6c4,0.7,7.4,1.3,11,2c0,10.5,0,21.1,0,31.7c-0.3-0.1-0.8-0.3-1.1-0.6c-5.8-4.9-10.1-10.8-11.1-18.5
				c-0.3-2.2-1.2-4.5-0.9-6.6C414.6,188.7,415.8,186,416.5,183.6z"/>
			<path style="fill-rule:evenodd;clip-rule:evenodd;fill:none;stroke:#FFFFFF;stroke-width:0.8545;stroke-miterlimit:10;" d="
				M394.1,178.5c0.4-1.9,0.6-3.3,1.1-4.6c2.6-7.7,5.4-15.4,11-21.5c1.4-1.5,3-2.7,4.7-3.8c2.1-1.3,3.6-0.7,3.9,1.8
				c0.4,3.6,0.2,7.2,0.3,10.8c0.2,5.2-2.6,7.5-7.3,9.2c-4.3,1.6-8.2,4.6-12.2,7C395.3,177.7,395,178,394.1,178.5z"/>
			<path style="fill-rule:evenodd;clip-rule:evenodd;fill:none;stroke:#FFFFFF;stroke-width:0.8545;stroke-miterlimit:10;" d="
				M406.8,208.3c-3-4.4-4-9.3-4.6-14.4c-0.8-6.5,0-12.8,1.9-18.9c0.4-1.3,2.5-2.1,4-2.8c0.4-0.2,1.5,0.7,2.1,1.3
				c1.7,1.8,3.4,3.6,4.9,5.5c0.4,0.5,0.7,1.5,0.5,2c-3.5,8.5-6.2,17.3-8.3,26.3C407.2,207.7,407,207.9,406.8,208.3z"/>
			<path style="fill-rule:evenodd;clip-rule:evenodd;fill:none;stroke:#FFFFFF;stroke-width:0.8545;stroke-miterlimit:10;" d="
				M563.1,156.6c-0.6,8.7-1.8,16.9-4.8,24.7c-0.2,0.4-0.6,0.8-1,1c-2.4,1.1-4.9,2-7.3,3c-2-7-1.1-13.8,1.1-20.5
				c0.2-0.6,0.5-1.3,0.5-1.9c0-3.5,2.1-4.8,5.2-5.2C558.8,157.6,560.8,157.1,563.1,156.6z"/>
			<path style="fill-rule:evenodd;clip-rule:evenodd;fill:none;stroke:#FFFFFF;stroke-width:0.8545;stroke-miterlimit:10;" d="
				M572.3,156c3.5-1.3,6.6-2.5,9.9-3.8c1.7,2.5,2.2,5.6,1.7,8.8c-1.1,8.5-2.3,17.1-3.6,25.6c-0.7,4.4-2.8,7.2-7.5,10.5
				c0.2-3.1,0.1-5.9,0.6-8.6c1.2-6.6,2.7-13.2,4-19.8c0.6-3.2-0.7-6.1-2.5-8.8C574,158.7,573.1,157.3,572.3,156z"/>
			<path style="fill-rule:evenodd;clip-rule:evenodd;fill:none;stroke:#FFFFFF;stroke-width:0.8545;stroke-miterlimit:10;" d="
				M616,296.4c-0.3-6,0.1-11.9,2.2-17.4c1.6-4.2,3.9-8.1,6-12.1c0.8-1.7,2-2,3-0.3c2.1,3.4,4.2,6.9,6.2,10.4
				c0.9,1.5,0.4,2.7-1.1,3.8c-3,2.2-5.9,4.5-8.5,7.1C621,290.6,618.7,293.4,616,296.4z"/>
			<path style="fill-rule:evenodd;clip-rule:evenodd;fill:none;stroke:#FFFFFF;stroke-width:0.8545;stroke-miterlimit:10;" d="
				M429.5,187.8c4.4,0.2,8.8,0.4,13.4,0.6c-1.3,9.1-3.2,18.1-1.8,27.4C433.7,213.8,427.3,197.9,429.5,187.8z"/>
			<path style="fill-rule:evenodd;clip-rule:evenodd;fill:none;stroke:#FFFFFF;stroke-width:0.8545;stroke-miterlimit:10;" d="
				M488,269.5c0.1-0.8,0.1-1.6,0.3-2.2c2.5-6.1,5-12.2,10.5-16.5c1.8-1.4,3.4-2.9,5.1-4.4c0.9-0.9,1.8-1,2.9-0.1
				c1.8,1.4,3.7,2.7,5.6,4.1c1,0.7,1.1,1.5,0.2,2.5c-1.6,1.9-2.9,4-4.4,5.9c-0.6,0.8-1.5,1.4-2.3,1.8
				C500,263.5,494.1,266.4,488,269.5z"/>
			<path style="fill-rule:evenodd;clip-rule:evenodd;fill:none;stroke:#FFFFFF;stroke-width:0.8545;stroke-miterlimit:10;" d="
				M578.2,66c2,1.2,4.1,2.3,6,3.6c5.7,4.1,10.5,9.1,14.9,14.6c2.8,3.4,2,7.4,1.9,11.2c0,0.2-1.3,0.7-1.5,0.5c-1-0.7-1.9-1.6-2.6-2.6
				c-4.1-5.6-9.6-9.8-14.9-14.2c-0.5-0.4-1.3-1-1.3-1.6c-0.1-3.9-0.9-7.7-2.9-11.1C577.8,66.3,578,66.1,578.2,66z"/>
			<path style="fill-rule:evenodd;clip-rule:evenodd;fill:none;stroke:#FFFFFF;stroke-width:0.8545;stroke-miterlimit:10;" d="
				M619.8,184.3c-0.9-1.9-1.8-3.7-2.7-5.4c6-3.6,11.8-7.2,17.7-10.7c0.8,1.6,1.6,3.1,2.4,4.7c0.7,1.6,1.9,2.2,3.6,2.3
				c1.9,0.1,3.9,0.2,5.8,0.5c0.5,0.1,1.1,0.5,1.3,0.9c1,2.2,1.8,4.5,2.8,6.9C640.2,178.2,630,178,619.8,184.3z"/>
			<path style="fill-rule:evenodd;clip-rule:evenodd;fill:none;stroke:#FFFFFF;stroke-width:0.8545;stroke-miterlimit:10;" d="
				M528.3,166.1c0.4,1.2,0.8,2.3,1.1,3.5c0.6,2.5,1.1,4.9,1.7,7.4c0.4,1.7,0.5,3.5-1,4.6c-5.2,3.8-10.4,7.5-15.9,11.4
				C513.2,185.5,522.2,168.8,528.3,166.1z"/>
			<path style="fill-rule:evenodd;clip-rule:evenodd;fill:none;stroke:#FFFFFF;stroke-width:0.8545;stroke-miterlimit:10;" d="
				M563,192.3c-0.9-4.7-0.8-8.9,0.6-13.3c2.1-6.4,3.5-13.1,5.3-20c0.5,0.5,1.1,1.1,1.6,1.7c4,5.2,3,11,2,16.7
				c-0.5,2.9-1.6,5.7-2.3,8.6c-0.4,1.6-1.1,2.7-2.6,3.4C566,190.1,564.6,191.2,563,192.3z"/>
			<path style="fill-rule:evenodd;clip-rule:evenodd;fill:none;stroke:#FFFFFF;stroke-width:0.8545;stroke-miterlimit:10;" d="
				M505.4,268.8c0.3-0.8,0.5-1.5,0.7-2.1c2.7-7,7.5-12.6,12.3-18.1c0.5-0.5,2.2-0.7,2.5-0.3c2.5,2.6,4.9,5.3,7.1,8.1
				c0.9,1.1,0.5,2.2-0.9,2.8c-0.7,0.3-1.3,0.6-2,0.9c-6.7,2.1-13.1,4.8-18.9,8.6C506.2,268.8,505.9,268.8,505.4,268.8z"/>
			<path style="fill-rule:evenodd;clip-rule:evenodd;fill:none;stroke:#FFFFFF;stroke-width:0.8545;stroke-miterlimit:10;" d="
				M434.1,167.9c-1.9-8-3.6-15.7-5.4-23.4c4.1,0,7.9,0,11.2,0c0.6,5.7,1.1,11.1,1.6,16.5c0,0.4,0,1-0.2,1.2
				C439.4,164.4,437.6,166.7,434.1,167.9z"/>
			<path style="fill-rule:evenodd;clip-rule:evenodd;fill:none;stroke:#FFFFFF;stroke-width:0.8545;stroke-miterlimit:10;" d="
				M506.7,129c0.9,5.8,1.8,11.1,2.7,16.8c-4.3-0.5-8-0.9-11.8-1.3c-1.7-0.2-3.4-0.8-5.1-0.9c-2.4-0.1-2.9-1.5-2.9-3.4
				c0-0.6,0.3-1.5,0.8-1.7C495.6,135.3,500.9,132.3,506.7,129z"/>
			<path style="fill-rule:evenodd;clip-rule:evenodd;fill:none;stroke:#FFFFFF;stroke-width:0.8545;stroke-miterlimit:10;" d="
				M629.2,138c0.6,0.5,1.4,0.9,1.7,1.6c4.9,9.8,9.8,19.6,14.6,29.4c0.3,0.6,0.3,1.3,0.5,2c-4.9,0.5-6.3-0.4-8-5
				c0.3-0.2,0.7-0.5,1-0.7c1.6-1,1.3-2.3-0.1-2.8c-4.3-1.4-5.7-5.3-7.8-8.6c-1-1.6-2.3-3-3.2-4.6c-0.4-0.7-0.5-1.9-0.3-2.7
				c0.9-2.7,2.3-5.2,0.9-8.2C628.8,138.3,629,138.1,629.2,138z"/>
			<path style="fill-rule:evenodd;clip-rule:evenodd;fill:none;stroke:#FFFFFF;stroke-width:0.8545;stroke-miterlimit:10;" d="
				M506.1,127.7c-5.7,3.3-11.2,6.4-16.9,9.7c-0.5-3.7-1-7-1.5-10.4c0-0.4,0-0.7-0.1-1.1c-0.9-2.7-0.1-4.6,2.6-6
				c4,2.3,8.3,4.1,13.2,2.8C504.3,124.4,505.1,126,506.1,127.7z"/>
			<path style="fill-rule:evenodd;clip-rule:evenodd;fill:none;stroke:#FFFFFF;stroke-width:0.8545;stroke-miterlimit:10;" d="
				M508.3,157.9c0,5.3,0,10.5,0,16.2c-7.4-1.8-14.5-3.6-22-5.4c0.6-0.7,0.9-1.2,1.3-1.4C494.6,164.1,501.5,161,508.3,157.9z"/>
			<path style="fill-rule:evenodd;clip-rule:evenodd;fill:none;stroke:#FFFFFF;stroke-width:0.8545;stroke-miterlimit:10;" d="
				M575.5,121c-4.7-2.3-9.2-4.5-13.6-6.7c0.3-3,0.6-6.4,0.9-9.7c0.1-1.2,0.6-1.7,1.6-1.3c3.7,1.4,7.4,3,11,4.5
				c0.4,0.2,0.8,0.9,0.8,1.4C576,113.3,575.7,117.3,575.5,121z"/>
			<path style="fill-rule:evenodd;clip-rule:evenodd;fill:none;stroke:#FFFFFF;stroke-width:0.8545;stroke-miterlimit:10;" d="
				M553.7,214.9c4-6.1,6.4-12.8,8.8-19.5c0.3-0.8,1.4-1.4,2.2-2c1.9-1.2,3.8-2.4,6.1-3.8c0.5,3.9,1.2,7.1-0.8,10.1
				C565.7,206,560.4,211.2,553.7,214.9z"/>
			<path style="fill-rule:evenodd;clip-rule:evenodd;fill:none;stroke:#FFFFFF;stroke-width:0.8545;stroke-miterlimit:10;" d="
				M496.7,241.4c1.4-1.6,2.5-3.1,3.8-4.5c1.4-1.5,1.4-2.9,0.3-4.5c-1.1-1.6-2.1-3.3-3.2-5c3.3,1,6.4,1.7,9.4,2.8
				c1.7,0.6,3,5.8,2.1,7.7c-0.7,1.4-1.2,2.9-2.1,4.3c-0.4,0.6-1.2,1-1.8,1.5c-0.2,0.1-0.4,0.1-0.6,0.2c-1.2,0.5-2.7,1.8-3.4,1.4
				C499.5,244.4,498.2,242.8,496.7,241.4z"/>
			<path style="fill-rule:evenodd;clip-rule:evenodd;fill:none;stroke:#FFFFFF;stroke-width:0.8545;stroke-miterlimit:10;" d="
				M480.3,263.3c3-8.7,9.2-14.4,15.9-19.9c1.3,1.2,2.5,2.4,3.9,3.7c-1.3,1.2-2.7,2.3-3.8,3.6c-2.1,2.5-4,5.3-6,7.8
				c-0.6,0.8-1.3,1.6-2.2,2C485.6,261.6,483.1,262.3,480.3,263.3z"/>
			<path style="fill-rule:evenodd;clip-rule:evenodd;fill:none;stroke:#FFFFFF;stroke-width:0.8545;stroke-miterlimit:10;" d="
				M529.3,184.8c-2.3,6-4.5,11.5-6.9,17.6c-2.4-3.2-4.5-5.9-6.5-8.7C520.4,190.8,524.6,188,529.3,184.8z"/>
			<path style="fill-rule:evenodd;clip-rule:evenodd;fill:none;stroke:#FFFFFF;stroke-width:0.8545;stroke-miterlimit:10;" d="
				M436.4,95c2.1-2.5,3.6-2.4,5.3,0.2c1.3,2,0.9,4,0.2,6.1c-1.9,5.3-7.8,7-13.5,3.9c0.7-1.1,1.5-2.2,2.2-3.3
				c3.3,1.9,6.2,1.7,7.7-0.4C439.9,99.2,439.4,97.5,436.4,95z"/>
			<path style="fill-rule:evenodd;clip-rule:evenodd;fill:none;stroke:#FFFFFF;stroke-width:0.8545;stroke-miterlimit:10;" d="
				M680.1,233.8c-1.4-0.7-7.1-14.4-7.8-18.7c1.2,0.9,2.2,1.5,3.1,2.3c1.6,1.4,3.2,2.9,4.8,4.4c1.3,1.2,1.6,2.6,1.1,4.5
				C680.7,228.7,680.5,231.2,680.1,233.8z"/>
			<path style="fill-rule:evenodd;clip-rule:evenodd;fill:none;stroke:#FFFFFF;stroke-width:0.8545;stroke-miterlimit:10;" d="
				M530.5,211.8c3.7-3.8,7.4-7.5,10.9-11.1c-0.2,1.3-0.4,3.2-0.6,5c-0.1,0.7-0.2,1.4-0.4,2.1c-0.5,1.7-0.9,4.7-1.8,4.9
				C535.7,213.4,532.6,213.4,530.5,211.8z"/>
			<path style="fill-rule:evenodd;clip-rule:evenodd;fill:none;stroke:#FFFFFF;stroke-width:0.8545;stroke-miterlimit:10;" d="
				M621.6,158.1c1.3-2.2,2.4-4,3.7-6.4c1.9,2.8,3.5,5.3,5.1,7.8c-0.1,0.2-0.3,0.3-0.4,0.5C627.4,159.4,624.7,158.8,621.6,158.1z"/>
			<path style="fill-rule:evenodd;clip-rule:evenodd;fill:none;stroke:#FFFFFF;stroke-width:0.8545;stroke-miterlimit:10;" d="
				M411.5,130.8c2.1-0.8,3.8-1.4,6-2.2c-0.2,2.6-0.4,4.8-0.6,7c-0.2,0.1-0.5,0.2-0.7,0.3C414.7,134.3,413.3,132.8,411.5,130.8z"/>
			<path style="fill-rule:evenodd;clip-rule:evenodd;fill:none;stroke:#FFFFFF;stroke-width:0.8545;stroke-miterlimit:10;" d="
				M531.7,214.6c2.2,0.1,4.5,0.2,7,0.4c-0.5,1.9-0.9,3.6-1.3,5.3c-2-1.8-4-3.6-5.9-5.3C531.5,214.8,531.6,214.7,531.7,214.6z"/>
			<path style="fill-rule:evenodd;clip-rule:evenodd;fill:none;stroke:#FFFFFF;stroke-width:0.8545;stroke-miterlimit:10;" d="
				M427.5,125.8c1.3-1.6,2.3-3,3.4-4.3c0.1-0.2,0.7,0,1.3,0c0,2.6,0,5,0,8C430.4,128.1,429,127,427.5,125.8z"/>
			<path style="fill-rule:evenodd;clip-rule:evenodd;fill:none;stroke:#FFFFFF;stroke-width:0.8545;stroke-miterlimit:10;" d="
				M419.3,128.2c1.8-0.5,3.4-0.8,5.1-1.3c0,2.2,0,4.2,0,6.8C421.9,132.2,420.6,130.4,419.3,128.2z"/>
			<path style="fill-rule:evenodd;clip-rule:evenodd;fill:none;stroke:#FFFFFF;stroke-width:0.8545;stroke-miterlimit:10;" d="
				M426,132.6c0-2.3,0-4.2,0-6.4c1.7,1.5,3.1,2.7,4.8,4.1C429.2,131.1,427.7,131.8,426,132.6z"/>
			<path style="fill-rule:evenodd;clip-rule:evenodd;fill:none;stroke:#FFFFFF;stroke-width:0.8545;stroke-miterlimit:10;" d="
				M622.4,244.7c-0.5,1.4-0.9,2.5-1.3,3.7c-0.2,0.1-0.5,0.2-0.7,0.3c-1.2-1.9-2.3-3.8-3.5-5.7c0.2-0.1,0.3-0.3,0.5-0.4
				C619,243.2,620.6,243.9,622.4,244.7z"/>
			<path style="fill-rule:evenodd;clip-rule:evenodd;fill:none;stroke:#FFFFFF;stroke-width:0.8545;stroke-miterlimit:10;" d="
				M434,128.6c-0.2-2.2-0.3-4-0.5-6.4c1.8,1.3,3.2,2.4,4.9,3.7C436.9,126.8,435.6,127.6,434,128.6z"/>
			<path style="fill-rule:evenodd;clip-rule:evenodd;fill:none;stroke:#FFFFFF;stroke-width:0.8545;stroke-miterlimit:10;" d="
				M422.2,134.1c-1.4,0.5-2.6,0.8-3.9,1.3c0.2-1.7,0.3-3.2,0.5-4.9C420,131.6,421,132.7,422.2,134.1z"/>
			<path style="fill-rule:evenodd;clip-rule:evenodd;fill:none;stroke:#FFFFFF;stroke-width:0.8545;stroke-miterlimit:10;" d="
				M436.1,122.5c0.7-0.3,1-0.5,1.2-0.5c0.8-0.2,1.7-0.4,2.7-0.6c0,1.1,0,2.2,0,3.7C438.6,124.2,437.6,123.5,436.1,122.5z"/>
			<path style="fill-rule:evenodd;clip-rule:evenodd;fill:none;stroke:#FFFFFF;stroke-width:0.8545;stroke-miterlimit:10;" d="
				M410.3,131.2c1.5,1.8,2.6,3.2,3.9,4.8C410.9,136.2,410.9,136.2,410.3,131.2z"/>
			<path style="fill-rule:evenodd;clip-rule:evenodd;fill:none;stroke:#FFFFFF;stroke-width:0.8545;stroke-miterlimit:10;" d="
				M583.8,133.4c-1-1.8-1.9-3.3-2.7-4.8C584.2,129.1,584.7,129.9,583.8,133.4z"/>
			<path style="fill-rule:evenodd;clip-rule:evenodd;fill:none;stroke:#FFFFFF;stroke-width:0.8545;stroke-miterlimit:10;" d="
				M444.2,121.8c-0.7,0.6-1.5,1.1-2.2,1.7c-0.2-0.1-0.4-0.1-0.6-0.2c0.2-0.8,0.2-1.8,0.7-2.3c0.3-0.4,1.3-0.1,2-0.1
				C444.2,121.2,444.2,121.5,444.2,121.8z"/>
		</g>
	</g>
</g>
<g id="Text">
	<polygon style="fill-rule:evenodd;clip-rule:evenodd;fill:#FFFFFF;" points="705.7,365.9 94,365.9 120.8,242.9 732.5,242.9 	"/>
	<g>
		<path style="fill:#414142;" d="M141.1,321.7v-37.4c0-1.1,0.8-1.9,1.9-1.9h14.8c17,0,17,26.2,0,26.2h-5.4v13.1c0,2.5-3.8,2.5-3.8,0
			v-15c0-1,0.9-1.9,1.9-1.9h7.3c12.1,0,12.1-18.8,0-18.8h-12.9v35.6C144.9,324.1,141.1,324.1,141.1,321.7z M153.1,299.2
			c0-2.3,2.5-1.9,4-1.9c2.6,0,2.6-3.8,0-3.8h-6.6c-2.5,0-2.5-3.8,0-3.8h6.6c7.5,0,7.5,11.2,0,11.2
			C155.6,301,153.1,301.4,153.1,299.2z"/>
		<path style="fill:#414142;" d="M216.4,298.8c-1,0.3-2.1-0.2-2.4-1.2c-1.2-3.6-3.4-6.7-6.5-8.9c-2.9-2.1-6.6-3.4-10.6-3.4
			c-23.4,0-23.4,35.2,0,35.2c4,0,7.6-1.2,10.6-3.4c3.1-2.2,5.3-5.3,6.5-8.9c0.3-1,1.4-1.5,2.4-1.2c1,0.3,1.5,1.4,1.2,2.4
			c-1.4,4.4-4.2,8.2-7.9,10.8c-3.7,2.6-8,4.2-12.9,4.2c-28.5,0-28.5-42.9,0-42.9c4.8,0,9.2,1.5,12.9,4.1c3.7,2.7,6.5,6.5,7.9,10.9
			C217.9,297.4,217.4,298.5,216.4,298.8z M186,307c1-0.5,2.1-0.2,2.6,0.7c0.9,1.5,2.1,2.8,3.6,3.5c1.3,0.8,3,1.3,4.7,1.3
			c2.7,0,5.1-1.1,6.8-2.9c1.8-1.7,2.9-4.2,2.9-7c0-2.7-1.1-5.2-2.9-6.9c-1.7-1.7-4.1-2.9-6.8-2.9c-1.7,0-3.3,0.4-4.7,1.3
			c-1.5,0.8-2.7,2.1-3.6,3.5c-0.5,1-1.6,1.3-2.6,0.8c-0.9-0.5-1.2-1.7-0.7-2.6c1.2-2.1,2.9-3.8,4.9-5c2-1.2,4.3-1.8,6.7-1.8
			c3.8,0,7.1,1.5,9.6,4c2.4,2.5,3.9,5.8,3.9,9.6c0,3.8-1.5,7.1-3.9,9.6c-2.5,2.5-5.8,4-9.6,4c-2.4,0-4.7-0.7-6.7-1.8
			c-2-1.2-3.7-3-4.9-5.1C184.7,308.7,185.1,307.6,186,307z"/>
		<path style="fill:#414142;" d="M227.1,323.6c-1,0-1.9-0.8-1.9-1.9v-37.6c0-1,0.8-1.9,1.9-1.9c1.1,0,1.9,0.8,1.9,1.9v37.6
			C229,322.7,228.2,323.6,227.1,323.6z M244.3,282.6c0.9,0.6,1.1,1.7,0.5,2.6l-8.7,12.4c-0.6,0.8-1.7,1.1-2.6,0.4
			c-0.6-0.4-0.8-1-0.8-1.6v-12.3c0-1,0.8-1.9,1.9-1.9c1.1,0,1.9,0.8,1.9,1.9v6.4l5.2-7.5C242.3,282.2,243.5,282,244.3,282.6z
			 M244.3,323.2c-0.8,0.6-2,0.4-2.6-0.4l-5.2-7.5v6.4c0,1-0.8,1.9-1.9,1.9c-1,0-1.9-0.8-1.9-1.9v-12.3c0-1.9,2.4-2.6,3.4-1.1
			l8.7,12.3C245.4,321.5,245.2,322.6,244.3,323.2z M253.5,282.6c0.9,0.6,1.1,1.7,0.5,2.6l-12.4,17.7l12.4,17.7
			c0.6,0.9,0.4,2-0.5,2.6c-0.8,0.6-2,0.4-2.6-0.4L237.8,304c-0.4-0.6-0.4-1.5,0-2.2l13.1-18.8C251.5,282.2,252.6,282,253.5,282.6z"
			/>
		<path style="fill:#414142;" d="M282.8,321.7c0,1-0.8,1.9-1.9,1.9h-19.4c-1,0-1.9-0.8-1.9-1.9v-37.6c0-1,0.8-1.9,1.9-1.9h19.4
			c1.1,0,1.9,0.8,1.9,1.9c0,1.1-0.8,1.9-1.9,1.9h-17.5v33.8h17.5C282,319.8,282.8,320.6,282.8,321.7z M282.8,291.6
			c0,1-0.8,1.9-1.9,1.9h-10.1v3.8h6.6c1.1,0,1.9,0.8,1.9,1.9c0,1-0.8,1.9-1.9,1.9H269c-1.1,0-1.9-0.8-1.9-1.9v-7.5
			c0-1.1,0.8-1.9,1.9-1.9h11.9C282,289.8,282.8,290.6,282.8,291.6z M279.3,306.7c0,1.1-0.8,1.9-1.9,1.9h-6.6v3.7h10.1
			c1.1,0,1.9,0.8,1.9,1.9c0,1-0.8,1.9-1.9,1.9H269c-1.1,0-1.9-0.8-1.9-1.9v-7.5c0-1,0.8-1.9,1.9-1.9h8.4
			C278.5,304.8,279.3,305.6,279.3,306.7z M274,271c0.8-0.7,2-0.7,2.8-0.1c0.6,0.7,0.6,1.7,0.1,2.4l-6.1,5.6
			c-0.8,0.7-1.9,0.8-2.7,0.1c-0.8-0.6-0.8-1.7-0.1-2.3L274,271z"/>
		<path style="fill:#414142;" d="M292.2,323.6c-1.1,0-1.9-0.8-1.9-1.9v-38.1c0-1.1,0.8-1.9,1.9-1.9c1.1,0,1.9,0.8,1.9,1.9v38.1
			C294.2,322.7,293.3,323.6,292.2,323.6z M324.1,282c0.8,0.6,1,1.8,0.4,2.6l-11.9,17.1c-0.6,0.9-1.9,1.1-2.7,0.4
			c-0.2-0.1-0.3-0.3-0.4-0.5l-11.9-17c-0.6-0.8-0.4-2,0.4-2.6c0.8-0.6,2.1-0.4,2.7,0.4l10.3,14.9l10.4-14.9
			C322,281.6,323.2,281.4,324.1,282z M322.3,323.6c-1.1,0-1.9-0.8-1.9-1.9V304l-7.7,11.1c-0.6,0.8-1.9,1.1-2.7,0.5
			c-0.2-0.2-0.3-0.3-0.4-0.5l-7.7-11.1v17.7c0,1.1-0.8,1.9-2,1.9c-1,0-1.9-0.8-1.9-1.9v-23.8c0-0.6,0.3-1.2,0.8-1.5
			c0.8-0.6,2.1-0.4,2.7,0.4l9.6,13.8l9.7-13.8c0.3-0.5,0.9-0.8,1.6-0.8c1.1,0,1.9,0.8,1.9,1.9v23.8
			C324.2,322.7,323.3,323.6,322.3,323.6z M329.8,323.6c-1,0-1.9-0.8-1.9-1.9v-38.1c0-1.1,0.8-1.9,1.9-1.9c1.1,0,2,0.8,2,1.9v38.1
			C331.8,322.7,331,323.6,329.8,323.6z"/>
		<path style="fill:#414142;" d="M380.4,298.8c-1,0.3-2.1-0.2-2.4-1.2c-1.2-3.6-3.4-6.7-6.5-8.9c-2.9-2.1-6.6-3.4-10.6-3.4
			c-23.4,0-23.4,35.2,0,35.2c4,0,7.6-1.2,10.6-3.4c3.1-2.2,5.3-5.3,6.5-8.9c0.3-1,1.4-1.5,2.4-1.2c1,0.3,1.5,1.4,1.2,2.4
			c-1.4,4.4-4.2,8.2-7.9,10.8c-3.7,2.6-8,4.2-12.9,4.2c-28.5,0-28.5-42.9,0-42.9c4.8,0,9.2,1.5,12.9,4.1c3.7,2.7,6.5,6.5,7.9,10.9
			C381.9,297.4,381.4,298.5,380.4,298.8z M349.9,307c1-0.5,2.1-0.2,2.6,0.7c0.9,1.5,2.1,2.8,3.6,3.5c1.3,0.8,3,1.3,4.7,1.3
			c2.7,0,5.1-1.1,6.8-2.9c1.8-1.7,2.9-4.2,2.9-7c0-2.7-1.1-5.2-2.9-6.9c-1.7-1.7-4.1-2.9-6.8-2.9c-1.7,0-3.3,0.4-4.7,1.3
			c-1.5,0.8-2.7,2.1-3.6,3.5c-0.5,1-1.6,1.3-2.6,0.8c-0.9-0.5-1.2-1.7-0.7-2.6c1.2-2.1,2.9-3.8,4.9-5c2-1.2,4.3-1.8,6.7-1.8
			c3.8,0,7.1,1.5,9.6,4c2.4,2.5,3.9,5.8,3.9,9.6c0,3.8-1.5,7.1-3.9,9.6c-2.5,2.5-5.8,4-9.6,4c-2.4,0-4.7-0.7-6.7-1.8
			c-2-1.2-3.7-3-4.9-5.1C348.7,308.7,349.1,307.6,349.9,307z"/>
		<path style="fill:#414142;" d="M391.1,323.6c-1,0-1.9-0.9-1.9-1.9v-37.6c0-1,0.8-1.8,1.9-1.8c1.1,0,1.9,0.8,1.9,1.8v37.6
			C392.9,322.7,392.1,323.6,391.1,323.6z M396.8,282.7c0.8-0.7,2-0.4,2.6,0.4l12.9,18.5v-17.5c0-1,0.9-1.8,1.9-1.8s1.9,0.8,1.9,1.8
			v23.4c0,0.6-0.3,1.2-0.8,1.6c-0.8,0.6-2,0.4-2.6-0.4l-16.3-23.4C395.7,284.3,396,283.2,396.8,282.7z M416,323.3
			c-0.9,0.6-2,0.3-2.6-0.5l-12.9-18.5v17.4c0,1-0.8,1.9-1.9,1.9c-1,0-1.8-0.8-1.8-1.9v-23.4c0-0.6,0.2-1.2,0.8-1.5
			c0.8-0.7,2-0.4,2.6,0.4l16.4,23.4C417,321.5,416.8,322.6,416,323.3z M421.7,323.6c-1,0-1.9-0.9-1.9-1.9v-37.6c0-1,0.8-1.8,1.9-1.8
			c1.1,0,1.9,0.8,1.9,1.8v37.6C423.6,322.7,422.8,323.6,421.7,323.6z"/>
		<path style="fill:#414142;" d="M444.8,321.1l11.4-19.6l-9.9-17.1c-1.2-2.1,2-3.9,3.2-1.9l10.4,18.1c0.4,0.6,0.4,1.2,0.1,1.9
			L448,322.9C446.7,325.1,443.6,323.2,444.8,321.1z M467.9,323.2l-5.7-9.8l-5.7,9.8c-1.3,2.1-4.4,0.3-3.3-1.9l7.4-12.6
			c0.7-1.2,2.5-1.2,3.1,0l7.4,12.6C472.3,323.5,469.1,325.3,467.9,323.2z M457.9,282.5l4.3,7.4l4.3-7.4c1.2-2.1,4.4-0.3,3.1,1.9
			l-5.9,10.2c-0.7,1.2-2.5,1.2-3.1,0l-5.9-10.2C453.5,282.3,456.7,280.4,457.9,282.5z M478.1,284.3l-9.9,17.1l11.4,19.6
			c1.2,2.1-2,4-3.2,1.9l-11.9-20.5c-0.4-0.6-0.4-1.3,0-1.9l10.4-18.1C476.2,280.4,479.4,282.3,478.1,284.3z"/>
		<path style="fill:#414142;" d="M495.6,324.2c-1.1,0-1.9-0.8-1.9-1.9V305l-12.8-20.5c-0.5-0.9-0.3-2,0.6-2.6c0.8-0.6,2-0.3,2.6,0.6
			l13,20.8c0.2,0.4,0.3,0.7,0.3,1.1v17.8C497.5,323.3,496.6,324.2,495.6,324.2z M490,284.5c-0.6-1-0.3-2.1,0.7-2.6
			c0.8-0.6,2-0.3,2.5,0.6l6.1,10.3l6.1-10.3c0.6-0.9,1.7-1.2,2.6-0.6c0.9,0.5,1.2,1.6,0.7,2.6l-7.6,12.8c-0.8,1.5-2.5,1.3-3.4-0.1
			L490,284.5z M517.2,281.9c0.8,0.6,1.1,1.7,0.6,2.6L505,305v17.3c0,1.1-0.9,1.9-1.9,1.9s-1.9-0.8-1.9-1.9v-17.8
			c0-0.3,0.1-0.7,0.3-1.1l13.2-21C515.2,281.5,516.3,281.3,517.2,281.9z"/>
	</g>
	<g>
		<g>
			<path style="fill:#414142;" d="M529.1,309.9v-13.5h-4.2V293h11.8v3.4h-4.2v13.5H529.1z"/>
			<path style="fill:#414142;" d="M546.8,292.7c11.6,0,11.6,17.4,0,17.4C535.2,310.1,535.2,292.7,546.8,292.7z M546.8,296.2
				c-6.8,0-6.8,10.4,0,10.4C553.5,306.7,553.5,296.2,546.8,296.2z"/>
			<path style="fill:#414142;" d="M558.6,304v-11h3.4v11c0,3.5,5.5,3.5,5.5,0v-11h3.4v11C570.8,312.1,558.6,312.1,558.6,304z"/>
			<path style="fill:#414142;" d="M582.9,309.9l-3.4-6.4h-1.6v6.4h-3.4V293h6.7c6,0,6.6,8.5,1.7,9.9l3.9,7H582.9z M577.9,300.2h3
				c2.3,0,2.3-3.8,0-3.8h-3V300.2z"/>
			<path style="fill:#414142;" d="M592.4,309.9H589v-17.2h0.9l8.5,9.9V293h3.4v17.2h-0.9l-8.6-9.5V309.9z"/>
			<path style="fill:#414142;" d="M611.2,292.4h0.4l7.1,17.5h-3.8l-0.7-1.8h-5.6l-0.7,1.8h-3.8L611.2,292.4z M613,304.9l-1.5-4.4
				l-1.6,4.4H613z"/>
			<path style="fill:#414142;" d="M635.5,292.8h1.1v17.1h-3.4l0-9.4l-4.3,4.5l-4.3-4.5v9.4h-3.4v-17.1h1.1l6.7,7.4L635.5,292.8z"/>
			<path style="fill:#414142;" d="M640.3,309.9V293h8.5v3.4h-5.1v3.4h4.4v3.4h-4.4v3.4h5.4v3.4H640.3z"/>
			<path style="fill:#414142;" d="M655.6,309.9h-3.4v-17.2h0.9l8.5,9.9V293h3.4v17.2h-0.9l-8.6-9.5V309.9z"/>
			<path style="fill:#414142;" d="M671.7,309.9v-13.5h-4.2V293h11.8v3.4H675v13.5H671.7z"/>
		</g>
	</g>
	<g>
		<g>
			<path style="fill:#414142;" d="M358.8,347.2h2.1l3.7,6.5v-6.5h1.8v9.4h-2l-3.8-6.7v6.7h-1.8V347.2z"/>
			<path style="fill:#414142;" d="M375.5,355.8c-0.7,0.7-1.7,1.1-3.1,1.1c-1.3,0-2.4-0.4-3.1-1.1c-1-0.9-1.4-2.2-1.4-3.9
				c0-1.7,0.5-3,1.4-3.9c0.7-0.7,1.7-1.1,3.1-1.1c1.3,0,2.4,0.4,3.1,1.1c0.9,0.9,1.4,2.2,1.4,3.9
				C376.9,353.6,376.4,354.9,375.5,355.8z M374.2,354.4c0.5-0.6,0.7-1.4,0.7-2.4c0-1.1-0.2-1.9-0.7-2.4c-0.5-0.6-1.1-0.9-1.9-0.9
				c-0.8,0-1.4,0.3-1.9,0.9c-0.5,0.6-0.7,1.4-0.7,2.4c0,1.1,0.2,1.9,0.7,2.4s1.1,0.9,1.9,0.9C373.2,355.2,373.8,354.9,374.2,354.4z"
				/>
			<path style="fill:#414142;" d="M383.9,347.2h2l-3.2,9.4h-1.9l-3.2-9.4h2.1l2,7.1L383.9,347.2z"/>
			<path style="fill:#414142;" d="M394,348.9h-5v2h4.6v1.6h-4.6v2.4h5.2v1.7h-7.1v-9.4h6.9V348.9z"/>
			<path style="fill:#414142;" d="M402,347.2h2.8v9.4H403v-6.3c0-0.2,0-0.4,0-0.8c0-0.3,0-0.6,0-0.8l-1.8,7.9h-1.9l-1.8-7.9
				c0,0.2,0,0.4,0,0.8c0,0.3,0,0.6,0,0.8v6.3h-1.8v-9.4h2.9l1.7,7.4L402,347.2z"/>
			<path style="fill:#414142;" d="M413.7,348.2c0.3,0.4,0.4,0.9,0.4,1.4c0,0.6-0.1,1-0.4,1.4c-0.2,0.2-0.4,0.4-0.7,0.5
				c0.5,0.2,0.8,0.4,1.1,0.8c0.2,0.4,0.4,0.8,0.4,1.4c0,0.6-0.1,1.1-0.4,1.5c-0.2,0.3-0.4,0.5-0.7,0.7c-0.3,0.2-0.7,0.4-1.1,0.5
				c-0.4,0.1-0.8,0.1-1.3,0.1h-4.2v-9.4h4.5C412.4,347.2,413.2,347.6,413.7,348.2z M408.6,348.9v2.1h2.3c0.4,0,0.7-0.1,1-0.2
				c0.3-0.2,0.4-0.4,0.4-0.8c0-0.4-0.2-0.7-0.5-0.9c-0.3-0.1-0.7-0.1-1.1-0.1H408.6z M408.6,352.5v2.5h2.3c0.4,0,0.7-0.1,1-0.2
				c0.4-0.2,0.6-0.6,0.6-1.2c0-0.5-0.2-0.8-0.6-1c-0.2-0.1-0.5-0.2-0.9-0.2H408.6z"/>
			<path style="fill:#414142;" d="M423,348.9h-5v2h4.6v1.6H418v2.4h5.2v1.7h-7.1v-9.4h6.9V348.9z"/>
			<path style="fill:#414142;" d="M430.8,347.5c0.3,0.1,0.6,0.4,0.9,0.7c0.2,0.2,0.4,0.5,0.5,0.8c0.1,0.3,0.2,0.6,0.2,1
				c0,0.4-0.1,0.9-0.3,1.3c-0.2,0.4-0.6,0.7-1.1,0.9c0.4,0.2,0.7,0.4,0.9,0.7s0.3,0.8,0.3,1.5v0.6c0,0.4,0,0.7,0.1,0.9
				c0.1,0.2,0.2,0.4,0.4,0.5v0.2h-2.2c-0.1-0.2-0.1-0.4-0.1-0.5c-0.1-0.3-0.1-0.5-0.1-0.8l0-0.9c0-0.6-0.1-1-0.3-1.2
				c-0.2-0.2-0.6-0.3-1.1-0.3h-1.9v3.7h-1.9v-9.4h4.5C429.9,347.2,430.4,347.3,430.8,347.5z M426.7,348.9v2.5h2.1
				c0.4,0,0.7-0.1,0.9-0.2c0.4-0.2,0.6-0.5,0.6-1.1c0-0.6-0.2-1-0.5-1.1c-0.2-0.1-0.5-0.2-0.9-0.2H426.7z"/>
			<path style="fill:#414142;" d="M437.7,354.8c0.3-0.6,0.9-1.3,1.8-2c0.8-0.6,1.4-1,1.6-1.3c0.4-0.4,0.6-0.8,0.6-1.3
				c0-0.4-0.1-0.7-0.3-1s-0.5-0.4-0.9-0.4c-0.6,0-0.9,0.2-1.1,0.6c-0.1,0.2-0.2,0.6-0.2,1.1h-1.8c0-0.8,0.2-1.4,0.4-1.9
				c0.5-0.9,1.3-1.4,2.6-1.4c1,0,1.8,0.3,2.3,0.8s0.9,1.3,0.9,2.1c0,0.7-0.2,1.3-0.6,1.8c-0.3,0.4-0.7,0.7-1.3,1.2l-0.7,0.5
				c-0.5,0.3-0.8,0.6-0.9,0.7c-0.2,0.1-0.3,0.3-0.4,0.5h4v1.6h-6.3C437.2,356,437.4,355.3,437.7,354.8z"/>
			<path style="fill:#414142;" d="M445.3,348.2c0.6-0.6,1.3-0.9,2.2-0.9c1.4,0,2.4,0.6,2.9,1.9c0.3,0.7,0.4,1.6,0.4,2.8
				c0,1.1-0.1,2-0.4,2.8c-0.5,1.4-1.5,2.1-3,2.1c-0.7,0-1.3-0.2-1.9-0.6c-0.6-0.4-0.9-1-0.9-1.8h1.8c0,0.3,0.2,0.5,0.3,0.7
				s0.4,0.3,0.7,0.3c0.6,0,1-0.3,1.3-1c0.1-0.4,0.2-0.9,0.2-1.6c-0.2,0.2-0.3,0.4-0.5,0.5c-0.3,0.2-0.8,0.3-1.3,0.3
				c-0.7,0-1.4-0.3-2-0.8c-0.6-0.5-0.9-1.2-0.9-2.2C444.5,349.6,444.7,348.8,445.3,348.2z M448.4,351.9c0.4-0.3,0.6-0.7,0.6-1.4
				c0-0.5-0.1-0.9-0.4-1.2c-0.2-0.3-0.6-0.5-1-0.5c-0.3,0-0.6,0.1-0.8,0.3c-0.3,0.3-0.5,0.7-0.5,1.4c0,0.5,0.1,1,0.3,1.2
				c0.2,0.3,0.6,0.4,1,0.4C447.9,352.1,448.2,352,448.4,351.9z"/>
			<path style="fill:#414142;" d="M459.1,347.2v1.7h-2.8v7.7h-2v-7.7h-2.8v-1.7H459.1z"/>
			<path style="fill:#414142;" d="M460.3,356.6v-9.4h1.9v3.6h3.6v-3.6h1.9v9.4h-1.9v-4.2h-3.6v4.2H460.3z"/>
		</g>
	</g>
	<g>
		<g>
			<path style="fill-rule:evenodd;clip-rule:evenodd;fill:#FFFFFF;stroke:#FFFFFF;stroke-width:1.6539;stroke-miterlimit:10;" d="
				M274.3,222.8c-0.9-3.8-4.4-6.6-8.5-6.6c-4.1,0-7.5,2.8-8.5,6.6H274.3z"/>
			<path style="fill-rule:evenodd;clip-rule:evenodd;fill:#FFFFFF;stroke:#FFFFFF;stroke-width:1.6539;stroke-miterlimit:10;" d="
				M257.4,227c0.9,3.8,4.4,6.6,8.5,6.6c4.1,0,7.5-2.8,8.5-6.6H257.4z"/>
		</g>
		<g>
			<path style="fill-rule:evenodd;clip-rule:evenodd;fill:#FFFFFF;stroke:#FFFFFF;stroke-width:1.6539;stroke-miterlimit:10;" d="
				M249.9,222.8c-0.9-3.8-4.4-6.6-8.5-6.6c-4.1,0-7.5,2.8-8.5,6.6H249.9z"/>
			<path style="fill-rule:evenodd;clip-rule:evenodd;fill:#FFFFFF;stroke:#FFFFFF;stroke-width:1.6539;stroke-miterlimit:10;" d="
				M233,227c0.9,3.8,4.4,6.6,8.5,6.6c4.1,0,7.5-2.8,8.5-6.6H233z"/>
		</g>
		<g>
			<path style="fill-rule:evenodd;clip-rule:evenodd;fill:#FFFFFF;stroke:#FFFFFF;stroke-width:1.6539;stroke-miterlimit:10;" d="
				M225.4,222.8c-0.9-3.8-4.4-6.6-8.5-6.6c-4.1,0-7.5,2.8-8.5,6.6H225.4z"/>
			<path style="fill-rule:evenodd;clip-rule:evenodd;fill:#FFFFFF;stroke:#FFFFFF;stroke-width:1.6539;stroke-miterlimit:10;" d="
				M208.5,227c0.9,3.8,4.4,6.6,8.5,6.6c4.1,0,7.5-2.8,8.5-6.6H208.5z"/>
		</g>
		<g>
			<path style="fill-rule:evenodd;clip-rule:evenodd;fill:none;stroke:#FFFFFF;stroke-width:1.6539;stroke-miterlimit:10;" d="
				M201,222.8c-0.9-3.8-4.4-6.6-8.5-6.6c-4.1,0-7.5,2.8-8.5,6.6H201z"/>
			<path style="fill-rule:evenodd;clip-rule:evenodd;fill:none;stroke:#FFFFFF;stroke-width:1.6539;stroke-miterlimit:10;" d="
				M184.1,227c0.9,3.8,4.4,6.6,8.5,6.6c4.1,0,7.5-2.8,8.5-6.6H184.1z"/>
		</g>
		<g>
			<path style="fill-rule:evenodd;clip-rule:evenodd;fill:none;stroke:#FFFFFF;stroke-width:1.6539;stroke-miterlimit:10;" d="
				M176.5,222.8c-0.9-3.8-4.4-6.6-8.5-6.6c-4.1,0-7.5,2.8-8.5,6.6H176.5z"/>
			<path style="fill-rule:evenodd;clip-rule:evenodd;fill:none;stroke:#FFFFFF;stroke-width:1.6539;stroke-miterlimit:10;" d="
				M159.6,227c0.9,3.8,4.4,6.6,8.5,6.6c4.1,0,7.5-2.8,8.5-6.6H159.6z"/>
		</g>
		<g>
			<path style="fill-rule:evenodd;clip-rule:evenodd;fill:none;stroke:#FFFFFF;stroke-width:1.6539;stroke-miterlimit:10;" d="
				M152.1,222.8c-0.9-3.8-4.4-6.6-8.5-6.6s-7.5,2.8-8.5,6.6H152.1z"/>
			<path style="fill-rule:evenodd;clip-rule:evenodd;fill:none;stroke:#FFFFFF;stroke-width:1.6539;stroke-miterlimit:10;" d="
				M135.2,227c0.9,3.8,4.4,6.6,8.5,6.6s7.5-2.8,8.5-6.6H135.2z"/>
		</g>
	</g>
	<g>
		<g>
			<path style="fill-rule:evenodd;clip-rule:evenodd;fill:#FFFFFF;stroke:#FFFFFF;stroke-width:1.6539;stroke-miterlimit:10;" d="
				M563.4,387c0.9,3.8,4.4,6.6,8.5,6.6c4.1,0,7.5-2.8,8.5-6.6H563.4z"/>
			<path style="fill-rule:evenodd;clip-rule:evenodd;fill:#FFFFFF;stroke:#FFFFFF;stroke-width:1.6539;stroke-miterlimit:10;" d="
				M580.4,382.8c-0.9-3.8-4.4-6.6-8.5-6.6c-4.1,0-7.5,2.8-8.5,6.6H580.4z"/>
		</g>
		<g>
			<path style="fill-rule:evenodd;clip-rule:evenodd;fill:#FFFFFF;stroke:#FFFFFF;stroke-width:1.6539;stroke-miterlimit:10;" d="
				M587.9,387c0.9,3.8,4.4,6.6,8.5,6.6c4.1,0,7.5-2.8,8.5-6.6H587.9z"/>
			<path style="fill-rule:evenodd;clip-rule:evenodd;fill:#FFFFFF;stroke:#FFFFFF;stroke-width:1.6539;stroke-miterlimit:10;" d="
				M604.8,382.8c-0.9-3.8-4.4-6.6-8.5-6.6c-4.1,0-7.5,2.8-8.5,6.6H604.8z"/>
		</g>
		<g>
			<path style="fill-rule:evenodd;clip-rule:evenodd;fill:#FFFFFF;stroke:#FFFFFF;stroke-width:1.6539;stroke-miterlimit:10;" d="
				M612.3,387c0.9,3.8,4.4,6.6,8.5,6.6c4.1,0,7.5-2.8,8.5-6.6H612.3z"/>
			<path style="fill-rule:evenodd;clip-rule:evenodd;fill:#FFFFFF;stroke:#FFFFFF;stroke-width:1.6539;stroke-miterlimit:10;" d="
				M629.3,382.8c-0.9-3.8-4.4-6.6-8.5-6.6c-4.1,0-7.5,2.8-8.5,6.6H629.3z"/>
		</g>
		<g>
			<path style="fill-rule:evenodd;clip-rule:evenodd;fill:none;stroke:#FFFFFF;stroke-width:1.6539;stroke-miterlimit:10;" d="
				M636.8,387c0.9,3.8,4.4,6.6,8.5,6.6s7.5-2.8,8.5-6.6H636.8z"/>
			<path style="fill-rule:evenodd;clip-rule:evenodd;fill:none;stroke:#FFFFFF;stroke-width:1.6539;stroke-miterlimit:10;" d="
				M653.7,382.8c-0.9-3.8-4.4-6.6-8.5-6.6s-7.5,2.8-8.5,6.6H653.7z"/>
		</g>
		<g>
			<path style="fill-rule:evenodd;clip-rule:evenodd;fill:none;stroke:#FFFFFF;stroke-width:1.6539;stroke-miterlimit:10;" d="
				M661.2,387c0.9,3.8,4.4,6.6,8.5,6.6s7.5-2.8,8.5-6.6H661.2z"/>
			<path style="fill-rule:evenodd;clip-rule:evenodd;fill:none;stroke:#FFFFFF;stroke-width:1.6539;stroke-miterlimit:10;" d="
				M678.2,382.8c-0.9-3.8-4.4-6.6-8.5-6.6s-7.5,2.8-8.5,6.6H678.2z"/>
		</g>
		<g>
			<path style="fill-rule:evenodd;clip-rule:evenodd;fill:none;stroke:#FFFFFF;stroke-width:1.6539;stroke-miterlimit:10;" d="
				M685.7,387c0.9,3.8,4.4,6.6,8.5,6.6s7.5-2.8,8.5-6.6H685.7z"/>
			<path style="fill-rule:evenodd;clip-rule:evenodd;fill:none;stroke:#FFFFFF;stroke-width:1.6539;stroke-miterlimit:10;" d="
				M702.6,382.8c-0.9-3.8-4.4-6.6-8.5-6.6s-7.5,2.8-8.5,6.6H702.6z"/>
		</g>
	</g>
</g>
</svg>
